<svg width="14" height="9" viewBox="0 0 14 9" fill="none" xmlns="http://www.w3.org/2000/svg">
<path d="M8.49097 0.964466C8.30343 1.152 8.19808 1.40636 8.19808 1.67157C8.19808 1.93679 8.30343 2.19114 8.49097 2.37868L9.61527 3.50298L1.4199 3.49591C1.28804 3.49591 1.15747 3.52188 1.03565 3.57234C0.91383 3.6228 0.803139 3.69676 0.709901 3.79C0.616662 3.88324 0.542701 3.99393 0.492241 4.11575C0.441781 4.23757 0.415809 4.36814 0.415809 4.5C0.415809 4.7663 0.521597 5.0217 0.709901 5.21C0.898204 5.3983 1.1536 5.50409 1.4199 5.50409L9.61527 5.49702L8.49097 6.62132C8.30343 6.80886 8.19808 7.06321 8.19808 7.32843C8.19808 7.59364 8.30343 7.848 8.49097 8.03553C8.6785 8.22307 8.93286 8.32843 9.19808 8.32843C9.46329 8.32843 9.71765 8.22307 9.90518 8.03553L12.7336 5.20711C12.8249 5.11359 12.897 5.00308 12.9457 4.88184C13.0468 4.6373 13.0468 4.3627 12.9457 4.11816C12.897 3.99692 12.8249 3.88641 12.7336 3.79289L9.90518 0.964466C9.71765 0.77693 9.46329 0.671574 9.19808 0.671574C8.93286 0.671573 8.6785 0.77693 8.49097 0.964466Z" fill="#ADF5DE"/>
</svg>
