<svg width="30" height="34" viewBox="0 0 30 34" fill="none" xmlns="http://www.w3.org/2000/svg">
<path d="M25 8.66668H24.4167C24.797 7.88795 24.9964 7.03332 25 6.16668C25.005 5.00556 24.6625 3.86949 24.0164 2.90473C23.3702 1.93996 22.4502 1.19065 21.3746 0.753243C20.299 0.315834 19.1171 0.210349 17.981 0.450366C16.845 0.690382 15.8068 1.26492 15 2.10001C14.1932 1.26492 13.155 0.690382 12.019 0.450366C10.8829 0.210349 9.70102 0.315834 8.62542 0.753243C7.54983 1.19065 6.62976 1.93996 5.98365 2.90473C5.33754 3.86949 4.99496 5.00556 5 6.16668C5.00356 7.03332 5.20297 7.88795 5.58333 8.66668H5C3.67392 8.66668 2.40215 9.19346 1.46447 10.1311C0.526784 11.0688 0 12.3406 0 13.6667V17C0 17.442 0.175595 17.866 0.488155 18.1785C0.800716 18.4911 1.22464 18.6667 1.66667 18.6667H3.33333V28.6667C3.33333 29.9928 3.86012 31.2645 4.7978 32.2022C5.73548 33.1399 7.00725 33.6667 8.33333 33.6667H21.6667C22.9927 33.6667 24.2645 33.1399 25.2022 32.2022C26.1399 31.2645 26.6667 29.9928 26.6667 28.6667V18.6667H28.3333C28.7754 18.6667 29.1993 18.4911 29.5118 18.1785C29.8244 17.866 30 17.442 30 17V13.6667C30 12.3406 29.4732 11.0688 28.5355 10.1311C27.5979 9.19346 26.3261 8.66668 25 8.66668ZM13.3333 30.3333H8.33333C7.89131 30.3333 7.46738 30.1578 7.15482 29.8452C6.84226 29.5326 6.66667 29.1087 6.66667 28.6667V18.6667H13.3333V30.3333ZM13.3333 15.3333H3.33333V13.6667C3.33333 13.2247 3.50893 12.8007 3.82149 12.4882C4.13405 12.1756 4.55797 12 5 12H13.3333V15.3333ZM13.3333 8.66668H10.8333C10.3389 8.66668 9.85553 8.52006 9.44441 8.24535C9.03329 7.97065 8.71285 7.5802 8.52363 7.12339C8.33442 6.66657 8.28491 6.1639 8.38137 5.67895C8.47783 5.194 8.71593 4.74854 9.06557 4.39891C9.4152 4.04928 9.86065 3.81118 10.3456 3.71471C10.8306 3.61825 11.3332 3.66776 11.79 3.85698C12.2469 4.0462 12.6373 4.36663 12.912 4.77775C13.1867 5.18888 13.3333 5.67222 13.3333 6.16668V8.66668ZM16.6667 6.16668C16.6667 5.67222 16.8133 5.18888 17.088 4.77775C17.3627 4.36663 17.7531 4.0462 18.21 3.85698C18.6668 3.66776 19.1694 3.61825 19.6544 3.71471C20.1393 3.81118 20.5848 4.04928 20.9344 4.39891C21.2841 4.74854 21.5222 5.194 21.6186 5.67895C21.7151 6.1639 21.6656 6.66657 21.4764 7.12339C21.2871 7.5802 20.9667 7.97065 20.5556 8.24535C20.1445 8.52006 19.6611 8.66668 19.1667 8.66668H16.6667V6.16668ZM23.3333 28.6667C23.3333 29.1087 23.1577 29.5326 22.8452 29.8452C22.5326 30.1578 22.1087 30.3333 21.6667 30.3333H16.6667V18.6667H23.3333V28.6667ZM26.6667 15.3333H16.6667V12H25C25.442 12 25.866 12.1756 26.1785 12.4882C26.4911 12.8007 26.6667 13.2247 26.6667 13.6667V15.3333Z" fill="#08374B"/>
</svg>
