<svg width="395" height="526" viewBox="0 0 395 526" fill="none" xmlns="http://www.w3.org/2000/svg">
<g opacity="0.02">
<path d="M377.124 380.326C377.111 380.127 377.111 379.926 377.124 379.727C377.225 379.014 376.884 378.815 376.227 378.877C375.902 378.896 375.577 378.896 375.253 378.877H17.2437V453.263H18.963C137.857 453.263 256.751 453.263 375.645 453.263C376.821 453.263 377.187 453.051 377.175 451.801C377.124 427.955 377.107 404.13 377.124 380.326Z" fill="#2A9E98"/>
<path d="M372.94 459.06C369.64 461.559 366.467 463.758 363.231 465.844C353.093 472.408 342.225 477.799 330.842 481.911C329.578 482.373 329.578 482.373 329.578 481.061C329.578 474.065 329.578 467.081 329.578 460.085C329.578 459.297 329.729 458.985 330.614 458.985C344.487 458.985 358.347 458.985 372.194 458.985L372.94 459.06Z" fill="#2A9E98"/>
<path d="M21.4915 458.998H22.7557C36.3838 458.998 49.9992 458.998 63.6147 458.998C64.7145 458.998 64.8789 459.31 64.8789 460.334C64.8789 467.318 64.8789 474.315 64.8789 481.298C64.8789 482.248 64.6513 482.348 63.8043 482.048C48.8545 476.621 34.7968 469.043 22.0856 459.56C21.8777 459.383 21.6794 459.195 21.4915 458.998Z" fill="#2A9E98"/>
<path d="M245.066 340.547C244.092 341.284 243.207 342.021 242.259 342.658C240.494 343.884 238.387 344.539 236.229 344.532C234.822 344.567 233.442 344.153 232.292 343.352C231.142 342.551 230.284 341.405 229.845 340.085C229.63 339.485 229.465 338.835 229.238 338.173C228.252 339.023 227.316 339.885 226.33 340.672C223.528 343.101 219.943 344.465 216.217 344.52C212.614 344.52 209.504 342.946 208.442 339.285C208.126 338.211 207.734 339.085 207.494 339.285C205.303 341.534 202.565 343.191 199.542 344.095C193.828 345.632 189.201 342.433 188.783 336.599C188.455 331.889 189.719 327.441 191.198 323.044C192.702 318.144 195.216 313.606 198.581 309.713C201.337 306.69 204.624 304.578 208.935 304.516C210.785 304.373 212.631 304.845 214.179 305.856C215.727 306.868 216.889 308.362 217.481 310.1C217.974 310.1 217.974 309.626 218.138 309.363C218.792 308.206 219.74 307.238 220.888 306.554C222.037 305.871 223.346 305.495 224.687 305.465C226.495 305.39 228.302 305.465 230.249 305.465C228.644 309.401 227.063 313.174 225.546 316.984C223.41 322.306 220.983 327.516 219.225 332.963C218.854 333.978 218.649 335.045 218.619 336.124C218.619 337.773 219.453 338.361 221.046 337.936C222.736 337.37 224.251 336.385 225.445 335.075C227.065 333.511 228.538 331.805 229.845 329.977C230.032 329.717 230.189 329.436 230.312 329.14C232.499 322.769 235.369 316.647 237.898 310.4C238.443 308.867 239.478 307.551 240.846 306.65C242.214 305.748 243.841 305.311 245.483 305.403H250.54C249.528 307.901 248.568 310.15 247.632 312.474C245.002 319.008 242.069 325.43 239.68 332.076C239.211 333.222 238.987 334.451 239.023 335.687C238.997 335.88 239.017 336.077 239.081 336.261C239.145 336.445 239.252 336.612 239.394 336.748C239.535 336.884 239.707 336.985 239.895 337.044C240.083 337.103 240.282 337.117 240.477 337.086C241.145 337.057 241.801 336.898 242.406 336.617C243.012 336.336 243.555 335.939 244.004 335.45C246.456 333.017 248.543 330.248 250.198 327.229C252.942 322.781 254.421 317.771 256.519 313.061C256.937 312.149 257.278 311.212 257.695 310.313C258.279 308.812 259.326 307.53 260.687 306.649C262.048 305.768 263.655 305.332 265.28 305.403H270.236L255.622 340.647C256.33 340.847 256.722 340.422 257.139 340.197C263.94 336.536 268.845 331.014 272.79 324.555C273.561 323.306 274.18 323.194 275.318 324.218C275.932 324.783 276.307 325.556 276.371 326.382C276.434 327.209 276.18 328.028 275.659 328.678C271.726 334.999 266.277 340.264 259.794 344.008C257.91 345.082 256.001 346.057 253.991 346.969C253.554 347.152 253.163 347.426 252.844 347.774C252.526 348.121 252.287 348.533 252.145 348.98C250.95 352.495 249.324 355.851 247.303 358.975C244.977 362.435 242.095 365.222 237.784 365.996C234.724 366.546 231.703 366.446 229.099 364.509C227.741 363.418 226.806 361.897 226.454 360.203C226.101 358.509 226.352 356.746 227.165 355.214C228.485 352.667 230.63 350.631 233.258 349.43C235.786 348.18 238.403 346.931 241.045 345.882C241.892 345.631 242.657 345.166 243.264 344.533C243.872 343.899 244.301 343.119 244.509 342.271C244.765 341.721 244.951 341.142 245.066 340.547ZM198.985 332.938C198.985 335.599 200.25 336.686 202.525 336.012C204.106 335.557 205.565 334.761 206.796 333.681C208.027 332.6 208.999 331.263 209.643 329.765C211.463 326.017 212.917 322.069 214.51 318.209C214.746 317.609 214.822 316.959 214.73 316.321C214.638 315.684 214.382 315.081 213.985 314.57C213.589 314.059 213.066 313.657 212.467 313.404C211.868 313.151 211.213 313.054 210.566 313.124C209.689 313.274 208.867 313.644 208.176 314.198C205.332 316.31 203.701 319.296 202.234 322.369C200.561 325.688 199.462 329.26 198.985 332.938ZM240.843 351.066C239.263 351.754 237.986 352.316 236.722 352.878C235.943 353.204 235.194 353.597 234.484 354.052C233.197 354.732 232.188 355.831 231.627 357.163C231.515 357.452 231.475 357.764 231.511 358.071C231.547 358.378 231.658 358.673 231.835 358.928C232.011 359.184 232.248 359.393 232.525 359.538C232.801 359.684 233.109 359.76 233.422 359.762C233.946 359.77 234.466 359.671 234.949 359.471C235.432 359.271 235.868 358.975 236.229 358.6C238.467 356.614 239.642 354.015 240.843 351.066Z" fill="#2A9E98"/>
<path d="M164.27 282.265C167.4 282.348 170.495 282.931 173.436 283.989C176.041 285.069 178.46 286.544 180.604 288.362C184.63 291.897 187.252 296.733 188 302.005C189.132 308.62 188.729 315.402 186.821 321.841C184.914 328.279 181.552 334.206 176.988 339.173C174.533 342.037 171.435 344.295 167.941 345.767C164.447 347.24 160.653 347.887 156.862 347.656C152.441 347.351 148.241 345.627 144.903 342.746C144.208 342.196 143.563 341.397 142.779 341.222C141.995 341.047 141.35 342.084 140.63 342.546C138.113 344.295 135.234 345.469 132.201 345.983C129.169 346.497 126.058 346.339 123.095 345.519C120.728 344.96 118.63 343.605 117.161 341.686C115.692 339.767 114.943 337.404 115.042 335C115.158 332.528 116.115 330.166 117.758 328.298C119.401 326.43 121.633 325.164 124.094 324.705C126.32 324.296 128.606 324.325 130.821 324.79C133.036 325.256 135.136 326.148 137.002 327.416C137.798 327.904 138.582 328.391 139.315 328.941C140.048 329.49 140.251 329.265 140.579 328.641C142.352 325.467 143.853 322.153 145.067 318.733C146.787 314.448 148.455 310.138 150.213 305.865C151.183 303.101 152.938 300.672 155.269 298.869C156.484 297.966 157.905 297.374 159.406 297.143C160.908 296.912 162.444 297.05 163.879 297.544C164.384 297.694 164.675 297.807 164.346 298.406C159.631 307.152 156.331 316.559 152.652 325.767C151.486 328.841 149.972 331.775 148.139 334.513C147.861 334.9 147.52 335.237 148.139 335.674C151.338 337.911 154.688 339.597 158.784 339.173C162.178 338.762 165.328 337.214 167.709 334.787C172.829 329.94 175.674 323.831 177.266 317.122C178.669 311.97 178.669 306.544 177.266 301.392C175.256 294.646 170.339 290.835 163.259 290.348C156.559 289.898 150.68 291.672 146.066 296.595C144.264 298.395 142.92 300.592 142.142 303.004C141.364 305.417 141.175 307.977 141.591 310.475C141.849 311.923 141.684 313.414 141.115 314.773C140.546 316.131 139.597 317.301 138.38 318.146L138.089 318.359C135.813 320.008 135.813 320.008 134.701 317.359C132.474 311.816 132.327 305.668 134.286 300.027C136.245 294.386 140.181 289.624 145.383 286.6C145.649 286.425 145.927 286.275 146.205 286.1C148.938 284.598 151.87 283.479 154.915 282.777C158.01 282.308 161.143 282.137 164.27 282.265ZM127.609 338.148C130.249 338.182 132.811 337.262 134.815 335.562C135.194 335.262 135.51 334.987 134.941 334.55C133.281 333.16 131.373 332.088 129.315 331.389C128.567 331.143 127.774 331.06 126.99 331.147C126.207 331.233 125.452 331.486 124.777 331.889C124.15 332.224 123.647 332.746 123.34 333.382C123.034 334.017 122.939 334.733 123.07 335.425C123.181 336.017 123.469 336.562 123.897 336.99C124.326 337.417 124.874 337.708 125.472 337.823C126.14 338.077 126.856 338.188 127.571 338.148H127.609Z" fill="#2A9E98"/>
<path d="M198.985 332.939C199.466 329.273 200.565 325.714 202.234 322.407C203.701 319.333 205.332 316.347 208.176 314.236C208.867 313.682 209.689 313.312 210.566 313.161C211.213 313.092 211.868 313.188 212.467 313.442C213.066 313.695 213.589 314.096 213.985 314.607C214.382 315.118 214.638 315.721 214.73 316.359C214.822 316.996 214.746 317.646 214.51 318.246C212.917 322.107 211.463 326.042 209.643 329.803C208.999 331.3 208.027 332.638 206.796 333.718C205.565 334.799 204.106 335.595 202.525 336.049C200.224 336.637 198.96 335.6 198.985 332.939Z" fill="#FAFAFA"/>
<path d="M240.843 351.066C239.642 354.04 238.466 356.638 236.229 358.562C235.868 358.937 235.432 359.234 234.949 359.434C234.466 359.634 233.946 359.733 233.422 359.724C233.109 359.723 232.801 359.646 232.524 359.501C232.248 359.356 232.011 359.146 231.835 358.891C231.658 358.635 231.547 358.341 231.511 358.033C231.475 357.726 231.515 357.415 231.627 357.126C232.188 355.794 233.197 354.695 234.484 354.015C235.194 353.56 235.943 353.167 236.722 352.84C237.986 352.316 239.263 351.729 240.843 351.066Z" fill="#FAFAFA"/>
<path d="M127.571 338.148C126.843 338.193 126.114 338.083 125.434 337.823C124.836 337.708 124.288 337.418 123.859 336.99C123.431 336.562 123.143 336.017 123.032 335.425C122.901 334.733 122.996 334.017 123.302 333.382C123.609 332.747 124.112 332.224 124.739 331.889C125.414 331.486 126.169 331.233 126.953 331.147C127.736 331.06 128.529 331.143 129.277 331.389C131.335 332.088 133.243 333.16 134.903 334.55C135.472 334.987 135.156 335.262 134.777 335.562C132.773 337.262 130.211 338.182 127.571 338.148Z" fill="#FAFAFA"/>
<path d="M196.571 511.795C193.284 510.908 189.997 510.046 186.71 509.146C162.526 502.55 139.467 493.38 118.279 479.912C108.96 474.019 100.183 467.33 92.0466 459.922L91.1111 459.035C94.6382 459.035 97.8998 459.16 101.149 459.035C102.174 458.962 103.204 459.097 104.176 459.43C105.147 459.762 106.04 460.287 106.8 460.971C122.504 473.447 140.031 483.497 158.784 490.781C171 495.594 183.531 499.585 196.293 502.725C196.836 502.862 197.406 502.862 197.949 502.725C217.516 498.041 236.476 491.158 254.459 482.21C266.832 475.992 278.477 468.45 289.186 459.722C289.696 459.283 290.356 459.051 291.032 459.072C294.711 459.072 298.39 459.072 302.068 459.072H303.244C300.615 461.571 298.074 463.758 295.495 465.894C275.571 482.41 252.967 494.142 228.593 502.737C218.657 506.205 208.552 509.178 198.315 511.645C198.129 511.701 197.95 511.78 197.784 511.882L196.571 511.795Z" fill="#FAFAFA"/>
<path d="M197.051 373.13C153.571 373.13 110.095 373.13 66.6235 373.13C65.5995 373.13 65.2202 372.98 65.2076 371.818C64.7398 328.441 64.8157 285.064 64.8789 241.686C64.8789 216.699 65.0559 191.637 65.0559 166.601C64.9616 165.788 65.1457 164.967 65.5788 164.269C66.0119 163.572 66.669 163.038 67.4452 162.753C82.7042 155.281 98.7173 149.418 115.219 145.262C126.649 142.345 138.24 140.084 149.934 138.49C169.367 135.854 188.989 134.843 208.593 135.467C219.01 135.75 229.398 136.545 239.756 137.853C263.458 140.617 286.713 146.321 308.971 154.832C315.52 157.405 321.929 160.283 328.2 163.465C328.546 163.598 328.838 163.84 329.03 164.154C329.222 164.468 329.303 164.837 329.262 165.201C329.262 180.56 329.299 195.91 329.375 211.252C329.535 245.559 329.578 279.862 329.502 314.161C329.502 333.351 329.249 352.541 329.148 371.731C329.148 372.855 328.933 373.168 327.732 373.168C284.167 373.134 240.607 373.122 197.051 373.13ZM146.18 286.101C145.902 286.275 145.623 286.425 145.358 286.6C140.167 289.633 136.244 294.4 134.297 300.04C132.349 305.681 132.506 311.823 134.739 317.359C135.851 320.008 135.851 320.008 138.127 318.359L138.418 318.146C139.635 317.302 140.584 316.131 141.153 314.773C141.722 313.414 141.887 311.923 141.629 310.475C141.228 307.961 141.439 305.389 142.244 302.971C143.048 300.553 144.423 298.359 146.256 296.57C150.87 291.573 156.748 289.849 163.449 290.323C170.528 290.811 175.446 294.621 177.456 301.368C178.859 306.519 178.859 311.945 177.456 317.097C175.863 323.806 173.019 329.915 167.899 334.763C165.518 337.189 162.368 338.737 158.973 339.148C154.877 339.573 151.527 337.898 148.329 335.65C147.697 335.212 148.038 334.875 148.329 334.488C150.161 331.75 151.675 328.816 152.842 325.742C156.521 316.535 159.82 307.165 164.536 298.382C164.865 297.782 164.536 297.67 164.068 297.52C162.633 297.025 161.097 296.887 159.596 297.118C158.094 297.349 156.674 297.942 155.459 298.844C153.128 300.647 151.372 303.076 150.402 305.84C148.645 310.113 146.976 314.423 145.257 318.709C144.042 322.129 142.541 325.443 140.769 328.616C140.39 329.241 140.061 329.365 139.505 328.916C138.948 328.466 137.988 327.879 137.191 327.391C135.306 326.109 133.182 325.212 130.942 324.75C128.701 324.289 126.391 324.274 124.145 324.705C121.674 325.154 119.43 326.415 117.778 328.285C116.125 330.154 115.161 332.521 115.042 335C114.941 337.397 115.683 339.755 117.142 341.673C118.6 343.591 120.686 344.95 123.045 345.52C126.008 346.339 129.118 346.498 132.151 345.983C135.183 345.469 138.062 344.295 140.579 342.546C141.3 342.084 141.843 341.034 142.728 341.222C143.613 341.409 144.157 342.196 144.852 342.746C148.191 345.627 152.39 347.351 156.812 347.656C160.611 347.895 164.415 347.252 167.918 345.779C171.421 344.306 174.528 342.044 176.988 339.173C181.552 334.206 184.914 328.279 186.821 321.841C188.729 315.402 189.132 308.62 188 302.005C187.252 296.734 184.63 291.897 180.604 288.362C178.46 286.544 176.041 285.069 173.436 283.989C173.436 280.666 173.436 277.343 173.436 273.994C173.436 261.559 173.406 249.124 173.347 236.689C173.347 231.783 173.347 226.865 173.347 221.934C173.347 221.584 173.019 220.947 173.777 220.922C176.634 220.822 179.706 219.948 181.666 223.133C182.2 223.888 182.838 224.566 183.562 225.145C183.793 225.362 183.972 225.627 184.086 225.921C184.199 226.215 184.245 226.53 184.22 226.844C184.22 239.004 184.22 251.156 184.22 263.3C184.22 270.546 184.22 277.78 184.22 285.014C184.22 285.726 184.295 286.063 185.168 286.038C187.629 285.98 190.094 285.98 192.563 286.038C193.36 286.038 193.474 285.788 193.474 285.089C193.474 264.499 193.474 243.91 193.474 223.321C193.481 223.067 193.435 222.815 193.337 222.58C193.239 222.345 193.091 222.134 192.905 221.959C191.135 220.148 189.415 218.299 187.62 216.512C187.064 215.95 187.077 215.65 187.62 215.088C189.365 213.314 191.034 211.452 192.766 209.666C192.991 209.448 193.168 209.187 193.288 208.899C193.408 208.611 193.466 208.303 193.461 207.991C193.461 195.398 193.461 182.8 193.461 170.199C193.472 169.906 193.423 169.615 193.317 169.342C193.21 169.069 193.048 168.821 192.841 168.612C190.313 165.805 187.818 162.973 185.357 160.116C185.163 159.873 184.908 159.684 184.618 159.566C184.328 159.447 184.013 159.405 183.701 159.442C177.591 159.7 171.497 160.058 165.421 160.516C164.296 160.604 163.866 160.779 163.866 162.053C163.992 182.717 164.077 203.385 164.119 224.058L164.346 282.228C161.21 282.098 158.069 282.27 154.966 282.74C154.637 279.404 154.296 276.068 153.98 272.745C153.373 266.498 152.804 260.252 152.197 254.005C151.515 247.021 150.781 240.025 150.086 233.028C149.391 226.032 148.822 219.123 148.076 212.164C147.229 203.631 146.344 195.086 145.548 186.553C144.789 178.882 144.047 171.211 143.323 163.54C143.247 162.728 142.931 162.565 142.172 162.69C139.644 163.115 137.115 163.51 134.587 163.877C134.132 163.952 133.968 164.114 133.93 164.552C133.778 166.501 133.601 168.45 133.437 170.399C133.007 175.288 132.585 180.181 132.172 185.078C131.717 190.126 131.258 195.173 130.794 200.22L129.53 214.663C129.075 219.66 128.616 224.658 128.152 229.655C127.722 234.428 127.301 239.2 126.888 243.973L125.523 258.765C124.865 263.662 124.322 268.539 123.892 273.395C123.525 277.33 123.184 281.266 122.805 285.201C122.741 285.863 122.893 286.088 123.614 286.076C126.041 286.076 128.468 286.076 130.896 286.076C131.654 286.076 131.793 285.863 131.844 285.151C132.134 281.403 132.501 277.593 132.842 273.819C133.474 267.061 134.107 260.302 134.701 253.543C134.701 252.793 135.017 252.593 135.699 252.568C137.798 252.568 139.909 252.443 142.02 252.268C142.931 252.193 143.12 252.556 143.184 253.305C143.588 257.761 144.009 262.213 144.448 266.661C145.004 273.149 145.581 279.629 146.18 286.101ZM204.877 222.734H204.801C204.801 243.556 204.801 264.379 204.801 285.201C204.801 286.013 204.889 286.363 205.875 286.35C212.057 286.35 218.252 286.35 224.434 286.35C224.727 286.375 225.022 286.324 225.289 286.204C225.557 286.084 225.789 285.898 225.964 285.663C228.703 282.248 231.467 278.859 234.257 275.494C234.638 275.032 234.839 274.452 234.826 273.857C234.826 257.557 234.872 241.249 234.965 224.933C234.973 224.601 234.915 224.272 234.794 223.963C234.672 223.654 234.49 223.372 234.257 223.133C232.537 221.322 230.907 219.448 229.2 217.661C228.631 217.074 228.719 216.762 229.2 216.25C230.932 214.563 232.613 212.826 234.32 211.127C234.531 210.948 234.7 210.726 234.816 210.475C234.932 210.225 234.991 209.953 234.99 209.678C234.99 196.485 235.04 183.296 235.142 170.111C235.159 169.882 235.126 169.652 235.046 169.436C234.965 169.221 234.838 169.025 234.674 168.862C231.842 166.113 229.031 163.348 226.242 160.566C225.966 160.283 225.59 160.117 225.192 160.104C218.871 159.642 212.55 159.417 206.229 159.154C205.256 159.154 204.864 159.242 204.864 160.404C204.898 181.176 204.902 201.953 204.877 222.734ZM85.4348 231.004V285.338C85.4348 285.913 85.2578 286.488 86.2818 286.475C92.6028 286.475 98.9238 286.475 105.333 286.475C105.553 286.489 105.774 286.451 105.976 286.364C106.178 286.277 106.357 286.144 106.496 285.976C109.252 282.744 112.013 279.512 114.777 276.281C115.281 275.723 115.545 274.992 115.51 274.244C115.417 269.047 115.363 263.85 115.346 258.652C115.346 248.583 115.346 238.509 115.346 228.431C115.362 228.103 115.294 227.776 115.148 227.482C115.002 227.187 114.783 226.933 114.511 226.744C112.893 225.42 111.376 223.971 109.745 222.671C109.025 222.097 109.025 221.747 109.606 221.11C111.275 219.261 112.868 217.361 114.549 215.525C114.811 215.258 115.013 214.94 115.143 214.592C115.274 214.243 115.33 213.872 115.308 213.501C115.215 201.224 115.148 188.951 115.106 176.683C115.126 176.414 115.067 176.145 114.934 175.91C114.801 175.674 114.602 175.483 114.36 175.358C111.764 173.784 109.189 172.177 106.635 170.536C106.409 170.372 106.148 170.262 105.872 170.214C105.595 170.167 105.312 170.183 105.043 170.261C98.8606 171.873 92.6913 173.522 86.5726 175.333C85.6118 175.621 85.4601 176.046 85.4601 176.92C85.4516 194.944 85.4432 212.972 85.4348 231.004ZM245.066 340.547C244.943 341.143 244.748 341.722 244.484 342.271C244.276 343.12 243.847 343.899 243.239 344.533C242.631 345.166 241.866 345.631 241.02 345.882C238.378 346.944 235.774 348.143 233.233 349.43C230.605 350.631 228.459 352.668 227.139 355.214C226.327 356.746 226.076 358.509 226.428 360.203C226.781 361.897 227.715 363.419 229.073 364.51C231.678 366.446 234.699 366.546 237.759 365.996C242.069 365.222 244.952 362.436 247.278 358.975C249.299 355.851 250.925 352.495 252.12 348.98C252.262 348.533 252.5 348.121 252.819 347.774C253.138 347.427 253.529 347.152 253.966 346.969C255.938 346.057 257.885 345.082 259.768 344.008C266.238 340.26 271.674 334.995 275.596 328.678C276.117 328.028 276.371 327.209 276.307 326.382C276.244 325.556 275.868 324.783 275.255 324.218C274.142 323.194 273.523 323.281 272.726 324.555C268.782 331.015 263.877 336.537 257.076 340.197C256.658 340.422 256.266 340.847 255.558 340.647L270.211 305.515H265.255C263.629 305.445 262.023 305.881 260.661 306.762C259.3 307.643 258.254 308.925 257.67 310.425C257.253 311.325 256.911 312.262 256.494 313.174C254.357 317.884 252.878 322.894 250.173 327.342C248.517 330.361 246.431 333.129 243.978 335.562C243.529 336.052 242.986 336.449 242.381 336.73C241.775 337.011 241.119 337.17 240.451 337.199C240.257 337.23 240.057 337.215 239.869 337.157C239.681 337.098 239.51 336.996 239.368 336.86C239.227 336.724 239.12 336.558 239.056 336.373C238.991 336.189 238.971 335.993 238.997 335.8C238.961 334.564 239.185 333.335 239.655 332.189C242.044 325.542 244.977 319.121 247.607 312.587C248.542 310.263 249.503 307.964 250.514 305.515H245.458C243.816 305.423 242.189 305.861 240.82 306.762C239.452 307.664 238.418 308.98 237.872 310.513C235.344 316.76 232.436 322.831 230.287 329.253C230.164 329.549 230.007 329.83 229.819 330.09C228.512 331.918 227.04 333.624 225.42 335.187C224.225 336.497 222.71 337.482 221.02 338.048C219.428 338.473 218.606 337.886 218.593 336.237C218.624 335.158 218.828 334.091 219.2 333.076C220.995 327.629 223.422 322.419 225.521 317.097C227.038 313.286 228.618 309.513 230.224 305.578C228.277 305.578 226.431 305.515 224.661 305.578C223.321 305.608 222.012 305.983 220.863 306.667C219.714 307.351 218.766 308.319 218.113 309.476C217.948 309.738 217.948 310.2 217.455 310.213C216.864 308.474 215.702 306.981 214.154 305.969C212.606 304.957 210.76 304.485 208.909 304.628C204.598 304.628 201.324 306.802 198.556 309.826C195.19 313.718 192.677 318.257 191.173 323.156C189.694 327.554 188.429 332.002 188.758 336.712C189.175 342.546 193.815 345.744 199.516 344.208C202.54 343.303 205.278 341.647 207.468 339.398C207.708 339.16 208.1 338.286 208.416 339.398C209.478 343.058 212.588 344.607 216.191 344.632C219.918 344.578 223.503 343.214 226.305 340.784C227.291 339.997 228.226 339.135 229.213 338.286C229.44 338.985 229.604 339.598 229.819 340.197C230.259 341.518 231.117 342.664 232.267 343.465C233.417 344.266 234.797 344.68 236.204 344.645C238.361 344.652 240.468 343.997 242.234 342.771C243.207 342.021 244.092 341.284 245.066 340.547ZM280.223 227.169H279.907C279.907 231.766 279.907 236.347 279.907 240.912C279.907 255.654 279.861 270.405 279.768 285.164C279.768 285.838 279.945 286.038 280.628 286.026C283.017 286.026 285.406 285.951 287.796 286.026C288.794 286.026 288.959 285.726 288.959 284.776C288.959 272.708 289.022 260.639 289.047 248.545C289.047 242.236 289.047 235.914 289.047 229.605C289.047 228.093 289.047 228.106 290.501 228.356C291.375 228.507 292.257 228.603 293.143 228.643C294.289 228.586 295.43 228.823 296.456 229.331C297.481 229.839 298.357 230.601 298.996 231.542C299.475 232.156 299.749 232.903 299.78 233.678C299.78 250.757 299.717 267.823 299.654 284.901C299.654 285.776 299.831 286.051 300.766 286.013C303.143 285.938 305.532 285.951 307.922 286.013C308.731 286.013 308.908 285.788 308.908 285.014C308.908 267.823 308.908 250.632 308.908 233.441C308.915 233.168 308.866 232.897 308.764 232.643C308.662 232.39 308.509 232.159 308.314 231.966C306.632 230.18 305.027 228.318 303.257 226.582C302.511 225.82 302.637 225.482 303.446 224.908C305.014 223.796 306.493 222.546 308.048 221.397C308.312 221.226 308.526 220.989 308.668 220.711C308.81 220.432 308.875 220.122 308.857 219.81C308.857 208.341 308.857 196.868 308.857 185.391C308.87 184.833 308.682 184.288 308.326 183.854C305.899 180.668 303.472 177.482 301.108 174.247C300.679 173.627 300.036 173.182 299.3 172.997C293.308 171.386 287.315 169.874 281.272 168.487C280.375 168.275 280.122 168.412 280.122 169.387C280.198 188.685 280.232 207.946 280.223 227.169ZM246.519 224.283H246.026V285.201C246.026 285.851 245.887 286.375 246.949 286.363C254.383 286.363 261.829 286.363 269.262 286.363C270.034 286.363 270.211 286.126 270.211 285.413C270.211 282.652 270.211 279.891 270.286 277.143C270.286 276.318 270.034 276.156 269.262 276.143C265.584 276.143 261.905 276.043 258.226 275.956C257.278 275.956 256.026 276.368 255.445 275.756C254.863 275.144 255.28 273.932 255.28 272.982C255.348 257.357 255.403 241.728 255.445 226.094C255.445 225.22 255.698 225.032 256.519 225.107C260.792 225.507 265.053 225.845 269.313 226.257C270.135 226.332 270.577 226.332 270.514 225.307C270.447 222.709 270.447 220.11 270.514 217.511C270.514 216.574 270.173 216.35 269.389 216.262C265.128 215.862 260.868 215.413 256.608 215.013C255.773 214.938 255.445 214.763 255.445 213.838C255.529 200.845 255.588 187.852 255.622 174.859C255.622 174.109 255.723 173.822 256.608 173.972C260.931 174.696 265.28 175.358 269.616 176.071C270.274 176.183 270.653 176.233 270.64 175.346C270.64 172.597 270.64 169.836 270.716 167.075C270.716 166.426 270.602 166.138 269.844 166.001C262.524 164.589 255.167 163.415 247.784 162.39C246.519 162.228 246.444 162.515 246.444 163.565C246.494 183.812 246.519 204.052 246.519 224.283Z" fill="#FAFAFA"/>
<path d="M230.502 70.0883C237.556 70.6755 242.373 75.7978 242.171 82.3943C242.069 85.2578 240.913 87.9861 238.921 90.0677C236.929 92.1493 234.236 93.4411 231.349 93.7009C230.641 93.7009 230.388 93.9133 230.388 94.6629C230.388 103.658 230.388 112.654 230.388 121.649C230.388 122.473 230.742 122.498 231.387 122.561C256.044 124.756 280.353 129.813 303.813 137.628C317.341 142.309 330.45 148.097 343.003 154.931C343.255 155.046 343.462 155.238 343.592 155.48C343.722 155.721 343.769 155.998 343.724 156.268C343.952 167.825 343.85 179.369 343.901 190.925C344.061 228.58 344.128 266.24 344.103 303.904C344.103 325.455 343.901 346.994 343.8 368.545C343.8 369.794 343.686 370.944 343.8 372.143C343.863 373.08 343.484 373.242 342.637 373.217C340.45 373.155 338.263 373.155 336.088 373.217C335.191 373.217 334.938 373.03 334.963 372.118C335.064 365.846 335.132 359.57 335.165 353.29C335.216 340.589 335.25 327.879 335.266 315.16C335.266 277.055 335.245 238.954 335.203 200.857C335.203 187.789 335.064 174.709 335.014 161.64C335.043 161.314 334.964 160.988 334.789 160.71C334.613 160.433 334.35 160.22 334.04 160.104C316.826 151.106 298.573 144.201 279.679 139.539C268.852 136.795 257.879 134.647 246.81 133.105C238.896 131.981 230.957 131.181 222.98 130.607C211.792 129.795 200.604 129.545 189.403 129.757C179.378 129.957 169.365 130.569 159.403 131.656C136.424 133.994 113.796 138.954 91.9707 146.436C81.102 150.227 70.5372 154.821 60.3656 160.179C60.0762 160.296 59.8333 160.504 59.6736 160.77C59.514 161.035 59.4463 161.346 59.4807 161.653C59.4048 188.389 59.2658 215.137 59.2405 241.886C59.2405 277.867 59.2405 313.844 59.2405 349.817C59.2405 357.313 59.3543 364.697 59.4681 372.13C59.4681 372.98 59.329 373.292 58.3682 373.255C56.1938 373.18 54.0067 373.18 51.8196 373.255C50.8462 373.255 50.6313 372.992 50.6313 372.08C50.6313 364.251 50.5723 356.418 50.4543 348.58C50.1762 314.598 50.2394 280.616 50.2899 246.633C50.2899 218.573 50.4669 190.513 50.5554 162.452C50.5554 160.366 50.6566 158.292 50.6566 156.206C50.6297 155.952 50.6819 155.697 50.8062 155.473C50.9305 155.25 51.1209 155.07 51.3519 154.956C70.8938 144.304 91.7615 136.223 113.424 130.919C124.328 128.215 135.367 126.076 146.496 124.51C152.008 123.735 157.557 123.173 163.095 122.573C163.739 122.498 163.954 122.361 163.954 121.674C163.954 112.679 163.954 103.683 163.954 94.6879C163.954 93.9508 163.727 93.7634 163.006 93.7134C160.167 93.4709 157.51 92.2303 155.518 90.2169C153.525 88.2034 152.329 85.5506 152.147 82.7401C151.965 79.9296 152.809 77.1478 154.525 74.8997C156.242 72.6516 158.717 71.0863 161.502 70.4881C162.248 70.3381 163.019 70.2507 163.879 70.1258C161.349 65.501 159.848 60.3954 159.477 55.1508C159.107 49.9063 159.874 44.644 161.729 39.7167C164.431 32.1726 169.577 25.7211 176.369 21.3637C183.378 16.7809 191.735 14.6399 200.114 15.2799C208.494 15.92 216.418 19.3044 222.632 24.8972C228.845 30.4901 232.993 37.9717 234.419 46.1572C235.845 54.3427 234.466 62.7643 230.502 70.0883ZM188.29 120.874H197.506C197.909 120.865 198.306 120.771 198.669 120.599L220.869 110.917C221.093 110.856 221.289 110.719 221.421 110.529C221.553 110.339 221.613 110.109 221.589 109.88C221.589 104.77 221.589 99.6478 221.589 94.538C221.589 93.8259 221.362 93.6759 220.692 93.6759C218.227 93.6759 215.761 93.6759 213.284 93.6759C212.847 93.684 212.416 93.7818 212.019 93.9633C199.217 99.5604 186.415 105.157 173.613 110.755C173.345 110.828 173.114 110.995 172.963 111.225C172.811 111.455 172.75 111.732 172.791 112.004C172.791 114.915 172.854 117.838 172.791 120.749C172.791 121.699 173.132 121.736 173.904 121.674C178.682 121.299 183.486 121.187 188.29 120.874ZM197.14 86.7046H211.046C217.152 86.7046 223.258 86.7046 229.364 86.7046C230.195 86.755 231.025 86.5907 231.772 86.2278C232.519 85.8649 233.157 85.316 233.624 84.6351C234.091 83.9542 234.37 83.1648 234.435 82.3447C234.499 81.5246 234.346 80.702 233.991 79.9581C232.992 77.7967 231.134 77.0971 228.846 77.0971H165.522C164.958 77.0963 164.395 77.1465 163.841 77.247C163.136 77.369 162.469 77.6467 161.889 78.0595C161.309 78.4723 160.831 79.0094 160.49 79.6306C160.15 80.2519 159.956 80.9412 159.923 81.647C159.89 82.3527 160.019 83.0567 160.301 83.7062C160.69 84.6595 161.377 85.4654 162.261 86.0069C163.145 86.5483 164.181 86.7971 165.219 86.7171L197.14 86.7046Z" fill="#FAFAFA"/>
<path d="M113.664 459.047H280.792C278.264 460.871 275.95 462.558 273.624 464.157C256.794 475.501 238.419 484.423 219.048 490.656C212.104 492.963 205.083 495.004 197.987 496.778C197.524 496.921 197.033 496.947 196.558 496.853C174.687 491.281 153.575 483.672 133.993 472.453C126.923 468.435 120.132 463.956 113.664 459.047Z" fill="#FAFAFA"/>
<path d="M332.106 414.533C332.336 414.06 332.419 413.529 332.346 413.009C332.346 409.611 332.346 406.213 332.346 402.814C332.346 402.027 332.498 401.69 333.408 401.69C336.303 401.69 336.303 401.69 336.303 404.563C336.303 412.722 336.303 420.867 336.303 429.026C336.303 430.013 336.05 430.275 335.039 430.275C332.334 430.213 332.27 430.275 332.359 427.564C332.422 425.569 332.118 423.579 331.461 421.692C330.425 418.694 329.502 415.645 328.339 412.634C328.339 413.034 328.339 413.434 328.339 413.884C328.339 418.956 328.339 424.028 328.339 429.101C328.339 430.025 328.136 430.35 327.15 430.35C324.369 430.35 324.369 430.35 324.369 427.601C324.369 419.456 324.369 411.297 324.369 403.152C324.369 402.077 324.609 401.702 325.76 401.74C328.288 401.827 328.288 401.74 329.021 404.164C329.957 407.499 331.006 410.885 332.106 414.533Z" fill="#FAFAFA"/>
<path d="M135.712 412.984C135.712 418.569 135.712 424.166 135.712 429.763C135.712 430.75 135.56 431.162 134.448 431.125C131.818 431.037 131.818 431.125 131.818 428.489C131.818 420.13 131.818 411.772 131.818 403.414C131.818 402.44 132.046 402.165 133.083 402.165C135.763 402.227 135.763 402.165 136.521 404.663L139.366 414.059C139.444 414.418 139.639 414.743 139.922 414.983V411.098C139.922 408.461 139.922 405.825 139.922 403.177C139.922 402.415 140.124 402.165 140.946 402.165C143.942 402.165 143.942 402.165 143.942 405.051C143.942 413.321 143.942 421.605 143.942 429.875C143.942 430.775 143.765 431.125 142.754 431.125C139.934 431.125 139.871 431.125 139.947 428.389C140.02 426.316 139.698 424.247 138.999 422.292C137.924 419.206 137.002 416.045 136.015 412.959L135.712 412.984Z" fill="#FAFAFA"/>
<path d="M271.551 414.783C271.551 410.785 271.551 406.787 271.551 402.789C271.551 401.977 271.74 401.69 272.613 401.703C275.457 401.703 275.457 401.703 275.457 404.501C275.457 412.697 275.457 420.893 275.457 429.088C275.457 430 275.255 430.338 274.269 430.338C271.563 430.338 271.5 430.338 271.576 427.651C271.635 425.701 271.327 423.756 270.666 421.917C269.591 418.806 268.656 415.67 267.442 412.509V413.534C267.442 418.731 267.442 423.928 267.442 429.126C267.442 430.013 267.24 430.288 266.317 430.275C263.536 430.275 263.536 430.275 263.536 427.539C263.536 419.381 263.536 411.223 263.536 403.077C263.536 402.04 263.713 401.615 264.888 401.665C267.417 401.765 267.417 401.665 268.15 404.164L271.07 413.909C271.171 414.233 271.285 414.558 271.386 414.896L271.551 414.783Z" fill="#FAFAFA"/>
<path d="M51.2507 416.257C53.7791 416.87 54.5377 418.606 54.3733 421.017C54.2343 422.929 54.3733 424.853 54.3733 426.764C54.3733 429.526 53.1091 430.85 50.3784 431C47.85 431.137 45.3216 431 42.7932 431.1C42.1738 431.1 41.9715 430.875 41.9715 430.263C41.9715 421.159 41.9715 412.051 41.9715 402.939C41.9715 402.577 41.9715 402.177 42.4772 402.19C44.9764 402.073 47.4807 402.119 49.9739 402.327C51.07 402.429 52.0818 402.952 52.7912 403.784C53.5006 404.616 53.8509 405.69 53.7665 406.775C53.7665 408.774 53.7665 410.773 53.7665 412.772C53.867 413.454 53.7044 414.149 53.311 414.718C52.9176 415.287 52.3221 415.689 51.6426 415.845C51.5523 415.884 51.4709 415.94 51.4035 416.011C51.3361 416.082 51.2841 416.166 51.2507 416.257ZM50.4164 423.041V420.78C50.4164 418.444 49.9486 417.969 47.6351 417.882C47.3444 417.882 47.0662 417.882 46.7881 417.882C46.0928 417.819 45.8905 418.131 45.9032 418.794C45.9032 420.818 45.9032 422.854 45.9032 424.878C45.9032 427.889 45.9032 427.889 48.9373 427.577C49.1419 427.587 49.3464 427.553 49.5365 427.478C49.7267 427.402 49.898 427.287 50.0387 427.139C50.1793 426.992 50.2859 426.816 50.3511 426.624C50.4163 426.432 50.4386 426.229 50.4164 426.027C50.4037 425.04 50.4164 424.041 50.4164 423.041ZM45.9158 410.011C45.9158 411.173 45.9158 412.322 45.9158 413.484C45.9158 413.784 45.7894 414.134 46.1686 414.334C47.5087 415.083 49.8601 413.996 49.9613 412.509C50.0498 410.835 50.0371 409.149 49.9613 407.512C49.898 406.263 49.3165 405.8 47.9765 405.788C47.6983 405.788 47.4076 405.788 47.1294 405.788C46.2192 405.663 45.802 405.938 45.8652 406.937C45.9284 407.937 45.9158 408.974 45.9158 410.011Z" fill="#FAFAFA"/>
<path d="M238.315 416.032C238.315 412.872 238.315 409.723 238.315 406.562C238.315 403.402 239.895 401.715 243.232 401.727C244.805 401.621 246.385 401.672 247.948 401.877C248.794 402.004 249.572 402.411 250.155 403.03C250.738 403.649 251.092 404.445 251.159 405.288C251.25 406.001 251.296 406.718 251.298 407.437C251.298 413.184 251.298 418.939 251.298 424.703C251.306 425.46 251.251 426.216 251.134 426.964C251.017 427.846 250.587 428.659 249.92 429.256C249.253 429.853 248.393 430.197 247.493 430.225C246.001 430.3 244.509 430.225 243.018 430.225C239.844 430.225 238.327 428.701 238.315 425.59C238.302 422.479 238.315 419.231 238.315 416.032ZM242.196 415.957V424.59C242.196 426.452 242.638 426.839 244.724 426.852C247.038 426.852 247.354 426.602 247.354 424.628C247.354 419.231 247.354 413.834 247.354 408.386C247.354 405.188 247.354 405.151 244.13 405.213C242.651 405.213 242.196 405.675 242.183 407.15C242.183 410.123 242.196 413.034 242.196 415.957Z" fill="#FAFAFA"/>
<path d="M79.1517 414.871C79.1517 418.431 79.1517 421.992 79.1517 425.54C79.1974 426.583 79.0297 427.624 78.6587 428.601C78.4054 429.235 77.982 429.788 77.434 430.202C76.886 430.616 76.2342 430.875 75.5487 430.95C74.0652 431.143 72.565 431.181 71.0735 431.062C68.0394 430.862 66.5476 429.325 66.5223 426.29C66.5223 420.455 66.5223 414.621 66.5223 408.799C66.5223 406.912 66.5223 405.051 66.5223 403.152C66.5223 402.477 66.6361 402.177 67.4452 402.165C70.4287 402.165 70.4287 402.09 70.4287 405.038C70.4287 411.701 70.4287 418.365 70.4287 425.028C70.4023 425.506 70.512 425.982 70.7453 426.401C70.9787 426.821 71.3263 427.167 71.7489 427.401C72.1715 427.636 72.652 427.748 73.1359 427.726C73.6199 427.704 74.0879 427.548 74.4868 427.277C75.2706 426.827 75.2453 426.027 75.2453 425.253C75.2453 418.069 75.2453 410.873 75.2453 403.676C75.2453 402.427 75.4855 402.027 76.8003 402.102C79.1644 402.215 79.177 402.102 79.177 404.513L79.1517 414.871Z" fill="#FAFAFA"/>
<path d="M185.231 423.391C185.964 420.68 184.586 419.218 182.222 418.231C181.173 417.723 180.152 417.16 179.163 416.545C178.615 416.277 178.158 415.859 177.846 415.34C177.534 414.821 177.381 414.224 177.405 413.621C177.405 411.26 177.405 408.899 177.405 406.55C177.36 405.966 177.443 405.38 177.648 404.831C177.854 404.282 178.178 403.784 178.597 403.371C179.016 402.957 179.522 402.639 180.078 402.437C180.634 402.235 181.227 402.155 181.818 402.202C183.226 402.081 184.645 402.136 186.04 402.365C186.775 402.518 187.447 402.884 187.972 403.415C188.496 403.947 188.849 404.62 188.986 405.35C189.224 406.648 189.304 407.969 189.226 409.286C189.226 409.773 189.049 410.048 188.518 410.01H188.366C187.393 410.01 186.242 410.285 185.509 409.873C184.776 409.461 185.269 408.186 185.18 407.299C185.194 407.08 185.157 406.86 185.075 406.656C184.992 406.452 184.864 406.269 184.701 406.12C184.537 405.97 184.343 405.859 184.131 405.793C183.918 405.726 183.694 405.708 183.474 405.738C181.969 405.738 181.337 406.05 181.287 407.187C181.198 408.899 181.287 410.623 181.287 412.347C181.31 412.667 181.424 412.974 181.616 413.233C181.809 413.492 182.071 413.691 182.374 413.809L187.544 416.67C188.022 416.896 188.425 417.25 188.709 417.692C188.993 418.134 189.145 418.645 189.15 419.168C189.323 421.958 189.28 424.756 189.024 427.539C188.967 428.449 188.569 429.306 187.908 429.941C187.246 430.577 186.368 430.945 185.446 430.975C184.123 431.137 182.786 431.137 181.464 430.975C180.396 430.965 179.375 430.542 178.618 429.797C177.862 429.052 177.431 428.044 177.418 426.989C177.064 424.216 177.064 424.278 179.845 424.191C181.021 424.191 181.362 424.465 181.299 425.627C181.223 427.002 181.893 427.526 183.335 427.526C184.776 427.526 185.168 427.077 185.206 425.627C185.244 424.903 185.231 424.153 185.231 423.391Z" fill="#FAFAFA"/>
<path d="M208.783 423.366C209.529 420.643 208.126 419.193 205.762 418.219C204.712 417.711 203.691 417.148 202.702 416.532C202.158 416.258 201.705 415.836 201.396 415.316C201.087 414.796 200.934 414.199 200.958 413.596C200.958 411.235 200.958 408.874 200.958 406.525C200.922 405.941 201.013 405.356 201.224 404.81C201.436 404.264 201.764 403.768 202.185 403.358C202.607 402.947 203.113 402.63 203.668 402.429C204.224 402.227 204.817 402.146 205.408 402.19C206.406 402.19 207.43 402.19 208.429 402.19C209.476 402.128 210.505 402.479 211.292 403.164C212.078 403.85 212.558 404.816 212.626 405.85C212.711 406.241 212.757 406.638 212.765 407.037C212.664 410.698 213.549 409.911 209.63 410.023C209.011 410.023 208.745 409.823 208.77 409.199C208.796 408.574 208.77 407.837 208.77 407.162C208.793 406.978 208.775 406.792 208.716 406.616C208.657 406.44 208.559 406.279 208.43 406.145C208.3 406.012 208.142 405.908 207.967 405.842C207.792 405.775 207.604 405.749 207.418 405.763C206.482 405.763 205.268 405.451 205.028 406.762C204.731 408.736 204.706 410.741 204.952 412.722C204.952 413.434 205.749 413.696 206.292 413.971C207.936 414.908 209.592 415.808 211.248 416.72C211.673 416.917 212.034 417.227 212.291 417.615C212.548 418.003 212.69 418.455 212.702 418.918C212.921 421.785 212.887 424.666 212.601 427.526C212.544 428.438 212.144 429.294 211.479 429.928C210.815 430.562 209.934 430.926 209.011 430.95C207.807 431.099 206.591 431.124 205.382 431.025C204.822 431.053 204.261 430.97 203.734 430.779C203.207 430.589 202.725 430.295 202.315 429.916C201.906 429.537 201.578 429.081 201.351 428.573C201.124 428.066 201.003 427.519 200.995 426.964C200.604 424.316 200.679 424.278 203.322 424.191C204.472 424.191 204.99 424.353 204.889 425.652C204.788 426.952 205.496 427.526 206.95 427.526C208.404 427.526 208.758 427.064 208.783 425.602C208.796 424.878 208.783 424.116 208.783 423.366Z" fill="#FAFAFA"/>
<path d="M95.3082 409.786C94.4738 412.609 96.054 413.983 98.4307 414.97C99.5609 415.503 100.655 416.108 101.705 416.782C102.156 417.025 102.529 417.388 102.781 417.829C103.034 418.271 103.156 418.774 103.134 419.281C103.134 421.779 103.134 424.278 103.134 426.777C103.179 427.317 103.111 427.86 102.933 428.372C102.756 428.885 102.473 429.355 102.102 429.754C101.732 430.153 101.282 430.472 100.78 430.691C100.279 430.909 99.7373 431.023 99.1893 431.025C97.9295 431.172 96.6564 431.172 95.3967 431.025C94.3729 431.029 93.3874 430.641 92.6471 429.942C91.9069 429.243 91.4696 428.287 91.4271 427.277C90.9214 424.278 90.9214 424.328 93.867 424.253C94.9542 424.253 95.3461 424.503 95.2829 425.627C95.207 427.102 95.7506 427.564 97.2045 427.589C98.6583 427.614 99.164 427.102 99.1766 425.64C99.1892 424.178 99.1766 422.754 99.1766 421.317C99.2106 420.92 99.1211 420.521 98.9201 420.175C98.7191 419.829 98.416 419.552 98.0515 419.381C96.3827 418.469 94.7519 417.519 93.0958 416.607C92.5766 416.375 92.1335 416.004 91.8163 415.536C91.4991 415.068 91.3205 414.521 91.3006 413.959C91.1045 411.207 91.1425 408.445 91.4144 405.7C91.4764 404.797 91.8752 403.948 92.5337 403.318C93.1921 402.688 94.0635 402.322 94.9795 402.29C96.4644 402.09 97.9698 402.09 99.4547 402.29C100.48 402.376 101.432 402.848 102.114 403.608C102.797 404.369 103.157 405.359 103.121 406.375C103.184 407.324 103.121 408.286 103.121 409.248C103.121 410.21 102.4 410.16 101.857 410.011C100.972 409.711 99.6064 410.923 99.1766 409.273C99.1317 408.637 99.1317 407.998 99.1766 407.362C99.0755 406.113 98.5319 405.738 96.9895 405.775C95.7253 405.775 95.3208 406.2 95.2702 407.424C95.2829 408.199 95.3082 408.999 95.3082 409.786Z" fill="#FAFAFA"/>
<path d="M156.344 416.645C156.344 412.209 156.344 407.774 156.344 403.339C156.344 402.365 156.635 402.09 157.608 402.165C160.137 402.215 162.64 402.215 165.117 402.165C165.939 402.165 166.129 402.415 166.141 403.189C166.141 405.688 166.141 405.688 163.55 405.688C162.538 405.688 161.262 405.263 160.617 405.875C159.972 406.487 160.44 407.774 160.415 408.761C160.415 410.348 160.415 411.947 160.415 413.546C160.415 414.183 160.63 414.396 161.249 414.371C162.425 414.371 163.6 414.371 164.776 414.371C165.332 414.371 165.522 414.533 165.573 415.108C165.762 417.931 165.787 417.931 163.044 417.931C160.516 417.931 160.516 417.931 160.516 420.493C160.516 422.404 160.592 424.328 160.516 426.24C160.516 427.352 160.844 427.614 161.881 427.489C162.918 427.364 164.233 427.489 165.396 427.489C165.99 427.489 166.243 427.601 166.281 428.264C166.407 431.025 166.432 431.012 163.613 431.012C161.603 431.012 159.58 431.012 157.558 431.012C156.761 431.012 156.521 430.762 156.521 429.975C156.357 425.602 156.344 421.13 156.344 416.645Z" fill="#FAFAFA"/>
<path d="M348.718 416.032C348.718 411.635 348.718 407.287 348.718 402.839C348.718 401.965 348.92 401.677 349.855 401.702C352.384 401.765 354.912 401.702 357.365 401.702C358.035 401.702 358.275 401.89 358.288 402.577C358.376 405.251 358.401 405.238 355.696 405.263C354.697 405.263 353.382 404.813 352.801 405.488C352.219 406.163 352.637 407.312 352.624 408.261C352.624 409.786 352.624 411.297 352.624 412.822C352.624 413.621 352.801 413.971 353.686 413.909C354.773 413.834 355.873 413.909 356.96 413.909C357.529 413.909 357.706 414.096 357.744 414.671C357.896 417.344 357.921 417.344 355.216 417.344C352.51 417.344 352.599 417.344 352.599 419.98C352.599 421.854 352.675 423.728 352.599 425.615C352.535 426.739 352.953 426.964 353.964 426.864C354.975 426.764 356.24 426.864 357.365 426.864C358.136 426.864 358.3 427.127 358.3 427.839C358.3 430.337 358.363 430.337 355.873 430.337C353.85 430.337 351.828 430.337 349.805 430.337C348.945 430.337 348.73 430.1 348.73 429.263C348.743 424.778 348.718 420.43 348.718 416.032Z" fill="#FAFAFA"/>
<path d="M287.821 416.033C287.821 411.635 287.821 407.287 287.821 402.852C287.821 401.927 288.099 401.728 288.984 401.74C291.727 401.74 291.727 401.74 291.727 404.489C291.727 411.56 291.727 418.619 291.727 425.728C291.727 426.615 291.892 427.064 292.903 426.977C293.626 426.902 294.355 426.902 295.077 426.977C295.735 426.977 296.746 426.615 296.961 427.227C297.158 428.16 297.184 429.121 297.037 430.063C297.037 430.463 296.632 430.375 296.367 430.375C293.839 430.375 291.196 430.375 288.617 430.375C287.77 430.375 287.859 429.9 287.859 429.376L287.821 416.033Z" fill="#FAFAFA"/>
<path d="M311.967 415.945C311.967 420.343 311.967 424.69 311.967 429.126C311.967 429.975 311.815 430.312 310.855 430.3C308.01 430.3 308.01 430.3 308.01 427.489C308.01 419.343 308.01 411.247 308.01 403.052C308.01 402.052 308.187 401.652 309.274 401.69C311.929 401.777 311.929 401.69 311.929 404.326L311.967 415.945Z" fill="#FAFAFA"/>
<path d="M115.295 416.695C115.295 412.222 115.295 407.749 115.295 403.277C115.295 402.365 115.561 402.152 116.446 402.165C119.227 402.165 119.227 402.165 119.227 404.888C119.227 413.234 119.227 421.567 119.227 429.875C119.227 430.825 118.961 431.125 117.963 431.125C115.245 431.125 115.245 431.125 115.245 428.439L115.295 416.695Z" fill="#FAFAFA"/>
<path d="M214.08 248.045C214.08 239.537 214.08 231.029 214.08 222.521C214.08 221.397 214.409 221.197 215.42 221.272C217.481 221.397 219.541 221.434 221.602 221.497C221.799 221.478 221.998 221.506 222.183 221.578C222.367 221.649 222.532 221.763 222.664 221.909C223.511 222.871 224.371 223.833 225.268 224.745C225.711 225.195 225.609 225.694 225.609 226.207C225.609 239.067 225.567 251.927 225.483 264.787V266.111C225.483 270.708 225.483 270.696 222.512 274.194C222.357 274.395 222.152 274.552 221.917 274.653C221.683 274.754 221.427 274.793 221.172 274.769C219.149 274.769 217.127 274.694 215.104 274.769C214.244 274.769 214.055 274.531 214.055 273.707C214.055 265.161 214.055 256.603 214.055 248.058L214.08 248.045Z" fill="#FAFAFA"/>
<path d="M214.194 189.901C214.194 183.192 214.194 176.47 214.194 169.761C214.194 168.749 214.409 168.362 215.534 168.512C217.329 168.724 219.149 168.799 220.97 168.874C221.52 168.934 222.036 169.171 222.436 169.549C225.167 171.498 225.888 174.021 225.799 177.345C225.559 187.252 225.673 197.172 225.698 207.079C225.693 207.974 225.355 208.837 224.75 209.503C224.17 210.333 223.357 210.978 222.412 211.357C221.466 211.737 220.429 211.835 219.428 211.639C217.986 211.46 216.531 211.393 215.079 211.439C214.244 211.439 214.105 211.14 214.105 210.402C214.105 203.569 214.105 196.735 214.105 189.901H214.194Z" fill="#FAFAFA"/>
<path d="M173.196 190.95C173.196 184.553 173.196 178.169 173.196 171.773C173.196 170.961 173.297 170.523 174.27 170.523C176.407 170.523 178.543 170.336 180.68 170.236C180.838 170.206 181.002 170.206 181.16 170.236C182.505 171.326 183.519 172.761 184.093 174.384C184.093 184.612 184.123 194.84 184.182 205.068C184.192 205.297 184.155 205.527 184.072 205.741C183.989 205.956 183.863 206.152 183.701 206.317C182.437 207.679 181.097 209.053 179.807 210.427C179.705 210.575 179.573 210.7 179.418 210.792C179.263 210.885 179.09 210.944 178.91 210.965C177.254 210.965 175.598 211.052 173.942 211.139C173.082 211.139 173.322 210.602 173.322 210.177V190.95H173.196Z" fill="#FAFAFA"/>
<path d="M94.575 252.043C94.575 244.547 94.575 236.939 94.575 229.393C94.575 228.481 94.8657 228.143 95.738 228.043C97.0022 227.918 98.2664 227.756 99.4548 227.544C99.9081 227.451 100.378 227.474 100.82 227.61C101.262 227.745 101.662 227.989 101.983 228.318C103.247 229.493 104.992 230.33 105.649 231.729C106.307 233.128 105.864 235.015 105.877 236.726C105.877 248.108 105.877 259.502 106.041 270.883C106.013 271.978 105.602 273.028 104.878 273.857C104.458 274.546 103.846 275.103 103.116 275.459C102.385 275.816 101.567 275.958 100.757 275.868C99.0699 275.795 97.3796 275.845 95.7001 276.018C94.8404 276.018 94.6255 275.831 94.6255 274.981C94.6255 267.348 94.6255 259.714 94.6255 252.081L94.575 252.043Z" fill="#FAFAFA"/>
<path d="M94.5876 200.17C94.5876 194.336 94.5876 188.502 94.5876 182.68C94.5876 181.593 94.7773 181.055 95.9909 180.868C97.5694 180.616 99.1251 180.24 100.643 179.744C101.114 179.618 101.607 179.592 102.089 179.67C102.571 179.748 103.031 179.926 103.437 180.193C104.226 180.533 104.879 181.119 105.297 181.862C105.716 182.605 105.875 183.463 105.751 184.304C105.675 193.499 105.751 202.682 105.864 211.877C105.877 212.23 105.817 212.582 105.686 212.911C105.556 213.239 105.358 213.538 105.106 213.788C103.842 215.138 102.577 216.537 101.427 217.924C101.23 218.226 100.929 218.448 100.58 218.548C98.7974 218.836 97.0149 219.123 95.2197 219.385C94.3221 219.51 94.6635 218.773 94.6635 218.411C94.6635 212.322 94.6635 206.246 94.6635 200.183L94.5876 200.17Z" fill="#FAFAFA"/>
<path d="M289.275 199.733C289.275 193.586 289.275 187.44 289.275 181.28C289.275 180.331 289.452 180.143 290.4 180.443C291.682 180.921 293.02 181.236 294.382 181.38C297.429 181.543 298.301 184.079 299.793 185.94C299.922 186.231 299.966 186.551 299.919 186.865C299.919 196.968 299.894 207.071 299.843 217.174C299.877 217.469 299.82 217.767 299.68 218.03C299.54 218.293 299.324 218.508 299.06 218.648C298.086 219.186 297.505 220.485 296.152 220.31C293.99 220.035 291.854 219.66 289.692 219.373C288.895 219.273 289.136 218.711 289.136 218.298C289.136 214.226 289.136 210.153 289.136 206.08C289.136 203.968 289.136 201.845 289.136 199.733H289.275Z" fill="#FAFAFA"/>
<path d="M138.809 196.66C139.05 199.883 139.302 203.094 139.517 206.305C139.998 213.118 140.47 219.927 140.933 226.731C141.275 231.729 141.603 236.726 141.97 241.786C141.97 242.573 141.881 242.898 140.971 242.898C139.404 242.898 137.823 243.01 136.256 243.123C135.636 243.123 135.548 242.973 135.586 242.386C136.268 232.716 136.93 223.042 137.57 213.363C137.941 207.808 138.304 202.244 138.658 196.672L138.809 196.66Z" fill="#FAFAFA"/>
</g>
</svg>
