<svg width="104" height="138" viewBox="0 0 104 138" fill="none" xmlns="http://www.w3.org/2000/svg">
<path d="M99.2934 99.7815C99.2901 99.7291 99.2901 99.6765 99.2934 99.6241C99.3201 99.4373 99.2302 99.3849 99.0571 99.4013C98.9718 99.4062 98.8862 99.4062 98.8008 99.4013H4.5401V118.917H4.99278C36.2965 118.917 67.6003 118.917 98.904 118.917C99.2136 118.917 99.3101 118.861 99.3068 118.534C99.2934 112.277 99.289 106.027 99.2934 99.7815Z" fill="#2A9E98"/>
<path d="M98.1917 120.438C97.323 121.093 96.4875 121.67 95.6354 122.217C92.9662 123.94 90.1048 125.354 87.1077 126.433C86.7749 126.554 86.7749 126.554 86.7749 126.21C86.7749 124.374 86.7749 122.542 86.7749 120.706C86.7749 120.5 86.8148 120.418 87.0478 120.418C90.7003 120.418 94.3495 120.418 97.9953 120.418L98.1917 120.438Z" fill="#2A9E98"/>
<path d="M5.65852 120.421H5.99138C9.57954 120.421 13.1644 120.421 16.7492 120.421C17.0388 120.421 17.082 120.503 17.082 120.772C17.082 122.604 17.082 124.44 17.082 126.272C17.082 126.521 17.0221 126.548 16.7991 126.469C12.863 125.045 9.16171 123.057 5.81496 120.569C5.76021 120.522 5.708 120.473 5.65852 120.421Z" fill="#2A9E98"/>
<path d="M64.5236 89.3449C64.2673 89.5382 64.0343 89.7316 63.7847 89.8988C63.3199 90.2205 62.7651 90.3923 62.197 90.3905C61.8267 90.3996 61.4633 90.291 61.1605 90.0808C60.8578 89.8707 60.6318 89.5701 60.5161 89.2236C60.4595 89.0662 60.4162 88.8958 60.3563 88.7221C60.0967 88.945 59.8504 89.1711 59.5907 89.3776C58.8531 90.0149 57.9091 90.3728 56.9279 90.3872C55.9793 90.3872 55.1605 89.9742 54.8809 89.0138C54.7977 88.7319 54.6945 88.9614 54.6312 89.0138C54.0545 89.604 53.3336 90.0385 52.5376 90.2757C51.0331 90.6789 49.8148 89.8398 49.705 88.3091C49.6185 87.0734 49.9513 85.9065 50.3408 84.7527C50.7367 83.4674 51.3986 82.2766 52.2846 81.2554C53.0102 80.4621 53.8757 79.9082 55.0107 79.8918C55.4979 79.8543 55.9838 79.9781 56.3915 80.2435C56.7991 80.509 57.105 80.9008 57.2608 81.357C57.3906 81.357 57.3906 81.2324 57.4339 81.1636C57.6059 80.86 57.8555 80.606 58.1579 80.4266C58.4604 80.2473 58.8051 80.1488 59.158 80.1409C59.634 80.1213 60.11 80.1409 60.6226 80.1409C60.1999 81.1734 59.7838 82.1633 59.3844 83.163C58.8219 84.5593 58.1828 85.9262 57.7201 87.3553C57.6223 87.6215 57.5683 87.9015 57.5603 88.1845C57.5603 88.6172 57.78 88.7713 58.1994 88.6598C58.6444 88.5113 59.0432 88.2529 59.3577 87.9092C59.7843 87.499 60.172 87.0513 60.5161 86.5719C60.5655 86.5035 60.6068 86.4299 60.6392 86.3523C61.2151 84.6806 61.9706 83.0745 62.6363 81.4356C62.78 81.0335 63.0524 80.6882 63.4126 80.4517C63.7728 80.2152 64.2013 80.1004 64.6335 80.1245H65.9649C65.6986 80.7801 65.4456 81.3701 65.1993 81.9798C64.507 83.694 63.7348 85.3788 63.1057 87.1225C62.982 87.4231 62.9231 87.7457 62.9326 88.0698C62.9257 88.1205 62.9309 88.1721 62.9479 88.2204C62.9649 88.2687 62.9931 88.3125 63.0303 88.3481C63.0675 88.3838 63.1126 88.4104 63.1621 88.4258C63.2116 88.4412 63.2641 88.445 63.3154 88.4369C63.4913 88.4294 63.664 88.3876 63.8234 88.3138C63.9828 88.2401 64.1258 88.136 64.244 88.0075C64.8898 87.3693 65.4391 86.6429 65.875 85.8508C66.5973 84.6839 66.9867 83.3695 67.5393 82.1338C67.6491 81.8945 67.739 81.6487 67.8488 81.4127C68.0026 81.019 68.2782 80.6828 68.6365 80.4516C68.9949 80.2205 69.418 80.106 69.8459 80.1245H71.1507L67.3029 89.3711C67.4893 89.4235 67.5925 89.3121 67.7024 89.2531C69.4931 88.2927 70.7846 86.8439 71.8231 85.1493C72.0261 84.8216 72.1892 84.7921 72.4888 85.0608C72.6503 85.2091 72.7493 85.4118 72.7659 85.6286C72.7826 85.8455 72.7157 86.0605 72.5787 86.231C71.5431 87.8893 70.1083 89.2707 68.4014 90.2528C67.9054 90.5347 67.4028 90.7903 66.8736 91.0296C66.7586 91.0777 66.6556 91.1497 66.5717 91.2409C66.4877 91.332 66.4249 91.44 66.3876 91.5573C66.073 92.4794 65.6449 93.36 65.1128 94.1795C64.5003 95.0875 63.7414 95.8184 62.6064 96.0216C61.8009 96.1659 61.0054 96.1396 60.3197 95.6316C59.9621 95.3454 59.7161 94.9462 59.6233 94.5017C59.5305 94.0573 59.5966 93.5949 59.8104 93.1929C60.158 92.5248 60.7228 91.9905 61.4148 91.6753C62.0805 91.3476 62.7695 91.0198 63.4652 90.7445C63.6879 90.6788 63.8894 90.5567 64.0494 90.3905C64.2094 90.2243 64.3224 90.0198 64.3772 89.7972C64.4444 89.6528 64.4935 89.5009 64.5236 89.3449ZM52.3911 87.3487C52.3911 88.0469 52.724 88.332 53.3231 88.155C53.7394 88.0358 54.1234 87.8269 54.4476 87.5435C54.7717 87.26 55.0277 86.9091 55.1971 86.5162C55.6764 85.5328 56.0592 84.4971 56.4786 83.4842C56.5407 83.3268 56.5607 83.1563 56.5365 82.9891C56.5123 82.8218 56.4448 82.6636 56.3404 82.5295C56.2361 82.3955 56.0984 82.2901 55.9407 82.2237C55.783 82.1573 55.6106 82.1319 55.4401 82.1502C55.2094 82.1897 54.9928 82.2868 54.811 82.4321C54.062 82.986 53.6327 83.7694 53.2466 84.5757C52.8059 85.4464 52.5167 86.3838 52.3911 87.3487ZM63.4119 92.1047C62.9958 92.285 62.6596 92.4325 62.3268 92.58C62.1217 92.6657 61.9246 92.7688 61.7376 92.8881C61.3987 93.0665 61.1329 93.3549 60.9854 93.7043C60.9558 93.78 60.9452 93.8618 60.9548 93.9424C60.9643 94.0231 60.9935 94.1002 61.04 94.1673C61.0865 94.2344 61.1488 94.2893 61.2217 94.3274C61.2945 94.3655 61.3756 94.3856 61.458 94.386C61.5959 94.3882 61.7327 94.3623 61.8599 94.3098C61.9871 94.2573 62.1019 94.1795 62.197 94.0812C62.7861 93.5601 63.0957 92.8783 63.4119 92.1047Z" fill="#2A9E98"/>
<path d="M43.251 74.0542C44.0748 74.0761 44.8897 74.2288 45.6641 74.5066C46.3501 74.7898 46.9869 75.1768 47.5514 75.6538C48.6115 76.5813 49.3017 77.8501 49.4986 79.2331C49.7967 80.9685 49.6906 82.748 49.1884 84.4372C48.6862 86.1264 47.8009 87.6813 46.5995 88.9844C45.9529 89.7358 45.1373 90.3282 44.2173 90.7146C43.2974 91.1009 42.2986 91.2706 41.3004 91.21C40.1363 91.1301 39.0306 90.6778 38.1517 89.9218C37.9686 89.7776 37.7988 89.5678 37.5925 89.5219C37.3861 89.4761 37.2163 89.7481 37.0266 89.8694C36.3639 90.3282 35.6059 90.6362 34.8074 90.7712C34.009 90.9061 33.1901 90.8645 32.4099 90.6495C31.7865 90.5027 31.2342 90.1472 30.8475 89.6438C30.4608 89.1404 30.2636 88.5203 30.2897 87.8896C30.3202 87.241 30.5721 86.6215 31.0046 86.1313C31.4371 85.6412 32.0249 85.3091 32.6729 85.1888C33.259 85.0814 33.8609 85.089 34.444 85.2111C35.0272 85.3331 35.5802 85.5672 36.0713 85.9C36.281 86.0279 36.4874 86.1557 36.6804 86.2999C36.8735 86.4441 36.9267 86.3851 37.0133 86.2212C37.4799 85.3887 37.8752 84.5193 38.1949 83.622C38.6476 82.4977 39.087 81.3669 39.5496 80.2459C39.805 79.5207 40.2673 78.8835 40.881 78.4104C41.2009 78.1736 41.575 78.0181 41.9703 77.9575C42.3656 77.8969 42.77 77.9331 43.1478 78.0629C43.2809 78.1023 43.3575 78.1318 43.2709 78.2891C42.0294 80.5835 41.1606 83.0517 40.192 85.4674C39.8849 86.2738 39.4862 87.0434 39.0038 87.7618C38.9305 87.8634 38.8407 87.9519 39.0038 88.0666C39.8459 88.6533 40.7279 89.0958 41.8064 88.9844C42.7002 88.8765 43.5295 88.4705 44.1563 87.8339C45.5044 86.5621 46.2533 84.9593 46.6727 83.1992C47.0421 81.8476 47.0421 80.424 46.6727 79.0725C46.1435 77.3025 44.8487 76.3028 42.9847 76.1749C41.2206 76.0569 39.6728 76.5224 38.4579 77.8138C37.9836 78.2862 37.6295 78.8624 37.4247 79.4953C37.2199 80.1282 37.1702 80.7999 37.2796 81.4554C37.3475 81.8353 37.3041 82.2264 37.1543 82.5828C37.0046 82.9393 36.7548 83.2463 36.4341 83.4679L36.3576 83.5237C35.7584 83.9563 35.7584 83.9563 35.4655 83.2614C34.8792 81.8071 34.8404 80.1943 35.3562 78.7143C35.8721 77.2343 36.9085 75.9848 38.2781 75.1916C38.348 75.1457 38.4213 75.1064 38.4945 75.0605C39.214 74.6662 39.9859 74.3728 40.7878 74.1886C41.6026 74.0657 42.4274 74.0206 43.251 74.0542ZM33.5982 88.7156C34.2934 88.7244 34.968 88.4832 35.4955 88.0371C35.5953 87.9585 35.6785 87.8863 35.5288 87.7716C35.0916 87.407 34.5893 87.1257 34.0476 86.9424C33.8506 86.8778 33.6418 86.856 33.4355 86.8787C33.2292 86.9013 33.0303 86.9678 32.8526 87.0735C32.6876 87.1613 32.5552 87.2984 32.4744 87.4651C32.3936 87.6319 32.3687 87.8195 32.4033 88.0011C32.4324 88.1564 32.5082 88.2994 32.621 88.4117C32.7338 88.5239 32.8783 88.6001 33.0357 88.6304C33.2117 88.697 33.4 88.7261 33.5882 88.7156H33.5982Z" fill="#2A9E98"/>
<path d="M52.3911 87.3487C52.5178 86.3872 52.8069 85.4532 53.2465 84.5856C53.6326 83.7793 54.062 82.9959 54.8109 82.4419C54.9928 82.2966 55.2093 82.1996 55.44 82.1601C55.6106 82.1418 55.783 82.1671 55.9407 82.2336C56.0984 82.3 56.236 82.4053 56.3404 82.5394C56.4448 82.6734 56.5123 82.8317 56.5365 82.9989C56.5607 83.1661 56.5407 83.3367 56.4785 83.4941C56.0591 84.5069 55.6764 85.5394 55.1971 86.526C55.0277 86.919 54.7717 87.2699 54.4475 87.5533C54.1234 87.8368 53.7393 88.0457 53.3231 88.1649C52.7173 88.319 52.3844 88.0469 52.3911 87.3487Z" fill="#35322F"/>
<path d="M63.4118 92.105C63.0956 92.8851 62.7861 93.5668 62.1969 94.0716C62.1018 94.1699 61.9871 94.2477 61.8599 94.3002C61.7327 94.3527 61.5959 94.3786 61.458 94.3764C61.3756 94.376 61.2944 94.3559 61.2216 94.3178C61.1488 94.2797 61.0865 94.2248 61.04 94.1577C60.9935 94.0907 60.9642 94.0135 60.9547 93.9328C60.9452 93.8522 60.9557 93.7705 60.9854 93.6947C61.1329 93.3453 61.3987 93.0569 61.7376 92.8785C61.9245 92.7592 62.1217 92.6561 62.3268 92.5704C62.6596 92.4328 62.9958 92.2787 63.4118 92.105Z" fill="#35322F"/>
<path d="M33.5882 88.7157C33.3966 88.7276 33.2047 88.6985 33.0257 88.6305C32.8683 88.6002 32.7238 88.524 32.611 88.4118C32.4982 88.2995 32.4223 88.1565 32.3932 88.0012C32.3587 87.8196 32.3836 87.632 32.4644 87.4653C32.5451 87.2985 32.6776 87.1614 32.8426 87.0736C33.0203 86.9679 33.2191 86.9014 33.4254 86.8788C33.6318 86.8562 33.8406 86.8779 34.0375 86.9425C34.5793 87.1259 35.0816 87.4071 35.5187 87.7717C35.6685 87.8865 35.5853 87.9586 35.4855 88.0372C34.958 88.4833 34.2834 88.7245 33.5882 88.7157Z" fill="#35322F"/>
<path d="M51.7553 134.273C50.8899 134.041 50.0245 133.814 49.1591 133.578C42.7916 131.848 36.7204 129.442 31.1417 125.908C28.6883 124.362 26.3772 122.608 24.235 120.664L23.9887 120.431C24.9174 120.431 25.7761 120.464 26.6316 120.431C26.9016 120.412 27.1727 120.447 27.4285 120.535C27.6843 120.622 27.9193 120.76 28.1194 120.939C32.2543 124.212 36.869 126.849 41.8064 128.76C45.0227 130.023 48.3221 131.07 51.6821 131.894C51.8252 131.93 51.9751 131.93 52.1182 131.894C57.27 130.665 62.2621 128.859 66.9967 126.512C70.2544 124.88 73.3206 122.902 76.1402 120.612C76.2745 120.496 76.4481 120.436 76.6261 120.441C77.5947 120.441 78.5633 120.441 79.5319 120.441H79.8415C79.1492 121.097 78.4801 121.67 77.8011 122.231C72.5553 126.564 66.6039 129.642 60.1865 131.897C57.5706 132.807 54.9099 133.587 52.2147 134.234C52.1655 134.249 52.1185 134.269 52.0749 134.296L51.7553 134.273Z" fill="#35322F"/>
<path d="M51.8818 97.8933C40.4339 97.8933 28.9871 97.8933 17.5414 97.8933C17.2717 97.8933 17.1719 97.8539 17.1686 97.5491C17.0454 86.1687 17.0654 74.7884 17.082 63.408C17.082 56.8525 17.1286 50.2773 17.1286 43.7087C17.1038 43.4954 17.1523 43.2801 17.2663 43.0971C17.3803 42.9141 17.5533 42.774 17.7577 42.6992C21.7753 40.7388 25.9914 39.2007 30.3362 38.1103C33.3456 37.3452 36.3975 36.752 39.4764 36.3338C44.5927 35.6421 49.7592 35.3768 54.9208 35.5405C57.6635 35.6148 60.3984 35.8235 63.1256 36.1666C69.3661 36.8917 75.4889 38.3883 81.3493 40.6211C83.0735 41.2963 84.7611 42.0513 86.412 42.886C86.5032 42.9209 86.5801 42.9845 86.6306 43.0669C86.6812 43.1493 86.7027 43.2459 86.6916 43.3416C86.6916 47.371 86.7016 51.3983 86.7216 55.4234C86.7637 64.4241 86.7748 73.4237 86.7549 82.4223C86.7549 87.4569 86.6883 92.4915 86.6617 97.5261C86.6617 97.8211 86.6051 97.9031 86.2889 97.9031C74.8187 97.8943 63.3497 97.8911 51.8818 97.8933ZM38.4878 75.0604C38.4146 75.1063 38.3414 75.1456 38.2715 75.1915C36.9047 75.9873 35.8718 77.2379 35.3591 78.7177C34.8464 80.1974 34.8877 81.8089 35.4755 83.2614C35.7684 83.9562 35.7684 83.9562 36.3675 83.5236L36.4441 83.4679C36.7647 83.2462 37.0145 82.9392 37.1643 82.5828C37.314 82.2263 37.3575 81.8352 37.2895 81.4553C37.1841 80.7957 37.2396 80.1208 37.4515 79.4864C37.6633 78.8521 38.0254 78.2765 38.5078 77.8072C39.7227 76.4961 41.2705 76.0438 43.0346 76.1683C44.8986 76.2961 46.1934 77.2958 46.7226 79.0658C47.092 80.4174 47.092 81.841 46.7226 83.1925C46.3032 84.9527 45.5543 86.5555 44.2062 87.8273C43.5794 88.4639 42.7501 88.8699 41.8563 88.9778C40.7778 89.0892 39.8958 88.65 39.0537 88.06C38.8872 87.9453 38.9771 87.8568 39.0537 87.7552C39.5362 87.0368 39.9348 86.2671 40.2419 85.4607C41.2106 83.045 42.0793 80.5867 43.3208 78.2825C43.4074 78.1251 43.3208 78.0956 43.1977 78.0563C42.8199 77.9265 42.4155 77.8903 42.0202 77.9509C41.6249 78.0115 41.2508 78.167 40.931 78.4037C40.3172 78.8768 39.8549 79.5141 39.5995 80.2393C39.1369 81.3603 38.6975 82.4911 38.2448 83.6154C37.9251 84.5126 37.5298 85.3821 37.0632 86.2146C36.9633 86.3785 36.8768 86.4113 36.7303 86.2933C36.5839 86.1753 36.3309 86.0212 36.1212 85.8934C35.6249 85.5571 35.0655 85.3215 34.4757 85.2005C33.8859 85.0795 33.2776 85.0755 32.6862 85.1887C32.0358 85.3064 31.4449 85.6373 31.0098 86.1277C30.5746 86.6181 30.3208 87.2391 30.2896 87.8896C30.2629 88.5185 30.4582 89.1371 30.8423 89.6402C31.2264 90.1434 31.7757 90.5 32.3966 90.6494C33.1767 90.8644 33.9957 90.906 34.7941 90.7711C35.5926 90.6362 36.3506 90.3281 37.0133 89.8693C37.203 89.748 37.3461 89.4727 37.5791 89.5219C37.8121 89.571 37.9552 89.7775 38.1383 89.9218C39.0172 90.6777 40.123 91.13 41.2871 91.2099C42.2875 91.2726 43.2889 91.1039 44.2113 90.7175C45.1337 90.3311 45.9515 89.7375 46.5994 88.9843C47.8009 87.6812 48.6862 86.1264 49.1884 84.4371C49.6906 82.7479 49.7967 80.9685 49.4986 79.233C49.3017 77.8501 48.6115 76.5813 47.5514 75.6537C46.9869 75.1768 46.3501 74.7897 45.6641 74.5065C45.6641 73.6346 45.6641 72.7627 45.6641 71.8843C45.6641 68.6218 45.6564 65.3594 45.6408 62.0969C45.6408 60.8098 45.6408 59.5195 45.6408 58.2259C45.6408 58.1341 45.5543 57.9669 45.754 57.9604C46.5062 57.9342 47.3151 57.7047 47.831 58.5405C47.9715 58.7386 48.1396 58.9163 48.3303 59.0683C48.391 59.1252 48.4381 59.1947 48.4681 59.2719C48.498 59.349 48.5101 59.4317 48.5034 59.514C48.5034 62.7044 48.5034 65.8925 48.5034 69.0785C48.5034 70.9796 48.5034 72.8774 48.5034 74.7753C48.5034 74.9621 48.5233 75.0506 48.753 75.044C49.401 75.0287 50.05 75.0287 50.7002 75.044C50.9099 75.044 50.9398 74.9785 50.9398 74.7949C50.9398 69.3932 50.9398 63.9914 50.9398 58.5897C50.9419 58.5231 50.9296 58.4569 50.9038 58.3953C50.878 58.3337 50.8392 58.2782 50.7901 58.2324C50.3241 57.7572 49.8714 57.2721 49.3987 56.8033C49.2523 56.6558 49.2556 56.5772 49.3987 56.4297C49.8581 55.9642 50.2974 55.4758 50.7535 55.0071C50.8127 54.95 50.8595 54.8816 50.891 54.8061C50.9225 54.7306 50.938 54.6495 50.9365 54.5679C50.9365 51.2639 50.9365 47.9589 50.9365 44.6527C50.9395 44.576 50.9266 44.4996 50.8986 44.428C50.8705 44.3564 50.8279 44.2912 50.7734 44.2364C50.1077 43.5 49.4509 42.7571 48.8029 42.0076C48.7517 41.9438 48.6847 41.894 48.6084 41.863C48.532 41.832 48.4489 41.8209 48.3669 41.8306C46.7581 41.8983 45.1538 41.9923 43.5538 42.1124C43.2576 42.1354 43.1444 42.1813 43.1444 42.5156C43.1777 47.937 43.1999 53.3595 43.211 58.7831L43.2709 74.0443C42.4452 74.0103 41.618 74.0553 40.8011 74.1787C40.7146 73.3035 40.6247 72.4284 40.5415 71.5565C40.3817 69.9176 40.232 68.2787 40.0722 66.6399C39.8925 64.8076 39.6994 62.9721 39.5163 61.1365C39.3333 59.301 39.1835 57.4884 38.9871 55.6627C38.7641 53.424 38.5311 51.182 38.3214 48.9433C38.1217 46.9307 37.9264 44.9182 37.7356 42.9057C37.7156 42.6926 37.6324 42.65 37.4327 42.6828C36.767 42.7942 36.1013 42.898 35.4355 42.9942C35.3157 43.0138 35.2724 43.0564 35.2625 43.1712C35.2225 43.6825 35.1759 44.1938 35.1327 44.7051C35.0195 45.9878 34.9085 47.2716 34.7998 48.5565C34.68 49.8807 34.559 51.2049 34.437 52.5291L34.1041 56.3182C33.9843 57.6293 33.8634 58.9404 33.7413 60.2515C33.6282 61.5036 33.5172 62.7557 33.4085 64.0078L33.049 67.8887C32.8759 69.1736 32.7328 70.453 32.6196 71.7269C32.5231 72.7594 32.4332 73.7919 32.3334 74.8244C32.3167 74.9981 32.3567 75.0571 32.5464 75.0539C33.1855 75.0539 33.8245 75.0539 34.4636 75.0539C34.6633 75.0539 34.6999 74.9981 34.7133 74.8113C34.7898 73.828 34.8863 72.8283 34.9762 71.8384C35.1426 70.0651 35.3091 68.2919 35.4655 66.5186C35.4655 66.3219 35.5487 66.2695 35.7285 66.2629C36.281 66.2629 36.8369 66.2302 37.3927 66.1843C37.6324 66.1646 37.6823 66.2597 37.6989 66.4563C37.8055 67.6254 37.9164 68.7934 38.0318 69.9602C38.1783 71.6625 38.3303 73.3625 38.4878 75.0604ZM53.9422 58.4357H53.9222C53.9222 63.8986 53.9222 69.3615 53.9222 74.8244C53.9222 75.0375 53.9455 75.1293 54.2051 75.126C55.8328 75.126 57.4638 75.126 59.0914 75.126C59.1686 75.1324 59.2462 75.1192 59.3167 75.0876C59.3872 75.056 59.4483 75.0072 59.4942 74.9457C60.2154 74.0498 60.9432 73.1604 61.6777 72.2776C61.778 72.1566 61.8311 72.0044 61.8275 71.8482C61.8275 67.5718 61.8397 63.2933 61.8641 59.0125C61.8664 58.9256 61.851 58.8391 61.819 58.7581C61.787 58.6771 61.739 58.6031 61.6777 58.5405C61.225 58.0653 60.7956 57.5736 60.3463 57.1049C60.1965 56.9508 60.2198 56.8689 60.3463 56.7345C60.8023 56.292 61.245 55.8364 61.6943 55.3906C61.75 55.3436 61.7945 55.2853 61.825 55.2196C61.8555 55.154 61.8711 55.0826 61.8708 55.0104C61.8708 51.5491 61.8841 48.0889 61.9107 44.6298C61.9153 44.5696 61.9067 44.5092 61.8854 44.4526C61.8642 44.3961 61.8308 44.3447 61.7875 44.302C61.0419 43.5809 60.3019 42.8554 59.5674 42.1256C59.4948 42.0513 59.3957 42.0078 59.2911 42.0043C57.6269 41.883 55.9626 41.824 54.2983 41.7552C54.042 41.7552 53.9389 41.7781 53.9389 42.0829C53.9477 47.5328 53.9488 52.9837 53.9422 58.4357ZM22.4942 60.6055V74.8605C22.4942 75.0113 22.4476 75.162 22.7172 75.1588C24.3815 75.1588 26.0458 75.1588 27.7333 75.1588C27.7913 75.1624 27.8493 75.1524 27.9025 75.1296C27.9557 75.1068 28.0027 75.0718 28.0395 75.0276C28.7652 74.1798 29.4919 73.332 30.2197 72.4841C30.3526 72.3377 30.4219 72.1459 30.4128 71.9498C30.3884 70.5863 30.374 69.2227 30.3695 67.8592C30.3695 65.2173 30.3695 62.5744 30.3695 59.9303C30.3737 59.8443 30.3558 59.7587 30.3174 59.6813C30.2789 59.6039 30.2213 59.5374 30.1498 59.4878C29.7238 59.1404 29.3244 58.7602 28.895 58.4193C28.7053 58.2685 28.7053 58.1767 28.8584 58.0095C29.2977 57.5244 29.7171 57.0262 30.1598 56.5444C30.2286 56.4743 30.2818 56.3909 30.3162 56.2995C30.3506 56.2081 30.3653 56.1107 30.3595 56.0134C30.3351 52.7925 30.3174 49.5726 30.3063 46.3539C30.3117 46.2834 30.296 46.2128 30.2611 46.1511C30.2262 46.0893 30.1736 46.039 30.1099 46.0064C29.4264 45.5934 28.7485 45.1717 28.0762 44.7412C28.0166 44.6982 27.9478 44.6693 27.875 44.6568C27.8023 44.6443 27.7276 44.6485 27.6568 44.6691C26.0291 45.0919 24.4048 45.5246 22.7938 45.9999C22.5408 46.0752 22.5009 46.1867 22.5009 46.4161C22.4987 51.1448 22.4964 55.8746 22.4942 60.6055ZM64.5236 89.3449C64.4914 89.5012 64.44 89.6531 64.3705 89.7972C64.3157 90.0198 64.2027 90.2244 64.0427 90.3906C63.8827 90.5568 63.6812 90.6788 63.4585 90.7445C62.7628 91.0231 62.0771 91.3377 61.4081 91.6754C60.7161 91.9905 60.1513 92.5248 59.8037 93.193C59.5899 93.5949 59.5238 94.0573 59.6166 94.5017C59.7094 94.9462 59.9555 95.3454 60.313 95.6316C60.9987 96.1397 61.7942 96.1659 62.5997 96.0217C63.7347 95.8184 64.4936 95.0875 65.1061 94.1796C65.6382 93.36 66.0663 92.4794 66.3809 91.5574C66.4183 91.44 66.4811 91.332 66.565 91.2409C66.6489 91.1498 66.7519 91.0777 66.8669 91.0296C67.3861 90.7904 67.8987 90.5347 68.3947 90.2528C70.098 89.2694 71.5292 87.8882 72.562 86.231C72.6991 86.0605 72.7659 85.8455 72.7493 85.6286C72.7326 85.4118 72.6337 85.2091 72.4721 85.0609C72.1792 84.7921 72.0161 84.815 71.8064 85.1493C70.7679 86.8439 69.4764 88.2927 67.6857 89.2531C67.5759 89.3121 67.4727 89.4235 67.2863 89.3711L71.144 80.154H69.8393C69.4113 80.1356 68.9882 80.25 68.6298 80.4811C68.2715 80.7123 67.9959 81.0485 67.8421 81.4422C67.7323 81.6782 67.6424 81.924 67.5326 82.1633C66.9701 83.399 66.5806 84.7134 65.8683 85.8803C65.4324 86.6724 64.8831 87.3988 64.2373 88.037C64.1191 88.1655 63.9761 88.2697 63.8167 88.3434C63.6573 88.4171 63.4846 88.4589 63.3087 88.4664C63.2574 88.4746 63.2049 88.4708 63.1554 88.4553C63.1059 88.4399 63.0608 88.4133 63.0236 88.3776C62.9864 88.342 62.9582 88.2982 62.9412 88.2499C62.9242 88.2016 62.919 88.15 62.9259 88.0993C62.9164 87.7752 62.9754 87.4526 63.099 87.1521C63.7281 85.4083 64.5003 83.7235 65.1926 82.0093C65.4389 81.3996 65.6919 80.7965 65.9582 80.154H64.6268C64.1946 80.1299 63.7661 80.2447 63.4059 80.4812C63.0457 80.7177 62.7733 81.063 62.6297 81.4652C61.964 83.104 61.1984 84.697 60.6325 86.3818C60.6001 86.4594 60.5588 86.533 60.5094 86.6014C60.1653 87.0808 59.7776 87.5285 59.3511 87.9387C59.0365 88.2824 58.6377 88.5408 58.1927 88.6893C57.7733 88.8008 57.557 88.6467 57.5536 88.2141C57.5617 87.931 57.6156 87.651 57.7134 87.3848C58.1861 85.9557 58.8251 84.5889 59.3777 83.1925C59.7771 82.1928 60.1932 81.2029 60.6159 80.1704C60.1033 80.1704 59.6173 80.154 59.1513 80.1704C58.7984 80.1783 58.4537 80.2768 58.1512 80.4561C57.8488 80.6355 57.5992 80.8895 57.4272 81.1931C57.3839 81.2619 57.3839 81.3832 57.2541 81.3865C57.0984 80.9303 56.7924 80.5385 56.3848 80.273C55.9771 80.0076 55.4912 79.8838 55.004 79.9213C53.869 79.9213 53.0069 80.4917 52.2779 81.2849C51.3919 82.3061 50.7301 83.4969 50.3341 84.7822C49.9446 85.936 49.6118 87.1029 49.6983 88.3386C49.8081 89.8693 51.0297 90.7084 52.5309 90.3053C53.3269 90.068 54.0478 89.6335 54.6245 89.0433C54.6878 88.981 54.791 88.7516 54.8742 89.0433C55.1538 90.0037 55.9726 90.4101 56.9212 90.4167C57.9024 90.4023 58.8464 90.0445 59.584 89.4071C59.8437 89.2006 60.09 88.9745 60.3496 88.7516C60.4095 88.9352 60.4528 89.0958 60.5094 89.2531C60.6251 89.5996 60.8511 89.9002 61.1538 90.1104C61.4566 90.3205 61.82 90.4291 62.1903 90.42C62.7584 90.4218 63.3132 90.25 63.778 89.9283C64.0343 89.7316 64.2673 89.5383 64.5236 89.3449ZM73.7802 59.5993H73.697C73.697 60.8055 73.697 62.0073 73.697 63.2048C73.697 67.0725 73.6848 70.9425 73.6604 74.8146C73.6604 74.9916 73.707 75.044 73.8867 75.0408C74.5158 75.0408 75.1449 75.0211 75.774 75.0408C76.037 75.0408 76.0803 74.9621 76.0803 74.713C76.0803 71.5467 76.0969 68.3804 76.1036 65.2075C76.1036 63.5522 76.1036 61.8937 76.1036 60.2384C76.1036 59.8418 76.1035 59.8451 76.4863 59.9106C76.7164 59.9503 76.9487 59.9755 77.182 59.986C77.4837 59.9711 77.7841 60.0333 78.0542 60.1665C78.3242 60.2998 78.5547 60.4996 78.7231 60.7465C78.8491 60.9078 78.9212 61.1036 78.9295 61.307C78.9295 65.7877 78.9128 70.2651 78.8962 74.7458C78.8962 74.9752 78.9428 75.0473 79.1891 75.0375C79.8149 75.0178 80.444 75.0211 81.0731 75.0375C81.2861 75.0375 81.3327 74.9785 81.3327 74.7753C81.3327 70.2651 81.3327 65.7549 81.3327 61.2447C81.3346 61.1731 81.3217 61.102 81.2948 61.0355C81.2679 60.969 81.2276 60.9086 81.1762 60.8579C80.7335 60.3892 80.3108 59.9008 79.8448 59.4452C79.6484 59.2453 79.6817 59.1568 79.8947 59.006C80.3075 58.7143 80.6969 58.3865 81.1063 58.0849C81.1759 58.0401 81.2322 57.978 81.2696 57.9049C81.307 57.8319 81.3242 57.7504 81.3194 57.6687C81.3194 54.6597 81.3194 51.6496 81.3194 48.6384C81.3226 48.492 81.2731 48.3492 81.1796 48.2353C80.5405 47.3995 79.9014 46.5636 79.279 45.7147C79.1661 45.552 78.9969 45.4355 78.803 45.3869C77.2253 44.9641 75.6475 44.5675 74.0565 44.2036C73.8202 44.1479 73.7536 44.184 73.7536 44.4396C73.7736 49.5027 73.7825 54.5559 73.7802 59.5993ZM64.9064 58.8421H64.7766V74.8244C64.7766 74.9949 64.7399 75.1325 65.0195 75.1293C66.9767 75.1293 68.9372 75.1293 70.8944 75.1293C71.0974 75.1293 71.144 75.067 71.144 74.8801C71.144 74.1558 71.144 73.4314 71.164 72.7103C71.164 72.4939 71.0974 72.4513 70.8944 72.4481C69.9258 72.4481 68.9572 72.4218 67.9886 72.3989C67.7389 72.3989 67.4094 72.5071 67.2563 72.3464C67.1032 72.1858 67.213 71.8679 67.213 71.6188C67.2308 67.5194 67.2452 63.4189 67.2563 59.3174C67.2563 59.0879 67.3229 59.0388 67.5392 59.0584C68.6643 59.1633 69.786 59.2518 70.9077 59.36C71.1241 59.3797 71.2406 59.3796 71.2239 59.1109C71.2062 58.4291 71.2062 57.7473 71.2239 57.0656C71.2239 56.8197 71.1341 56.7607 70.9277 56.7378C69.806 56.6329 68.6843 56.5149 67.5625 56.41C67.3429 56.3903 67.2563 56.3444 67.2563 56.1019C67.2785 52.693 67.294 49.2842 67.3029 45.8753C67.3029 45.6786 67.3295 45.6032 67.5625 45.6426C68.7009 45.8327 69.8459 46.0064 70.9876 46.1932C71.1607 46.2227 71.2605 46.2359 71.2572 46.0031C71.2572 45.282 71.2572 44.5576 71.2772 43.8333C71.2772 43.6628 71.2472 43.5874 71.0475 43.5514C69.1203 43.181 67.1831 42.8729 65.2392 42.6041C64.9064 42.5615 64.8864 42.6369 64.8864 42.9122C64.8997 48.2244 64.9064 53.5343 64.9064 58.8421Z" fill="#35322F"/>
<path d="M60.6891 18.388C62.5464 18.542 63.8146 19.8859 63.7614 21.6166C63.7345 22.3678 63.4303 23.0836 62.9057 23.6297C62.3812 24.1759 61.6723 24.5148 60.9121 24.5829C60.7257 24.5829 60.6592 24.6387 60.6592 24.8353C60.6592 27.1953 60.6592 29.5553 60.6592 31.9153C60.6592 32.1316 60.7524 32.1382 60.9221 32.1546C67.4141 32.7304 73.8146 34.0572 79.9913 36.1075C83.553 37.3355 87.0044 38.854 90.3097 40.6472C90.376 40.6772 90.4304 40.7277 90.4647 40.791C90.499 40.8544 90.5112 40.9271 90.4995 40.9979C90.5594 44.0299 90.5327 47.0585 90.5461 50.0904C90.5882 59.9696 90.606 69.8498 90.5993 79.7312C90.5993 85.3853 90.5461 91.0361 90.5194 96.6903C90.5194 97.018 90.4895 97.3196 90.5194 97.6343C90.5361 97.8801 90.4362 97.9227 90.2132 97.9161C89.6374 97.8998 89.0615 97.8998 88.489 97.9161C88.2527 97.9161 88.1861 97.867 88.1928 97.6277C88.2194 95.9823 88.2372 94.3357 88.246 92.6881C88.2594 89.3557 88.2682 86.0212 88.2727 82.6844C88.2727 72.6873 88.2671 62.6912 88.256 52.6962C88.256 49.2677 88.2194 45.8359 88.2061 42.4074C88.2139 42.3218 88.1931 42.2361 88.1468 42.1633C88.1006 42.0905 88.0314 42.0346 87.9498 42.0042C83.4175 39.6437 78.6116 37.8321 73.6371 36.609C70.7863 35.8891 67.8972 35.3255 64.9829 34.921C62.8993 34.626 60.809 34.4162 58.7087 34.2654C55.7629 34.0524 52.8171 33.9868 49.8681 34.0425C47.2285 34.095 44.5923 34.2556 41.9695 34.5408C35.9192 35.1542 29.9614 36.4554 24.2151 38.4183C21.3534 39.4131 18.5718 40.6183 15.8937 42.0239C15.8175 42.0547 15.7536 42.1091 15.7115 42.1789C15.6695 42.2487 15.6517 42.33 15.6607 42.4106C15.6408 49.425 15.6042 56.4427 15.5975 63.4604C15.5975 72.9003 15.5975 82.3392 15.5975 91.7769C15.5975 93.7436 15.6275 95.6807 15.6574 97.631C15.6574 97.8539 15.6208 97.9358 15.3678 97.926C14.7953 97.9063 14.2195 97.9063 13.6436 97.926C13.3874 97.926 13.3308 97.8571 13.3308 97.6179C13.3308 95.5638 13.3152 93.5087 13.2842 91.4524C13.2109 82.5369 13.2276 73.6214 13.2409 64.7059C13.2409 57.3441 13.2875 49.9823 13.3108 42.6204C13.3108 42.073 13.3374 41.5289 13.3374 40.9815C13.3303 40.915 13.3441 40.848 13.3768 40.7894C13.4095 40.7308 13.4597 40.6835 13.5205 40.6538C18.6657 37.859 24.16 35.7389 29.8636 34.3474C32.7344 33.6381 35.6408 33.0768 38.571 32.6659C40.0223 32.4627 41.4835 32.3152 42.9414 32.1578C43.1111 32.1382 43.1677 32.1021 43.1677 31.9218C43.1677 29.5619 43.1677 27.2019 43.1677 24.8419C43.1677 24.6485 43.1078 24.5993 42.9181 24.5862C42.1706 24.5226 41.471 24.1971 40.9464 23.6689C40.4218 23.1406 40.1069 22.4446 40.059 21.7073C40.0111 20.9699 40.2332 20.2401 40.6852 19.6503C41.1371 19.0605 41.7888 18.6498 42.522 18.4929C42.7184 18.4535 42.9214 18.4306 43.1478 18.3978C42.4816 17.1845 42.0865 15.845 41.989 14.469C41.8914 13.0931 42.0935 11.7125 42.5819 10.4198C43.2932 8.44054 44.6481 6.74793 46.4363 5.60474C48.2819 4.40239 50.482 3.8407 52.6883 4.00861C54.8946 4.17653 56.9809 5.06446 58.6169 6.53178C60.2529 7.9991 61.3451 9.96196 61.7204 12.1095C62.0958 14.257 61.7328 16.4665 60.6891 18.388ZM49.5752 31.7121H52.0017C52.1077 31.7096 52.2121 31.685 52.3079 31.6399L58.1528 29.0997C58.212 29.0837 58.2635 29.0476 58.2982 28.9978C58.3329 28.948 58.3486 28.8877 58.3425 28.8276C58.3425 27.487 58.3425 26.1432 58.3425 24.8026C58.3425 24.6157 58.2826 24.5764 58.1062 24.5764C57.4571 24.5764 56.8081 24.5764 56.1557 24.5764C56.0406 24.5785 55.9272 24.6042 55.8228 24.6518C52.4521 26.1202 49.0814 27.5886 45.7107 29.0571C45.6403 29.0763 45.5793 29.1202 45.5395 29.1806C45.4996 29.241 45.4836 29.3136 45.4944 29.3849C45.4944 30.1486 45.511 30.9156 45.4944 31.6793C45.4944 31.9284 45.5842 31.9382 45.7873 31.9218C47.0455 31.8235 48.3103 31.794 49.5752 31.7121ZM51.9051 22.7474H55.5665C57.1742 22.7474 58.7819 22.7474 60.3896 22.7474C60.6083 22.7606 60.8268 22.7175 61.0234 22.6223C61.2201 22.5271 61.3882 22.3831 61.5111 22.2044C61.6341 22.0258 61.7077 21.8187 61.7246 21.6035C61.7416 21.3884 61.7013 21.1726 61.6078 20.9774C61.3448 20.4104 60.8556 20.2268 60.2531 20.2268H43.5805C43.432 20.2266 43.2838 20.2398 43.1378 20.2661C42.9524 20.2981 42.7767 20.371 42.6239 20.4793C42.4712 20.5876 42.3453 20.7285 42.2556 20.8915C42.166 21.0545 42.1149 21.2353 42.1063 21.4205C42.0977 21.6057 42.1317 21.7903 42.2058 21.9607C42.3083 22.2109 42.4891 22.4223 42.7219 22.5644C42.9548 22.7064 43.2275 22.7717 43.5006 22.7507L51.9051 22.7474Z" fill="#35322F"/>
<path d="M29.9269 120.435H73.93C73.2643 120.913 72.6552 121.356 72.0428 121.775C67.6117 124.751 62.7735 127.092 57.6735 128.727C55.845 129.333 53.9966 129.868 52.1282 130.333C52.0065 130.371 51.8771 130.378 51.752 130.353C45.9937 128.891 40.435 126.895 35.2791 123.952C33.4179 122.897 31.6298 121.722 29.9269 120.435Z" fill="#35322F"/>
<path d="M87.4405 108.756C87.5011 108.631 87.5231 108.492 87.5038 108.356C87.5038 107.464 87.5038 106.573 87.5038 105.681C87.5038 105.475 87.5437 105.386 87.7834 105.386C88.5456 105.386 88.5456 105.386 88.5456 106.14C88.5456 108.28 88.5456 110.418 88.5456 112.558C88.5456 112.817 88.479 112.886 88.2128 112.886C87.5005 112.869 87.4838 112.886 87.5071 112.174C87.5237 111.651 87.4437 111.129 87.2708 110.634C86.9978 109.847 86.7549 109.047 86.4486 108.258C86.4486 108.362 86.4486 108.467 86.4486 108.585C86.4486 109.916 86.4486 111.247 86.4486 112.578C86.4486 112.82 86.3954 112.905 86.1358 112.905C85.4035 112.905 85.4035 112.905 85.4035 112.184C85.4035 110.047 85.4035 107.907 85.4035 105.77C85.4035 105.488 85.4667 105.39 85.7696 105.399C86.4353 105.422 86.4353 105.399 86.6284 106.035C86.8747 106.91 87.151 107.799 87.4405 108.756Z" fill="#35322F"/>
<path d="M35.7318 108.349C35.7318 109.814 35.7318 111.283 35.7318 112.751C35.7318 113.01 35.6919 113.118 35.3989 113.109C34.7066 113.086 34.7066 113.109 34.7066 112.417C34.7066 110.224 34.7066 108.031 34.7066 105.839C34.7066 105.583 34.7665 105.511 35.0395 105.511C35.7451 105.527 35.7451 105.511 35.9448 106.166L36.6937 108.631C36.7144 108.726 36.7658 108.811 36.8402 108.874V107.854C36.8402 107.163 36.8402 106.471 36.8402 105.776C36.8402 105.576 36.8935 105.511 37.1098 105.511C37.8987 105.511 37.8987 105.511 37.8987 106.268C37.8987 108.438 37.8987 110.611 37.8987 112.781C37.8987 113.017 37.8521 113.109 37.5858 113.109C36.8435 113.109 36.8269 113.109 36.8469 112.391C36.8661 111.847 36.7814 111.304 36.5972 110.791C36.3143 109.982 36.0713 109.152 35.8117 108.343L35.7318 108.349Z" fill="#35322F"/>
<path d="M71.4969 108.822C71.4969 107.773 71.4969 106.724 71.4969 105.675C71.4969 105.462 71.5468 105.386 71.7765 105.39C72.5254 105.39 72.5254 105.39 72.5254 106.124C72.5254 108.274 72.5254 110.424 72.5254 112.575C72.5254 112.814 72.4721 112.902 72.2125 112.902C71.5002 112.902 71.4836 112.902 71.5035 112.198C71.5192 111.686 71.4379 111.176 71.2639 110.693C70.981 109.877 70.7346 109.054 70.4151 108.225V108.494C70.4151 109.857 70.4151 111.221 70.4151 112.584C70.4151 112.817 70.3618 112.889 70.1189 112.886C69.3866 112.886 69.3866 112.886 69.3866 112.168C69.3866 110.028 69.3866 107.887 69.3866 105.75C69.3866 105.478 69.4332 105.367 69.7427 105.38C70.4084 105.406 70.4084 105.38 70.6015 106.035L71.3704 108.592C71.397 108.677 71.427 108.763 71.4536 108.851L71.4969 108.822Z" fill="#35322F"/>
<path d="M13.4939 109.208C14.1596 109.369 14.3593 109.824 14.316 110.457C14.2794 110.959 14.316 111.463 14.316 111.965C14.316 112.689 13.9832 113.037 13.2642 113.076C12.5985 113.112 11.9328 113.076 11.2671 113.102C11.104 113.102 11.0507 113.043 11.0507 112.883C11.0507 110.494 11.0507 108.105 11.0507 105.714C11.0507 105.619 11.0507 105.514 11.1839 105.517C11.8419 105.487 12.5013 105.499 13.1577 105.554C13.4463 105.58 13.7127 105.717 13.8995 105.936C14.0862 106.154 14.1785 106.436 14.1562 106.72C14.1562 107.245 14.1562 107.769 14.1562 108.294C14.1827 108.473 14.1399 108.655 14.0363 108.804C13.9327 108.954 13.776 109.059 13.5971 109.1C13.5733 109.11 13.5518 109.125 13.5341 109.144C13.5163 109.162 13.5027 109.184 13.4939 109.208ZM13.2742 110.988V110.395C13.2742 109.782 13.151 109.657 12.5419 109.634C12.4654 109.634 12.3921 109.634 12.3189 109.634C12.1358 109.618 12.0826 109.7 12.0859 109.874C12.0859 110.405 12.0859 110.939 12.0859 111.47C12.0859 112.26 12.0859 112.26 12.8847 112.178C12.9386 112.181 12.9925 112.172 13.0425 112.152C13.0926 112.132 13.1377 112.102 13.1747 112.063C13.2118 112.025 13.2398 111.978 13.257 111.928C13.2742 111.878 13.28 111.824 13.2742 111.771C13.2709 111.512 13.2742 111.25 13.2742 110.988ZM12.0892 107.569C12.0892 107.874 12.0892 108.176 12.0892 108.481C12.0892 108.559 12.0559 108.651 12.1558 108.703C12.5086 108.9 13.1277 108.615 13.1544 108.225C13.1777 107.786 13.1743 107.343 13.1544 106.914C13.1377 106.586 12.9846 106.465 12.6318 106.461C12.5586 106.461 12.482 106.461 12.4088 106.461C12.1691 106.429 12.0593 106.501 12.0759 106.763C12.0926 107.025 12.0892 107.297 12.0892 107.569Z" fill="#35322F"/>
<path d="M62.7462 109.149C62.7462 108.32 62.7462 107.494 62.7462 106.665C62.7462 105.835 63.1622 105.393 64.041 105.396C64.4551 105.368 64.8711 105.381 65.2825 105.435C65.5053 105.469 65.7101 105.575 65.8636 105.738C66.0171 105.9 66.1102 106.109 66.128 106.33C66.1519 106.517 66.1641 106.705 66.1646 106.894C66.1646 108.402 66.1646 109.912 66.1646 111.424C66.1668 111.622 66.1523 111.821 66.1213 112.017C66.0906 112.249 65.9773 112.462 65.8017 112.618C65.6261 112.775 65.3996 112.865 65.1627 112.873C64.7699 112.892 64.3772 112.873 63.9844 112.873C63.1489 112.873 62.7495 112.473 62.7462 111.657C62.7428 110.84 62.7462 109.988 62.7462 109.149ZM63.768 109.129V111.394C63.768 111.883 63.8845 111.984 64.4337 111.988C65.0429 111.988 65.1261 111.922 65.1261 111.404C65.1261 109.988 65.1261 108.572 65.1261 107.143C65.1261 106.304 65.1261 106.294 64.2773 106.311C63.8879 106.311 63.768 106.432 63.7647 106.819C63.7647 107.599 63.768 108.362 63.768 109.129Z" fill="#35322F"/>
<path d="M20.8399 108.844C20.8399 109.779 20.8399 110.713 20.8399 111.644C20.852 111.917 20.8078 112.19 20.7101 112.447C20.6434 112.613 20.532 112.758 20.3877 112.867C20.2434 112.975 20.0718 113.043 19.8913 113.063C19.5007 113.114 19.1057 113.124 18.713 113.092C17.9142 113.04 17.5214 112.637 17.5147 111.84C17.5147 110.309 17.5147 108.779 17.5147 107.251C17.5147 106.756 17.5147 106.268 17.5147 105.77C17.5147 105.593 17.5447 105.514 17.7577 105.511C18.5433 105.511 18.5433 105.491 18.5433 106.265C18.5433 108.013 18.5433 109.761 18.5433 111.509C18.5363 111.635 18.5652 111.759 18.6266 111.869C18.6881 111.98 18.7796 112.07 18.8909 112.132C19.0021 112.193 19.1286 112.223 19.256 112.217C19.3835 112.211 19.5067 112.17 19.6117 112.099C19.8181 111.981 19.8114 111.771 19.8114 111.568C19.8114 109.683 19.8114 107.795 19.8114 105.907C19.8114 105.58 19.8747 105.475 20.2208 105.494C20.8433 105.524 20.8466 105.494 20.8466 106.127L20.8399 108.844Z" fill="#35322F"/>
<path d="M48.7697 111.08C48.9627 110.369 48.5999 109.985 47.9775 109.726C47.7012 109.593 47.4323 109.445 47.172 109.284C47.0278 109.213 46.9074 109.104 46.8253 108.968C46.7432 108.831 46.7029 108.675 46.7093 108.517C46.7093 107.897 46.7093 107.278 46.7093 106.661C46.6972 106.508 46.719 106.354 46.7732 106.21C46.8274 106.066 46.9126 105.936 47.023 105.827C47.1335 105.719 47.2664 105.635 47.4128 105.582C47.5592 105.529 47.7155 105.508 47.871 105.521C48.2419 105.489 48.6154 105.503 48.9827 105.563C49.1762 105.604 49.3532 105.7 49.4913 105.839C49.6294 105.979 49.7223 106.155 49.7582 106.347C49.8209 106.687 49.8421 107.034 49.8215 107.379C49.8215 107.507 49.7749 107.579 49.6351 107.569H49.5951C49.3388 107.569 49.0359 107.641 48.8429 107.533C48.6498 107.425 48.7796 107.091 48.7563 106.858C48.7598 106.801 48.7503 106.743 48.7285 106.689C48.7067 106.636 48.673 106.588 48.6301 106.549C48.5871 106.509 48.5358 106.48 48.48 106.463C48.4241 106.445 48.365 106.441 48.307 106.448C47.9109 106.448 47.7445 106.53 47.7311 106.829C47.7078 107.278 47.7311 107.73 47.7311 108.182C47.7372 108.266 47.7673 108.347 47.818 108.415C47.8686 108.483 47.9378 108.535 48.0174 108.566L49.3788 109.316C49.5044 109.376 49.6106 109.469 49.6854 109.585C49.7601 109.701 49.8003 109.835 49.8015 109.972C49.847 110.704 49.8359 111.438 49.7682 112.168C49.7534 112.407 49.6486 112.632 49.4744 112.798C49.3002 112.965 49.069 113.062 48.8262 113.069C48.4781 113.112 48.1259 113.112 47.7777 113.069C47.4966 113.067 47.2277 112.956 47.0286 112.761C46.8295 112.565 46.7161 112.301 46.7126 112.024C46.6194 111.296 46.6194 111.313 47.3517 111.29C47.6613 111.29 47.7511 111.362 47.7345 111.667C47.7145 112.027 47.8909 112.165 48.2704 112.165C48.6498 112.165 48.753 112.047 48.763 111.667C48.773 111.476 48.7697 111.28 48.7697 111.08Z" fill="#35322F"/>
<path d="M54.9707 111.073C55.1671 110.359 54.7976 109.979 54.1752 109.723C53.8989 109.59 53.63 109.442 53.3697 109.281C53.2264 109.209 53.1071 109.098 53.0257 108.962C52.9443 108.825 52.9043 108.668 52.9103 108.51C52.9103 107.891 52.9103 107.271 52.9103 106.655C52.9009 106.502 52.9248 106.348 52.9806 106.205C53.0363 106.062 53.1226 105.932 53.2336 105.824C53.3446 105.716 53.4778 105.633 53.6241 105.58C53.7704 105.528 53.9265 105.506 54.082 105.518C54.3449 105.518 54.6145 105.518 54.8775 105.518C55.1532 105.502 55.4241 105.593 55.6312 105.773C55.8383 105.953 55.9646 106.207 55.9826 106.478C56.0048 106.58 56.0171 106.685 56.0192 106.789C55.9925 107.75 56.2255 107.543 55.1937 107.573C55.0306 107.573 54.9607 107.52 54.9674 107.356C54.974 107.193 54.9674 106.999 54.9674 106.822C54.9734 106.774 54.9685 106.725 54.953 106.679C54.9375 106.633 54.9118 106.591 54.8777 106.555C54.8436 106.52 54.802 106.493 54.7559 106.476C54.7098 106.458 54.6604 106.451 54.6112 106.455C54.3649 106.455 54.0453 106.373 53.9821 106.717C53.9039 107.235 53.8972 107.761 53.9621 108.281C53.9621 108.468 54.1718 108.536 54.315 108.609C54.7477 108.854 55.1837 109.09 55.6197 109.33C55.7316 109.381 55.8267 109.463 55.8943 109.565C55.9619 109.667 55.9994 109.785 56.0025 109.907C56.0603 110.659 56.0514 111.414 55.9759 112.165C55.961 112.404 55.8556 112.629 55.6806 112.795C55.5056 112.961 55.2737 113.057 55.0306 113.063C54.7137 113.102 54.3936 113.109 54.0753 113.083C53.9278 113.09 53.7802 113.068 53.6414 113.018C53.5027 112.968 53.3756 112.891 53.2677 112.792C53.1599 112.693 53.0736 112.573 53.0139 112.44C52.9542 112.307 52.9224 112.163 52.9203 112.017C52.8171 111.323 52.8371 111.313 53.5328 111.29C53.8357 111.29 53.9721 111.332 53.9455 111.673C53.9189 112.014 54.1053 112.165 54.488 112.165C54.8708 112.165 54.964 112.044 54.9707 111.66C54.974 111.47 54.9707 111.27 54.9707 111.073Z" fill="#35322F"/>
<path d="M25.0938 107.51C24.8741 108.251 25.2902 108.612 25.916 108.871C26.2135 109.01 26.5015 109.169 26.778 109.346C26.8967 109.41 26.9949 109.505 27.0614 109.621C27.1279 109.737 27.16 109.869 27.1542 110.001C27.1542 110.657 27.1542 111.313 27.1542 111.968C27.1661 112.11 27.1482 112.252 27.1014 112.387C27.0547 112.521 26.9802 112.645 26.8827 112.749C26.7851 112.854 26.6666 112.938 26.5346 112.995C26.4026 113.052 26.26 113.082 26.1157 113.083C25.784 113.121 25.4488 113.121 25.1171 113.083C24.8476 113.084 24.5881 112.982 24.3932 112.798C24.1983 112.615 24.0831 112.364 24.072 112.099C23.9388 111.313 23.9388 111.326 24.7144 111.306C25.0006 111.306 25.1038 111.372 25.0872 111.667C25.0672 112.053 25.2103 112.175 25.5931 112.181C25.9759 112.188 26.109 112.053 26.1123 111.67C26.1157 111.286 26.1123 110.913 26.1123 110.536C26.1213 110.431 26.0977 110.327 26.0448 110.236C25.9919 110.145 25.9121 110.073 25.8161 110.028C25.3767 109.788 24.9474 109.539 24.5113 109.3C24.3746 109.239 24.2579 109.142 24.1744 109.019C24.0909 108.896 24.0439 108.753 24.0387 108.605C23.987 107.883 23.997 107.159 24.0686 106.439C24.0849 106.201 24.1899 105.979 24.3633 105.814C24.5367 105.648 24.7661 105.552 25.0073 105.544C25.3982 105.491 25.7946 105.491 26.1856 105.544C26.4554 105.566 26.7061 105.69 26.8858 105.89C27.0654 106.089 27.1604 106.349 27.1508 106.616C27.1675 106.865 27.1508 107.117 27.1508 107.369C27.1508 107.622 26.9611 107.609 26.818 107.569C26.585 107.491 26.2255 107.809 26.1123 107.376C26.1005 107.209 26.1005 107.041 26.1123 106.875C26.0857 106.547 25.9426 106.448 25.5365 106.458C25.2037 106.458 25.0971 106.57 25.0838 106.891C25.0872 107.094 25.0938 107.304 25.0938 107.51Z" fill="#35322F"/>
<path d="M41.1639 109.31C41.1639 108.146 41.1639 106.983 41.1639 105.819C41.1639 105.563 41.2405 105.491 41.4968 105.511C42.1625 105.524 42.8215 105.524 43.4739 105.511C43.6903 105.511 43.7402 105.576 43.7435 105.78C43.7435 106.435 43.7435 106.435 43.0612 106.435C42.7949 106.435 42.4587 106.324 42.289 106.484C42.1192 106.645 42.2424 106.983 42.2357 107.242C42.2357 107.658 42.2357 108.077 42.2357 108.497C42.2357 108.664 42.2923 108.72 42.4554 108.713C42.765 108.713 43.0745 108.713 43.3841 108.713C43.5305 108.713 43.5805 108.756 43.5938 108.907C43.6437 109.647 43.6504 109.647 42.9281 109.647C42.2624 109.647 42.2624 109.647 42.2624 110.319C42.2624 110.821 42.2823 111.326 42.2624 111.827C42.2624 112.119 42.3489 112.188 42.6218 112.155C42.8948 112.122 43.2409 112.155 43.5472 112.155C43.7036 112.155 43.7702 112.184 43.7802 112.358C43.8134 113.082 43.8201 113.079 43.0778 113.079C42.5486 113.079 42.016 113.079 41.4835 113.079C41.2738 113.079 41.2105 113.014 41.2105 112.807C41.1673 111.66 41.1639 110.486 41.1639 109.31Z" fill="#35322F"/>
<path d="M91.8142 109.149C91.8142 107.995 91.8142 106.855 91.8142 105.688C91.8142 105.458 91.8675 105.383 92.1138 105.39C92.7795 105.406 93.4452 105.39 94.091 105.39C94.2674 105.39 94.3306 105.439 94.3339 105.619C94.3572 106.32 94.3639 106.317 93.6516 106.324C93.3886 106.324 93.0425 106.206 92.8894 106.383C92.7363 106.56 92.8461 106.861 92.8428 107.11C92.8428 107.51 92.8428 107.907 92.8428 108.307C92.8428 108.517 92.8894 108.608 93.1224 108.592C93.4086 108.572 93.6982 108.592 93.9844 108.592C94.1342 108.592 94.1808 108.641 94.1908 108.792C94.2308 109.493 94.2374 109.493 93.5251 109.493C92.8128 109.493 92.8361 109.493 92.8361 110.185C92.8361 110.677 92.8561 111.168 92.8361 111.663C92.8195 111.958 92.9293 112.017 93.1956 111.991C93.4619 111.965 93.7947 111.991 94.091 111.991C94.294 111.991 94.3373 112.06 94.3373 112.247C94.3373 112.902 94.3539 112.902 93.6982 112.902C93.1656 112.902 92.6331 112.902 92.1005 112.902C91.8742 112.902 91.8176 112.84 91.8176 112.62C91.8209 111.444 91.8142 110.303 91.8142 109.149Z" fill="#35322F"/>
<path d="M75.7807 109.149C75.7807 107.996 75.7807 106.855 75.7807 105.691C75.7807 105.449 75.8539 105.396 76.0869 105.4C76.8092 105.4 76.8092 105.4 76.8092 106.121C76.8092 107.976 76.8092 109.828 76.8092 111.693C76.8092 111.926 76.8525 112.044 77.1187 112.021C77.3091 112.001 77.5009 112.001 77.6913 112.021C77.8643 112.021 78.1306 111.926 78.1872 112.086C78.2391 112.331 78.2458 112.583 78.2072 112.83C78.2072 112.935 78.1007 112.912 78.0308 112.912C77.3651 112.912 76.6694 112.912 75.9904 112.912C75.7674 112.912 75.7907 112.788 75.7907 112.65L75.7807 109.149Z" fill="#35322F"/>
<path d="M82.1382 109.126C82.1382 110.28 82.1382 111.421 82.1382 112.584C82.1382 112.807 82.0982 112.896 81.8453 112.892C81.0964 112.892 81.0964 112.892 81.0964 112.155C81.0964 110.018 81.0964 107.894 81.0964 105.744C81.0964 105.481 81.143 105.377 81.4292 105.386C82.1282 105.409 82.1282 105.386 82.1282 106.078L82.1382 109.126Z" fill="#35322F"/>
<path d="M30.3562 109.323C30.3562 108.149 30.3562 106.976 30.3562 105.803C30.3562 105.563 30.4261 105.508 30.6591 105.511C31.3914 105.511 31.3914 105.511 31.3914 106.225C31.3914 108.415 31.3914 110.601 31.3914 112.781C31.3914 113.03 31.3215 113.109 31.0585 113.109C30.3429 113.109 30.3429 113.109 30.3429 112.404L30.3562 109.323Z" fill="#35322F"/>
<path d="M56.3653 65.0767C56.3653 62.8446 56.3653 60.6124 56.3653 58.3803C56.3653 58.0853 56.4519 58.0328 56.7182 58.0525C57.2607 58.0853 57.8033 58.0951 58.3458 58.1115C58.3978 58.1067 58.4502 58.114 58.4987 58.1328C58.5473 58.1515 58.5907 58.1813 58.6254 58.2197C58.8484 58.472 59.0748 58.7244 59.3111 58.9637C59.4276 59.0817 59.401 59.2128 59.401 59.3472C59.401 62.7211 59.3899 66.095 59.3677 69.4689V69.8164C59.3677 71.0226 59.3677 71.0193 58.5855 71.9371C58.5445 71.9896 58.4906 72.0311 58.4289 72.0575C58.3672 72.0838 58.2996 72.0943 58.2327 72.0878C57.7001 72.0878 57.1675 72.0682 56.635 72.0878C56.4086 72.0878 56.3587 72.0256 56.3587 71.8092C56.3587 69.5672 56.3587 67.322 56.3587 65.08L56.3653 65.0767Z" fill="#35322F"/>
<path d="M56.3953 49.8218C56.3953 48.0617 56.3953 46.2982 56.3953 44.5381C56.3953 44.2726 56.4519 44.171 56.7481 44.2103C57.2208 44.266 57.7001 44.2857 58.1794 44.3054C58.3243 44.3211 58.46 44.3833 58.5655 44.4824C59.2845 44.9937 59.4742 45.6558 59.4509 46.5277C59.3877 49.1269 59.4176 51.7295 59.4243 54.3287C59.4228 54.5636 59.334 54.7899 59.1746 54.9646C59.022 55.1824 58.808 55.3515 58.5591 55.4511C58.3101 55.5507 58.037 55.5764 57.7733 55.5251C57.3936 55.4781 57.0108 55.4606 56.6283 55.4727C56.4086 55.4727 56.372 55.394 56.372 55.2006C56.372 53.4077 56.372 51.6148 56.372 49.8218H56.3953Z" fill="#35322F"/>
<path d="M45.6009 50.0972C45.6009 48.419 45.6009 46.7441 45.6009 45.0659C45.6009 44.8528 45.6275 44.7381 45.8838 44.7381C46.4463 44.7381 47.0088 44.6889 47.5714 44.6627C47.6131 44.6547 47.6561 44.6547 47.6979 44.6627C48.0519 44.9487 48.319 45.3252 48.4701 45.7509C48.4701 48.4343 48.4778 51.1177 48.4934 53.8011C48.4961 53.8613 48.4863 53.9215 48.4645 53.9778C48.4428 54.0342 48.4095 54.0856 48.3669 54.1289C48.034 54.4861 47.6812 54.8467 47.3417 55.2072C47.3149 55.246 47.2799 55.2787 47.2391 55.303C47.1983 55.3273 47.1527 55.3427 47.1054 55.3482C46.6693 55.3482 46.2333 55.3711 45.7973 55.3941C45.5709 55.3941 45.6342 55.2531 45.6342 55.1417V50.0972H45.6009Z" fill="#35322F"/>
<path d="M24.9007 66.1254C24.9007 64.1587 24.9007 62.1626 24.9007 60.1828C24.9007 59.9435 24.9773 59.855 25.2069 59.8288C25.5398 59.796 25.8727 59.7534 26.1855 59.6977C26.3049 59.6735 26.4285 59.6795 26.5449 59.715C26.6613 59.7505 26.7667 59.8145 26.8512 59.9009C27.1841 60.209 27.6434 60.4286 27.8165 60.7957C27.9896 61.1628 27.8731 61.6578 27.8764 62.1068C27.8764 65.0929 27.8764 68.0822 27.9197 71.0682C27.9123 71.3553 27.804 71.631 27.6135 71.8483C27.5028 72.0292 27.3417 72.1751 27.1494 72.2686C26.9571 72.3622 26.7416 72.3994 26.5284 72.376C26.0842 72.3567 25.6392 72.3698 25.197 72.4154C24.9706 72.4154 24.914 72.3662 24.914 72.1433C24.914 70.1406 24.914 68.1379 24.914 66.1352L24.9007 66.1254Z" fill="#35322F"/>
<path d="M24.9041 52.516C24.9041 50.9853 24.9041 49.4546 24.9041 47.9271C24.9041 47.642 24.954 47.501 25.2736 47.4518C25.6892 47.3857 26.0988 47.2871 26.4985 47.1568C26.6226 47.1238 26.7524 47.1172 26.8792 47.1375C27.0061 47.1579 27.1271 47.2047 27.2341 47.2748C27.4417 47.3639 27.6138 47.5177 27.7239 47.7126C27.834 47.9074 27.8759 48.1326 27.8432 48.3532C27.8232 50.7657 27.8432 53.1748 27.8732 55.5872C27.8766 55.6798 27.8607 55.7722 27.8263 55.8584C27.7919 55.9447 27.7399 56.0231 27.6735 56.0887C27.3406 56.4427 27.0078 56.8098 26.7049 57.1737C26.6531 57.2531 26.5739 57.3113 26.4818 57.3375C26.0125 57.4129 25.5432 57.4883 25.0705 57.5572C24.8342 57.5899 24.9241 57.3966 24.9241 57.3015C24.9241 55.7041 24.9241 54.1101 24.9241 52.5193L24.9041 52.516Z" fill="#35322F"/>
<path d="M76.1635 52.4014C76.1635 50.7888 76.1635 49.1761 76.1635 47.5602C76.1635 47.3111 76.2101 47.2619 76.4597 47.3406C76.7972 47.4659 77.1495 47.5485 77.5082 47.5864C78.3104 47.629 78.54 48.2944 78.9328 48.7828C78.9669 48.859 78.9784 48.943 78.9661 49.0254C78.9661 51.676 78.9594 54.3266 78.9461 56.9772C78.9549 57.0546 78.9399 57.1328 78.9031 57.2017C78.8663 57.2706 78.8094 57.3271 78.7398 57.364C78.4835 57.5049 78.3303 57.8458 77.9742 57.7999C77.405 57.7278 76.8425 57.6295 76.2733 57.5541C76.0636 57.5279 76.1269 57.3804 76.1269 57.2722C76.1269 56.2036 76.1269 55.1351 76.1269 54.0665C76.1269 53.5126 76.1269 52.9554 76.1269 52.4014H76.1635Z" fill="#35322F"/>
<path d="M36.5473 51.5952C36.6105 52.4409 36.6771 53.2833 36.7337 54.1256C36.8602 55.9131 36.9844 57.6995 37.1065 59.4848C37.1963 60.7959 37.2829 62.107 37.3794 63.4345C37.3794 63.641 37.3561 63.7262 37.1165 63.7262C36.7037 63.7262 36.2877 63.7557 35.8749 63.7852C35.7118 63.7852 35.6885 63.7458 35.6985 63.5918C35.8782 61.0548 36.0524 58.5167 36.2211 55.9776C36.3187 54.5201 36.4141 53.0604 36.5073 51.5985L36.5473 51.5952Z" fill="#35322F"/>
</svg>
