<svg width="137" height="182" viewBox="0 0 137 182" fill="none" xmlns="http://www.w3.org/2000/svg">
<path d="M130.8 131.596C130.796 131.527 130.796 131.457 130.8 131.388C130.835 131.142 130.717 131.073 130.489 131.094C130.376 131.101 130.263 131.101 130.151 131.094H5.98072V156.832H6.57704C47.8137 156.832 89.0503 156.832 130.287 156.832C130.695 156.832 130.822 156.759 130.818 156.327C130.8 148.076 130.794 139.832 130.8 131.596Z" fill="#2A9E98"/>
<path d="M129.349 158.838C128.204 159.703 127.104 160.464 125.981 161.185C122.465 163.457 118.696 165.322 114.748 166.745C114.309 166.905 114.309 166.905 114.309 166.451C114.309 164.03 114.309 161.613 114.309 159.193C114.309 158.92 114.362 158.812 114.669 158.812C119.48 158.812 124.287 158.812 129.09 158.812L129.349 158.838Z" fill="#2A9E98"/>
<path d="M7.45399 158.817H7.89246C12.6192 158.817 17.3415 158.817 22.0638 158.817C22.4453 158.817 22.5023 158.925 22.5023 159.279C22.5023 161.696 22.5023 164.116 22.5023 166.533C22.5023 166.861 22.4234 166.896 22.1296 166.792C16.9444 164.914 12.0688 162.292 7.66007 159.011C7.58795 158.95 7.51916 158.885 7.45399 158.817Z" fill="#2A9E98"/>
<path d="M84.9974 117.832C84.6598 118.087 84.3529 118.342 84.024 118.562C83.4117 118.987 82.681 119.213 81.9325 119.211C81.4447 119.223 80.966 119.08 80.5672 118.803C80.1684 118.525 79.8707 118.129 79.7183 117.672C79.6437 117.464 79.5867 117.24 79.5078 117.011C79.1658 117.305 78.8413 117.603 78.4993 117.875C77.5276 118.716 76.2841 119.188 74.9916 119.207C73.7419 119.207 72.6633 118.662 72.295 117.395C72.1853 117.024 72.0494 117.326 71.9661 117.395C71.2064 118.174 70.2568 118.747 69.2081 119.06C67.2262 119.591 65.6214 118.485 65.4767 116.466C65.3627 114.836 65.8012 113.297 66.3142 111.776C66.8359 110.08 67.7077 108.51 68.8749 107.163C69.8308 106.117 70.9708 105.386 72.466 105.365C73.1078 105.315 73.7479 105.479 74.2849 105.829C74.8219 106.179 75.2249 106.696 75.43 107.297C75.601 107.297 75.601 107.133 75.658 107.042C75.8847 106.642 76.2135 106.307 76.6119 106.07C77.0102 105.834 77.4644 105.704 77.9293 105.693C78.5563 105.667 79.1833 105.693 79.8586 105.693C79.3017 107.055 78.7536 108.361 78.2275 109.679C77.4865 111.521 76.6446 113.323 76.0351 115.208C75.9063 115.559 75.8352 115.928 75.8246 116.302C75.8246 116.872 76.114 117.075 76.6665 116.928C77.2527 116.733 77.778 116.392 78.1924 115.939C78.7542 115.397 79.265 114.807 79.7183 114.175C79.7834 114.085 79.8378 113.987 79.8805 113.885C80.639 111.681 81.6344 109.562 82.5113 107.401C82.7005 106.871 83.0594 106.415 83.5339 106.103C84.0084 105.791 84.5728 105.64 85.1421 105.672H86.896C86.5452 106.536 86.212 107.314 85.8875 108.119C84.9755 110.379 83.9583 112.601 83.1296 114.901C82.9667 115.297 82.8891 115.723 82.9016 116.15C82.8925 116.217 82.8994 116.285 82.9217 116.349C82.9441 116.413 82.9812 116.47 83.0302 116.517C83.0792 116.564 83.1387 116.6 83.2039 116.62C83.2691 116.64 83.3383 116.645 83.4058 116.634C83.6376 116.625 83.865 116.569 84.075 116.472C84.285 116.375 84.4733 116.238 84.6291 116.068C85.4798 115.226 86.2034 114.268 86.7776 113.224C87.7291 111.685 88.2421 109.951 88.97 108.322C89.1147 108.006 89.2331 107.682 89.3778 107.371C89.5803 106.851 89.9433 106.408 90.4154 106.103C90.8875 105.798 91.4448 105.647 92.0086 105.672H93.7274L88.6587 117.866C88.9042 117.936 89.0401 117.789 89.1848 117.711C91.5438 116.444 93.2451 114.534 94.6131 112.299C94.8806 111.866 95.0954 111.828 95.49 112.182C95.7028 112.377 95.8332 112.645 95.8551 112.931C95.8771 113.217 95.789 113.5 95.6084 113.725C94.2443 115.912 92.3542 117.734 90.1056 119.029C89.4523 119.401 88.7902 119.738 88.093 120.054C87.9416 120.117 87.8059 120.212 87.6953 120.332C87.5848 120.453 87.5021 120.595 87.4529 120.75C87.0385 121.966 86.4745 123.127 85.7735 124.208C84.9667 125.406 83.967 126.37 82.4719 126.638C81.4108 126.828 80.3628 126.793 79.4596 126.123C78.9886 125.746 78.6645 125.219 78.5422 124.633C78.4199 124.047 78.507 123.437 78.7887 122.907C79.2466 122.026 79.9906 121.321 80.9021 120.905C81.7791 120.473 82.6867 120.041 83.6031 119.678C83.8966 119.591 84.1619 119.43 84.3727 119.211C84.5835 118.992 84.7324 118.722 84.8045 118.428C84.893 118.238 84.9578 118.038 84.9974 117.832ZM69.0152 115.199C69.0152 116.12 69.4537 116.496 70.2429 116.263C70.7912 116.106 71.2972 115.83 71.7242 115.456C72.1511 115.082 72.4884 114.62 72.7115 114.101C73.3429 112.804 73.8471 111.438 74.3996 110.103C74.4815 109.895 74.5078 109.67 74.4759 109.45C74.4441 109.229 74.3551 109.02 74.2176 108.844C74.0802 108.667 73.8988 108.528 73.6911 108.44C73.4834 108.353 73.2562 108.319 73.0316 108.343C72.7277 108.395 72.4424 108.523 72.2029 108.715C71.2163 109.446 70.6507 110.479 70.1421 111.542C69.5615 112.69 69.1806 113.927 69.0152 115.199ZM83.533 121.472C82.9849 121.709 82.542 121.904 82.1035 122.099C81.8334 122.212 81.5737 122.347 81.3274 122.505C80.881 122.74 80.5309 123.12 80.3365 123.581C80.2975 123.681 80.2836 123.789 80.2961 123.895C80.3087 124.002 80.3472 124.104 80.4085 124.192C80.4697 124.28 80.5518 124.353 80.6477 124.403C80.7437 124.453 80.8505 124.48 80.9591 124.48C81.1407 124.483 81.321 124.449 81.4885 124.38C81.656 124.311 81.8072 124.208 81.9325 124.078C82.7086 123.391 83.1164 122.492 83.533 121.472Z" fill="#2A9E98"/>
<path d="M56.9748 97.6658C58.0601 97.6947 59.1336 97.8961 60.1537 98.2624C61.0573 98.6359 61.8962 99.1464 62.6399 99.7754C64.0363 100.999 64.9456 102.672 65.2049 104.496C65.5976 106.785 65.4578 109.132 64.7963 111.359C64.1347 113.587 62.9686 115.638 61.3858 117.356C60.5341 118.347 59.4597 119.129 58.2478 119.638C57.036 120.148 55.7203 120.371 54.4054 120.292C52.8719 120.186 51.4153 119.59 50.2575 118.593C50.0163 118.402 49.7927 118.126 49.5208 118.065C49.249 118.005 49.0254 118.364 48.7754 118.523C47.9024 119.129 46.9039 119.535 45.8521 119.713C44.8003 119.891 43.7215 119.836 42.6938 119.552C41.8726 119.359 41.1451 118.89 40.6356 118.226C40.1262 117.562 39.8664 116.744 39.9008 115.913C39.941 115.057 40.2729 114.24 40.8426 113.594C41.4123 112.947 42.1866 112.509 43.0402 112.35C43.8124 112.209 44.6052 112.219 45.3734 112.38C46.1416 112.541 46.87 112.85 47.517 113.289C47.7933 113.457 48.0651 113.626 48.3194 113.816C48.5737 114.006 48.6439 113.928 48.7579 113.712C49.3726 112.614 49.8932 111.468 50.3145 110.284C50.9108 108.801 51.4896 107.31 52.099 105.832C52.4355 104.875 53.0444 104.035 53.8529 103.411C54.2742 103.099 54.767 102.894 55.2878 102.814C55.8086 102.734 56.3413 102.781 56.8389 102.953C57.0143 103.005 57.1151 103.043 57.0011 103.251C55.3656 106.277 54.2212 109.532 52.9453 112.718C52.5406 113.781 52.0155 114.797 51.3799 115.744C51.2835 115.878 51.1651 115.995 51.3799 116.146C52.4893 116.92 53.6512 117.503 55.0719 117.356C56.2492 117.214 57.3417 116.679 58.1675 115.839C59.9433 114.162 60.9298 112.048 61.4823 109.727C61.9689 107.944 61.9689 106.067 61.4823 104.284C60.7851 101.95 59.0795 100.631 56.624 100.463C54.3001 100.307 52.2613 100.921 50.6608 102.624C50.036 103.247 49.5697 104.007 49.2999 104.842C49.0301 105.676 48.9646 106.562 49.1087 107.427C49.1982 107.928 49.1409 108.444 48.9437 108.914C48.7464 109.384 48.4173 109.789 47.9949 110.081L47.8941 110.154C47.1049 110.725 47.1049 110.725 46.719 109.809C45.9466 107.891 45.8955 105.764 46.575 103.812C47.2545 101.86 48.6198 100.212 50.4241 99.1658C50.5162 99.1053 50.6126 99.0534 50.7091 98.9929C51.6569 98.4729 52.6738 98.0859 53.7301 97.843C54.8034 97.6809 55.89 97.6215 56.9748 97.6658ZM44.2592 117.002C45.175 117.013 46.0636 116.695 46.7585 116.107C46.89 116.003 46.9996 115.908 46.8023 115.757C46.2265 115.276 45.5648 114.905 44.8511 114.663C44.5917 114.578 44.3166 114.549 44.0448 114.579C43.773 114.609 43.5111 114.697 43.277 114.836C43.0596 114.952 42.8852 115.133 42.7788 115.353C42.6724 115.573 42.6396 115.82 42.6851 116.059C42.7234 116.264 42.8234 116.453 42.9719 116.601C43.1205 116.749 43.3108 116.85 43.5182 116.889C43.75 116.977 43.9981 117.016 44.246 117.002H44.2592Z" fill="#2A9E98"/>
<path d="M69.0152 115.199C69.182 113.931 69.5629 112.699 70.1421 111.555C70.6507 110.492 71.2163 109.459 72.2029 108.728C72.4424 108.536 72.7277 108.408 73.0316 108.356C73.2562 108.332 73.4833 108.366 73.6911 108.453C73.8988 108.541 74.0802 108.68 74.2176 108.856C74.3551 109.033 74.4441 109.242 74.4759 109.463C74.5078 109.683 74.4815 109.908 74.3996 110.116C73.8471 111.451 73.3429 112.813 72.7115 114.114C72.4884 114.632 72.1511 115.095 71.7242 115.469C71.2972 115.843 70.7912 116.118 70.2429 116.276C69.4449 116.479 69.0064 116.12 69.0152 115.199Z" fill="#FAFAFA"/>
<path d="M83.5329 121.472C83.1164 122.501 82.7086 123.4 81.9325 124.065C81.8072 124.195 81.656 124.298 81.4885 124.367C81.321 124.436 81.1407 124.47 80.9591 124.467C80.8505 124.467 80.7437 124.44 80.6477 124.39C80.5518 124.34 80.4697 124.267 80.4085 124.179C80.3472 124.09 80.3087 123.989 80.2961 123.882C80.2836 123.776 80.2975 123.668 80.3365 123.568C80.5309 123.107 80.881 122.727 81.3274 122.492C81.5737 122.334 81.8334 122.198 82.1035 122.086C82.542 121.904 82.9849 121.701 83.5329 121.472Z" fill="#FAFAFA"/>
<path d="M44.246 117.002C43.9937 117.018 43.7409 116.979 43.505 116.89C43.2977 116.85 43.1074 116.749 42.9588 116.601C42.8102 116.453 42.7102 116.264 42.6719 116.06C42.6264 115.82 42.6592 115.573 42.7656 115.353C42.872 115.133 43.0465 114.952 43.2638 114.836C43.4979 114.697 43.7599 114.609 44.0316 114.579C44.3034 114.549 44.5785 114.578 44.838 114.663C45.5516 114.905 46.2133 115.276 46.7891 115.757C46.9865 115.908 46.8768 116.003 46.7453 116.107C46.0505 116.695 45.1618 117.014 44.246 117.002Z" fill="#FAFAFA"/>
<path d="M68.1777 177.085C67.0377 176.778 65.8977 176.48 64.7577 176.169C56.3697 173.886 48.372 170.713 41.0233 166.053C37.7914 164.014 34.747 161.7 31.925 159.137L31.6005 158.83C32.8239 158.83 33.9551 158.873 35.082 158.83C35.4377 158.805 35.7949 158.851 36.1318 158.966C36.4687 159.081 36.7784 159.263 37.042 159.5C42.4888 163.816 48.5678 167.294 55.0718 169.814C59.3087 171.479 63.6551 172.86 68.0813 173.947C68.2697 173.994 68.4672 173.994 68.6557 173.947C75.4423 172.326 82.0183 169.944 88.2553 166.848C92.5467 164.697 96.5858 162.087 100.3 159.067C100.477 158.915 100.706 158.835 100.94 158.843C102.216 158.843 103.492 158.843 104.768 158.843H105.176C104.264 159.707 103.382 160.464 102.488 161.203C95.5777 166.918 87.7379 170.977 79.2842 173.951C75.8382 175.151 72.3333 176.179 68.7828 177.033C68.718 177.052 68.6561 177.08 68.5987 177.115L68.1777 177.085Z" fill="#FAFAFA"/>
<path d="M68.3443 129.106C53.2639 129.106 38.1849 129.106 23.1074 129.106C22.7522 129.106 22.6207 129.054 22.6163 128.652C22.4541 113.643 22.4804 98.634 22.5023 83.6251C22.5023 74.9795 22.5637 66.3079 22.5637 57.6449C22.531 57.3636 22.5948 57.0796 22.745 56.8382C22.8953 56.5969 23.1232 56.4121 23.3924 56.3135C28.6848 53.7281 34.2387 51.6996 39.9622 50.2615C43.9265 49.2524 47.9467 48.4701 52.0026 47.9185C58.7423 47.0064 65.5481 46.6564 72.3476 46.8724C75.9606 46.9704 79.5633 47.2456 83.1559 47.698C91.3765 48.6544 99.4421 50.6282 107.162 53.5728C109.433 54.4633 111.656 55.459 113.831 56.5599C113.951 56.6058 114.053 56.6897 114.119 56.7984C114.186 56.9071 114.214 57.0345 114.2 57.1607C114.2 62.4749 114.213 67.7863 114.239 73.0947C114.295 84.9652 114.309 96.8343 114.283 108.702C114.283 115.342 114.195 121.982 114.16 128.622C114.16 129.011 114.086 129.119 113.669 129.119C98.5593 129.107 83.4511 129.103 68.3443 129.106ZM50.7003 98.9928C50.6038 99.0533 50.5074 99.1052 50.4153 99.1657C48.6149 100.215 47.2542 101.865 46.5789 103.816C45.9035 105.768 45.9578 107.893 46.7322 109.809C47.118 110.725 47.118 110.725 47.9073 110.154L48.0081 110.081C48.4305 109.789 48.7596 109.384 48.9568 108.914C49.1541 108.443 49.2113 107.928 49.1218 107.427C48.983 106.557 49.0561 105.667 49.3351 104.83C49.6142 103.993 50.0911 103.234 50.7266 102.615C52.327 100.886 54.3659 100.29 56.6898 100.454C59.1452 100.623 60.8509 101.941 61.5481 104.275C62.0347 106.058 62.0347 107.935 61.5481 109.718C60.9956 112.039 60.009 114.153 58.2332 115.83C57.4075 116.67 56.315 117.205 55.1376 117.348C53.717 117.495 52.555 116.915 51.4457 116.137C51.2265 115.986 51.3449 115.869 51.4457 115.735C52.0813 114.788 52.6064 113.773 53.011 112.709C54.287 109.523 55.4314 106.281 57.0669 103.242C57.1809 103.035 57.0669 102.996 56.9047 102.944C56.407 102.773 55.8743 102.725 55.3535 102.805C54.8328 102.885 54.34 103.09 53.9187 103.402C53.1102 104.026 52.5012 104.867 52.1648 105.823C51.5553 107.301 50.9765 108.793 50.3802 110.275C49.959 111.459 49.4383 112.605 48.8237 113.703C48.6921 113.92 48.5781 113.963 48.3852 113.807C48.1923 113.652 47.859 113.448 47.5828 113.28C46.929 112.836 46.1921 112.526 45.4152 112.366C44.6382 112.206 43.8368 112.201 43.0578 112.35C42.201 112.506 41.4226 112.942 40.8494 113.589C40.2762 114.236 39.9419 115.054 39.9008 115.912C39.8656 116.742 40.1228 117.558 40.6288 118.221C41.1348 118.885 41.8583 119.355 42.6763 119.552C43.704 119.836 44.7827 119.891 45.8346 119.713C46.8864 119.535 47.8849 119.129 48.7579 118.523C49.0078 118.363 49.1964 118 49.5033 118.065C49.8102 118.13 49.9988 118.402 50.2399 118.593C51.3977 119.59 52.8543 120.186 54.3878 120.291C55.7057 120.374 57.0248 120.152 58.2399 119.642C59.455 119.132 60.5323 118.35 61.3858 117.356C62.9686 115.638 64.1347 113.587 64.7963 111.359C65.4578 109.131 65.5976 106.785 65.2049 104.496C64.9456 102.672 64.0363 100.999 62.6398 99.7752C61.8962 99.1463 61.0573 98.6358 60.1537 98.2623C60.1537 97.1124 60.1537 95.9625 60.1537 94.804C60.1537 90.5013 60.1435 86.1987 60.123 81.896C60.123 80.1986 60.123 78.4968 60.123 76.7907C60.123 76.6697 60.009 76.4492 60.2721 76.4406C61.2631 76.406 62.3285 76.1034 63.0082 77.2057C63.1933 77.4669 63.4147 77.7012 63.6659 77.9017C63.7459 77.9767 63.8079 78.0685 63.8474 78.1702C63.8868 78.2719 63.9027 78.3811 63.8939 78.4896C63.8939 82.6972 63.8939 86.9018 63.8939 91.1036C63.8939 93.6109 63.8939 96.1138 63.8939 98.6167C63.8939 98.8631 63.9202 98.9798 64.2227 98.9712C65.0763 98.951 65.9313 98.951 66.7878 98.9712C67.064 98.9712 67.1035 98.8847 67.1035 98.6427C67.1035 91.5186 67.1035 84.3946 67.1035 77.2706C67.1062 77.1827 67.09 77.0954 67.056 77.0141C67.022 76.9329 66.9709 76.8597 66.9062 76.7994C66.2923 76.1726 65.696 75.5328 65.0734 74.9146C64.8804 74.7201 64.8848 74.6163 65.0734 74.4218C65.6784 73.808 66.2572 73.1639 66.8579 72.5457C66.936 72.4704 66.9977 72.3802 67.0391 72.2806C67.0806 72.181 67.101 72.0741 67.0991 71.9664C67.0991 67.609 67.0991 63.2502 67.0991 58.8899C67.1031 58.7888 67.086 58.6879 67.0491 58.5935C67.0122 58.4991 66.9561 58.4132 66.8842 58.3409C66.0073 57.3697 65.142 56.3898 64.2885 55.4013C64.221 55.3172 64.1328 55.2516 64.0322 55.2107C63.9316 55.1699 63.8221 55.1551 63.7141 55.1679C61.5948 55.2572 59.4814 55.3812 57.3738 55.5397C56.9836 55.5699 56.8345 55.6305 56.8345 56.0714C56.8783 63.2214 56.9076 70.3728 56.9222 77.5256L57.0011 97.6527C55.9134 97.6079 54.8238 97.6672 53.7477 97.83C53.6337 96.6758 53.5153 95.5216 53.4057 94.3717C53.1952 92.2103 52.9979 90.0489 52.7874 87.8874C52.5506 85.471 52.2963 83.0502 52.0552 80.6294C51.814 78.2086 51.6167 75.8181 51.358 73.4103C51.0642 70.4578 50.7573 67.501 50.4811 64.5485C50.218 61.8942 49.9608 59.24 49.7094 56.5858C49.6831 56.3048 49.5734 56.2486 49.3104 56.2918C48.4334 56.4388 47.5565 56.5757 46.6795 56.7025C46.5217 56.7285 46.4647 56.7847 46.4515 56.936C46.3989 57.6103 46.3375 58.2847 46.2805 58.959C46.1314 60.6507 45.9853 62.3438 45.8421 64.0384C45.6842 65.7848 45.5249 67.5312 45.3641 69.2776L44.9257 74.2748C44.7678 76.004 44.6085 77.7331 44.4477 79.4622C44.2986 81.1136 44.1525 82.7649 44.0093 84.4162L43.5357 89.5344C43.3077 91.229 43.1192 92.9163 42.9701 94.5965C42.8429 95.9582 42.7245 97.3199 42.593 98.6816C42.5711 98.9107 42.6237 98.9885 42.8736 98.9842C43.7155 98.9842 44.5573 98.9842 45.3992 98.9842C45.6623 98.9842 45.7105 98.9107 45.7281 98.6643C45.8289 97.3674 45.9561 96.049 46.0744 94.7435C46.2937 92.4048 46.5129 90.0662 46.719 87.7275C46.719 87.4681 46.8286 87.399 47.0654 87.3903C47.7932 87.3903 48.5255 87.3471 49.2577 87.2866C49.5734 87.2606 49.6392 87.386 49.6611 87.6454C49.8014 89.1872 49.9476 90.7276 50.0996 92.2665C50.2925 94.5115 50.4928 96.7536 50.7003 98.9928ZM71.0585 77.0674H71.0322C71.0322 84.2721 71.0322 91.4768 71.0322 98.6816C71.0322 98.9626 71.0629 99.0836 71.4049 99.0793C73.549 99.0793 75.6975 99.0793 77.8416 99.0793C77.9433 99.0877 78.0455 99.0703 78.1384 99.0286C78.2312 98.987 78.3117 98.9226 78.3722 98.8415C79.3222 97.6599 80.281 96.487 81.2485 95.3227C81.3806 95.1632 81.4506 94.9623 81.4458 94.7564C81.4458 89.1166 81.4619 83.4738 81.4941 77.8282C81.4971 77.7136 81.4769 77.5995 81.4347 77.4926C81.3926 77.3858 81.3293 77.2882 81.2485 77.2057C80.6522 76.5789 80.0866 75.9305 79.4946 75.3123C79.2973 75.1091 79.328 75.0011 79.4946 74.8238C80.0953 74.2403 80.6785 73.6394 81.2704 73.0515C81.3437 72.9895 81.4024 72.9125 81.4426 72.8259C81.4827 72.7394 81.5033 72.6452 81.5028 72.55C81.5028 67.9851 81.5204 63.4216 81.5555 58.8596C81.5615 58.7803 81.5502 58.7006 81.5222 58.626C81.4942 58.5514 81.4502 58.4837 81.3932 58.4273C80.411 57.4763 79.4362 56.5195 78.4686 55.557C78.373 55.4591 78.2425 55.4017 78.1047 55.397C75.9123 55.2371 73.72 55.1593 71.5276 55.0685C71.19 55.0685 71.0541 55.0987 71.0541 55.5008C71.0658 62.6882 71.0672 69.8771 71.0585 77.0674ZM29.6318 79.9291V98.7291C29.6318 98.928 29.5704 99.1268 29.9256 99.1225C32.1179 99.1225 34.3103 99.1225 36.5333 99.1225C36.6097 99.1273 36.686 99.1141 36.7562 99.084C36.8263 99.054 36.8882 99.0079 36.9367 98.9496C37.8926 97.8314 38.8499 96.7132 39.8087 95.5951C39.9837 95.402 40.075 95.1491 40.063 94.8904C40.0309 93.0921 40.0119 91.2938 40.006 89.4955C40.006 86.0113 40.006 82.5257 40.006 79.0386C40.0115 78.9252 39.9879 78.8122 39.9373 78.7102C39.8867 78.6082 39.8108 78.5204 39.7166 78.455C39.1554 77.9968 38.6292 77.4954 38.0636 77.0458C37.8137 76.8469 37.8137 76.7259 38.0154 76.5054C38.5941 75.8656 39.1466 75.2086 39.7298 74.5731C39.8204 74.4807 39.8905 74.3707 39.9358 74.2502C39.9811 74.1296 40.0005 74.0011 39.9929 73.8728C39.9607 69.6249 39.9373 65.3784 39.9227 61.1334C39.9299 61.0405 39.9092 60.9474 39.8632 60.866C39.8172 60.7845 39.7479 60.7182 39.664 60.6752C38.7637 60.1305 37.8707 59.5743 36.985 59.0066C36.9065 58.9498 36.8159 58.9117 36.72 58.8952C36.6242 58.8787 36.5258 58.8843 36.4325 58.9115C34.2884 59.4691 32.1486 60.0397 30.0264 60.6666C29.6932 60.766 29.6406 60.913 29.6406 61.2156C29.6377 67.452 29.6347 73.6898 29.6318 79.9291ZM84.9974 117.832C84.955 118.038 84.8873 118.238 84.7957 118.428C84.7236 118.722 84.5747 118.992 84.364 119.211C84.1532 119.43 83.8878 119.591 83.5943 119.678C82.6779 120.045 81.7747 120.46 80.8934 120.905C79.9819 121.321 79.2378 122.026 78.7799 122.907C78.4983 123.437 78.4112 124.047 78.5334 124.633C78.6557 125.219 78.9798 125.745 79.4508 126.123C80.354 126.793 81.402 126.828 82.4631 126.637C83.9583 126.369 84.958 125.405 85.7648 124.208C86.4657 123.127 87.0297 121.966 87.4441 120.75C87.4933 120.595 87.576 120.452 87.6866 120.332C87.7971 120.212 87.9328 120.117 88.0843 120.054C88.7683 119.738 89.4435 119.401 90.0968 119.029C92.3406 117.732 94.226 115.911 95.5865 113.725C95.7671 113.5 95.8551 113.217 95.8332 112.931C95.8112 112.645 95.6809 112.377 95.4681 112.182C95.0823 111.827 94.8674 111.858 94.5912 112.299C93.2231 114.533 91.5219 116.444 89.1629 117.711C89.0182 117.788 88.8823 117.935 88.6367 117.866L93.7186 105.71H91.9998C91.436 105.686 90.8787 105.837 90.4066 106.142C89.9345 106.447 89.5716 106.89 89.369 107.409C89.2243 107.721 89.1059 108.045 88.9612 108.36C88.2202 109.99 87.7072 111.724 86.7689 113.262C86.1946 114.307 85.471 115.265 84.6204 116.107C84.4646 116.276 84.2762 116.414 84.0662 116.511C83.8563 116.608 83.6288 116.663 83.397 116.673C83.3295 116.684 83.2604 116.679 83.1952 116.659C83.1299 116.638 83.0705 116.603 83.0215 116.556C82.9725 116.509 82.9353 116.451 82.913 116.388C82.8906 116.324 82.8837 116.256 82.8928 116.189C82.8803 115.762 82.9579 115.336 83.1208 114.94C83.9495 112.64 84.9667 110.418 85.8788 108.157C86.2032 107.353 86.5365 106.558 86.8873 105.71H85.1334C84.564 105.679 83.9996 105.83 83.5251 106.142C83.0506 106.454 82.6917 106.909 82.5025 107.44C81.6256 109.601 80.6171 111.702 79.8717 113.924C79.829 114.026 79.7746 114.123 79.7095 114.214C79.2562 114.846 78.7455 115.436 78.1836 115.977C77.7693 116.43 77.2439 116.771 76.6577 116.967C76.1053 117.114 75.8203 116.911 75.8159 116.34C75.8264 115.967 75.8975 115.598 76.0263 115.247C76.649 113.362 77.4908 111.559 78.2187 109.718C78.7449 108.399 79.2929 107.094 79.8498 105.732C79.1746 105.732 78.5344 105.71 77.9205 105.732C77.4556 105.742 77.0015 105.872 76.6031 106.109C76.2047 106.345 75.8759 106.681 75.6493 107.081C75.5923 107.172 75.5923 107.332 75.4212 107.336C75.2161 106.734 74.8131 106.217 74.2761 105.867C73.7392 105.517 73.099 105.354 72.4572 105.404C70.962 105.404 69.8264 106.156 68.8661 107.202C67.6989 108.549 66.8271 110.119 66.3055 111.814C65.7924 113.336 65.354 114.875 65.468 116.505C65.6127 118.523 67.2219 119.63 69.1994 119.098C70.248 118.785 71.1976 118.212 71.9573 117.434C72.0406 117.352 72.1766 117.049 72.2862 117.434C72.6545 118.701 73.7331 119.237 74.9828 119.245C76.2753 119.226 77.5188 118.754 78.4905 117.914C78.8326 117.642 79.157 117.343 79.499 117.049C79.5779 117.291 79.6349 117.503 79.7095 117.711C79.8619 118.168 80.1596 118.564 80.5584 118.841C80.9572 119.118 81.436 119.262 81.9238 119.25C82.6722 119.252 83.4029 119.025 84.0153 118.601C84.3529 118.342 84.6598 118.087 84.9974 117.832ZM97.1913 78.602H97.0817C97.0817 80.1928 97.0817 81.7778 97.0817 83.3571C97.0817 88.4581 97.0656 93.5619 97.0334 98.6686C97.0334 98.902 97.0948 98.9712 97.3316 98.9669C98.1603 98.9669 98.989 98.9409 99.8177 98.9669C100.164 98.9669 100.221 98.8631 100.221 98.5346C100.221 94.3587 100.243 90.1829 100.252 85.9984C100.252 83.8153 100.252 81.628 100.252 79.445C100.252 78.9219 100.252 78.9262 100.756 79.0127C101.059 79.065 101.365 79.0982 101.672 79.1121C102.07 79.0924 102.466 79.1744 102.821 79.3502C103.177 79.5259 103.481 79.7894 103.703 80.115C103.869 80.3277 103.964 80.586 103.974 80.8542C103.974 86.7635 103.953 92.6685 103.931 98.5778C103.931 98.8804 103.992 98.9755 104.316 98.9626C105.141 98.9366 105.969 98.9409 106.798 98.9626C107.079 98.9626 107.14 98.8847 107.14 98.6167C107.14 92.6685 107.14 86.7203 107.14 80.7721C107.143 80.6777 107.126 80.5838 107.09 80.4961C107.055 80.4084 107.002 80.3288 106.934 80.262C106.351 79.6438 105.794 78.9997 105.18 78.3988C104.922 78.1351 104.965 78.0184 105.246 77.8196C105.79 77.4348 106.303 77.0026 106.842 76.6049C106.934 76.5457 107.008 76.4639 107.057 76.3675C107.106 76.2711 107.129 76.1636 107.123 76.0559C107.123 72.0875 107.123 68.1177 107.123 64.1464C107.127 63.9533 107.062 63.7649 106.938 63.6147C106.097 62.5124 105.255 61.4101 104.435 60.2905C104.286 60.076 104.063 59.9223 103.808 59.8582C101.729 59.3005 99.6511 58.7775 97.5552 58.2976C97.2439 58.2242 97.1562 58.2717 97.1562 58.6089C97.1825 65.2862 97.1942 71.9506 97.1913 78.602ZM85.5017 77.6034H85.3307V98.6816C85.3307 98.9064 85.2824 99.0879 85.6508 99.0836C88.229 99.0836 90.8116 99.0836 93.3898 99.0836C93.6572 99.0836 93.7186 99.0015 93.7186 98.7551C93.7186 97.7997 93.7186 96.8444 93.7449 95.8933C93.7449 95.608 93.6572 95.5518 93.3898 95.5475C92.1138 95.5475 90.8379 95.5129 89.5619 95.4827C89.2331 95.4827 88.799 95.6253 88.5973 95.4135C88.3956 95.2017 88.5403 94.7824 88.5403 94.4538C88.5637 89.0474 88.5827 83.6395 88.5973 78.2302C88.5973 77.9276 88.685 77.8628 88.97 77.8887C90.452 78.0271 91.9297 78.1438 93.4073 78.2864C93.6923 78.3124 93.8458 78.3124 93.8238 77.9579C93.8005 77.0587 93.8005 76.1596 93.8238 75.2605C93.8238 74.9362 93.7055 74.8584 93.4336 74.8282C91.956 74.6898 90.4783 74.5342 89.0007 74.3959C88.7113 74.3699 88.5973 74.3094 88.5973 73.9895C88.6265 69.4938 88.647 64.998 88.6587 60.5023C88.6587 60.2429 88.6937 60.1435 89.0007 60.1954C90.5002 60.4461 92.0086 60.6752 93.5125 60.9216C93.7405 60.9605 93.8721 60.9778 93.8677 60.6709C93.8677 59.7199 93.8677 58.7645 93.894 57.8092C93.894 57.5844 93.8545 57.4849 93.5915 57.4374C91.0527 56.9489 88.5008 56.5426 85.9402 56.1881C85.5017 56.1319 85.4754 56.2313 85.4754 56.5944C85.4929 63.6003 85.5017 70.6033 85.5017 77.6034Z" fill="#FAFAFA"/>
<path d="M79.9463 24.251C82.3929 24.4542 84.0635 26.2266 83.9933 28.509C83.958 29.4998 83.5572 30.4438 82.8662 31.1641C82.1752 31.8843 81.2415 32.3313 80.24 32.4212C79.9945 32.4212 79.9068 32.4947 79.9068 32.7541C79.9068 35.8665 79.9068 38.9789 79.9068 42.0914C79.9068 42.3767 80.0296 42.3853 80.2532 42.4069C88.8051 43.1664 97.2365 44.9162 105.373 47.6203C110.065 49.2398 114.612 51.2425 118.966 53.6074C119.053 53.6469 119.125 53.7135 119.17 53.7971C119.215 53.8806 119.231 53.9765 119.216 54.07C119.295 58.0686 119.259 62.0629 119.277 66.0615C119.333 79.0905 119.356 92.121 119.347 105.153C119.347 112.61 119.277 120.062 119.242 127.519C119.242 127.952 119.202 128.349 119.242 128.764C119.264 129.088 119.132 129.145 118.839 129.136C118.08 129.114 117.321 129.114 116.567 129.136C116.256 129.136 116.168 129.071 116.177 128.756C116.212 126.586 116.236 124.414 116.247 122.241C116.265 117.846 116.276 113.448 116.282 109.048C116.282 95.8631 116.275 82.6799 116.26 69.4982C116.26 64.9765 116.212 60.4505 116.195 55.9288C116.205 55.816 116.177 55.7029 116.117 55.6069C116.056 55.5109 115.964 55.4372 115.857 55.3971C109.886 52.2839 103.556 49.8947 97.0027 48.2817C93.2474 47.3322 89.4414 46.589 85.6025 46.0554C82.8577 45.6664 80.1041 45.3897 77.3374 45.1908C73.4569 44.9099 69.5764 44.8234 65.6916 44.8969C62.2145 44.9661 58.7418 45.1779 55.2867 45.554C47.3166 46.363 39.4684 48.0791 31.8987 50.6679C28.1291 51.9798 24.4648 53.5693 20.9369 55.423C20.8366 55.4636 20.7523 55.5354 20.6969 55.6274C20.6416 55.7195 20.6181 55.8267 20.63 55.9331C20.6037 65.184 20.5555 74.4392 20.5467 83.6943C20.5467 96.1441 20.5467 108.592 20.5467 121.039C20.5467 123.633 20.5862 126.188 20.6256 128.76C20.6256 129.054 20.5774 129.162 20.2442 129.149C19.49 129.123 18.7314 129.123 17.9729 129.149C17.6353 129.149 17.5607 129.058 17.5607 128.743C17.5607 126.034 17.5403 123.323 17.4993 120.611C17.4029 108.853 17.4248 97.0951 17.4423 85.337C17.4423 75.6279 17.5037 65.9188 17.5344 56.2098C17.5344 55.4878 17.5695 54.7703 17.5695 54.0483C17.5602 53.9606 17.5783 53.8722 17.6214 53.7949C17.6645 53.7177 17.7305 53.6553 17.8107 53.6161C24.5885 49.9302 31.8262 47.1341 39.3395 45.2989C43.1213 44.3635 46.9499 43.6233 50.8099 43.0813C52.7216 42.8133 54.6465 42.6188 56.567 42.4113C56.7906 42.3853 56.8652 42.3378 56.8652 42.1C56.8652 38.9876 56.8652 35.8751 56.8652 32.7627C56.8652 32.5077 56.7863 32.4428 56.5363 32.4255C55.5516 32.3416 54.6301 31.9124 53.939 31.2157C53.2479 30.519 52.8332 29.6011 52.77 28.6287C52.7069 27.6562 52.9996 26.6937 53.5949 25.9158C54.1902 25.138 55.0487 24.5964 56.0146 24.3894C56.2733 24.3375 56.5407 24.3072 56.8389 24.264C55.9614 22.6638 55.4409 20.8972 55.3124 19.0826C55.1838 17.2679 55.4501 15.4471 56.0935 13.7422C57.0304 11.1319 58.8153 8.89966 61.171 7.39198C63.6021 5.80627 66.5003 5.06549 69.4067 5.28694C72.313 5.50839 75.0614 6.67943 77.2165 8.6146C79.3717 10.5498 80.8104 13.1384 81.3048 15.9707C81.7992 18.803 81.3212 21.7169 79.9463 24.251ZM65.3057 41.8234H68.5022C68.6419 41.8201 68.7794 41.7877 68.9056 41.7283L76.6051 38.3781C76.6831 38.357 76.7509 38.3094 76.7967 38.2437C76.8424 38.1781 76.8631 38.0985 76.855 38.0193C76.855 36.2512 76.855 34.4789 76.855 32.7108C76.855 32.4644 76.7761 32.4126 76.5437 32.4126C75.6887 32.4126 74.8337 32.4126 73.9743 32.4126C73.8227 32.4153 73.6734 32.4492 73.5358 32.512C69.0956 34.4486 64.6553 36.3852 60.2151 38.3219C60.1223 38.3472 60.042 38.4052 59.9895 38.4848C59.937 38.5644 59.9159 38.6602 59.9301 38.7542C59.9301 39.7614 59.952 40.7729 59.9301 41.7801C59.9301 42.1087 60.0485 42.1216 60.3159 42.1C61.9734 41.9703 63.6396 41.9314 65.3057 41.8234ZM68.375 30.0004H73.1982C75.316 30.0004 77.4338 30.0004 79.5516 30.0004C79.8398 30.0179 80.1276 29.961 80.3866 29.8354C80.6457 29.7099 80.8671 29.5199 81.0291 29.2843C81.1911 29.0487 81.288 28.7756 81.3103 28.4918C81.3326 28.2081 81.2796 27.9235 81.1564 27.6661C80.81 26.9182 80.1655 26.6761 79.3719 26.6761H57.4089C57.2133 26.6759 57.0181 26.6932 56.8257 26.728C56.5815 26.7702 56.3501 26.8663 56.1489 27.0091C55.9476 27.152 55.7817 27.3378 55.6637 27.5528C55.5456 27.7677 55.4783 28.0062 55.467 28.2504C55.4556 28.4946 55.5004 28.7382 55.598 28.9629C55.733 29.2928 55.9712 29.5717 56.2779 29.759C56.5846 29.9463 56.9439 30.0324 57.3037 30.0047L68.375 30.0004Z" fill="#FAFAFA"/>
<path d="M39.4228 158.834H97.3886C96.5117 159.465 95.7093 160.049 94.9025 160.602C89.0653 164.527 82.692 167.614 75.9737 169.771C73.5651 170.569 71.1301 171.275 68.6688 171.889C68.5085 171.938 68.3381 171.947 68.1733 171.915C60.5878 169.987 53.2653 167.354 46.4734 163.472C44.0216 162.082 41.6662 160.532 39.4228 158.834Z" fill="#FAFAFA"/>
<path d="M115.186 143.432C115.266 143.268 115.295 143.084 115.269 142.904C115.269 141.728 115.269 140.553 115.269 139.377C115.269 139.105 115.322 138.988 115.638 138.988C116.642 138.988 116.642 138.988 116.642 139.982C116.642 142.805 116.642 145.623 116.642 148.446C116.642 148.788 116.554 148.878 116.203 148.878C115.265 148.857 115.243 148.878 115.274 147.94C115.296 147.25 115.19 146.562 114.962 145.909C114.603 144.871 114.283 143.816 113.879 142.775C113.879 142.913 113.879 143.051 113.879 143.207C113.879 144.962 113.879 146.717 113.879 148.472C113.879 148.792 113.809 148.904 113.467 148.904C112.503 148.904 112.503 148.904 112.503 147.953C112.503 145.135 112.503 142.312 112.503 139.494C112.503 139.122 112.586 138.992 112.985 139.005C113.862 139.035 113.862 139.005 114.116 139.844C114.441 140.998 114.805 142.169 115.186 143.432Z" fill="#FAFAFA"/>
<path d="M47.0698 142.896C47.0698 144.828 47.0698 146.765 47.0698 148.701C47.0698 149.043 47.0172 149.185 46.6313 149.172C45.7193 149.142 45.7193 149.172 45.7193 148.26C45.7193 145.368 45.7193 142.476 45.7193 139.584C45.7193 139.247 45.7982 139.152 46.1578 139.152C47.0873 139.174 47.0873 139.152 47.3504 140.017L48.3369 143.267C48.3641 143.392 48.4319 143.504 48.5299 143.587V142.243C48.5299 141.331 48.5299 140.419 48.5299 139.502C48.5299 139.239 48.6 139.152 48.885 139.152C49.9242 139.152 49.9242 139.152 49.9242 140.151C49.9242 143.012 49.9242 145.878 49.9242 148.74C49.9242 149.051 49.8628 149.172 49.512 149.172C48.5343 149.172 48.5123 149.172 48.5386 148.226C48.5639 147.508 48.4524 146.793 48.2098 146.116C47.8371 145.048 47.517 143.955 47.175 142.887L47.0698 142.896Z" fill="#FAFAFA"/>
<path d="M94.1834 143.518C94.1834 142.135 94.1834 140.752 94.1834 139.368C94.1834 139.087 94.2492 138.988 94.5517 138.992C95.5383 138.992 95.5383 138.992 95.5383 139.96C95.5383 142.796 95.5383 145.632 95.5383 148.468C95.5383 148.783 95.4681 148.9 95.1261 148.9C94.1878 148.9 94.1658 148.9 94.1922 147.971C94.2128 147.296 94.1057 146.623 93.8765 145.986C93.5038 144.91 93.1793 143.825 92.7584 142.731V143.086C92.7584 144.884 92.7584 146.682 92.7584 148.481C92.7584 148.788 92.6882 148.883 92.3681 148.878C91.4035 148.878 91.4035 148.878 91.4035 147.932C91.4035 145.109 91.4035 142.286 91.4035 139.468C91.4035 139.109 91.4649 138.962 91.8726 138.979C92.7496 139.014 92.7496 138.979 93.0039 139.844L94.0168 143.216C94.0518 143.328 94.0913 143.44 94.1264 143.557L94.1834 143.518Z" fill="#FAFAFA"/>
<path d="M17.7756 144.028C18.6525 144.24 18.9156 144.841 18.8586 145.675C18.8104 146.337 18.8586 147.002 18.8586 147.664C18.8586 148.619 18.4201 149.077 17.473 149.129C16.5961 149.177 15.7192 149.129 14.8422 149.164C14.6274 149.164 14.5572 149.086 14.5572 148.874C14.5572 145.724 14.5572 142.573 14.5572 139.42C14.5572 139.295 14.5572 139.156 14.7326 139.161C15.5994 139.12 16.468 139.136 17.3327 139.208C17.7129 139.243 18.0638 139.424 18.3099 139.712C18.5559 140 18.6774 140.372 18.6481 140.747C18.6481 141.439 18.6481 142.13 18.6481 142.822C18.683 143.058 18.6266 143.298 18.4902 143.495C18.3537 143.692 18.1472 143.832 17.9115 143.886C17.8802 143.899 17.8519 143.918 17.8286 143.943C17.8052 143.968 17.7872 143.997 17.7756 144.028ZM17.4862 146.375V145.593C17.4862 144.785 17.324 144.62 16.5216 144.59C16.4207 144.59 16.3242 144.59 16.2278 144.59C15.9866 144.569 15.9165 144.677 15.9209 144.906C15.9209 145.606 15.9209 146.311 15.9209 147.011C15.9209 148.053 15.9209 148.053 16.9732 147.945C17.0442 147.948 17.1151 147.937 17.181 147.91C17.247 147.884 17.3064 147.844 17.3552 147.793C17.404 147.742 17.4409 147.682 17.4636 147.615C17.4862 147.549 17.4939 147.478 17.4862 147.409C17.4818 147.067 17.4862 146.721 17.4862 146.375ZM15.9252 141.867C15.9252 142.269 15.9252 142.667 15.9252 143.069C15.9252 143.172 15.8814 143.293 16.0129 143.362C16.4777 143.622 17.2933 143.246 17.3283 142.731C17.359 142.152 17.3546 141.569 17.3283 141.002C17.3064 140.57 17.1047 140.41 16.6399 140.406C16.5435 140.406 16.4426 140.406 16.3462 140.406C16.0305 140.362 15.8858 140.458 15.9077 140.803C15.9296 141.149 15.9252 141.508 15.9252 141.867Z" fill="#FAFAFA"/>
<path d="M82.656 143.95C82.656 142.857 82.656 141.767 82.656 140.674C82.656 139.58 83.2041 138.996 84.3617 139.001C84.9072 138.964 85.4551 138.981 85.9972 139.053C86.2906 139.096 86.5604 139.237 86.7626 139.451C86.9648 139.666 87.0875 139.941 87.1109 140.233C87.1424 140.479 87.1585 140.728 87.1591 140.976C87.1591 142.965 87.1591 144.956 87.1591 146.95C87.162 147.212 87.1429 147.474 87.1021 147.733C87.0617 148.038 86.9125 148.319 86.6811 148.526C86.4498 148.732 86.1514 148.851 85.8393 148.861C85.3219 148.887 84.8045 148.861 84.2871 148.861C83.1866 148.861 82.6604 148.334 82.656 147.257C82.6516 146.181 82.656 145.057 82.656 143.95ZM84.0021 143.924V146.911C84.0021 147.556 84.1556 147.69 84.8791 147.694C85.6815 147.694 85.7911 147.607 85.7911 146.924C85.7911 145.057 85.7911 143.189 85.7911 141.305C85.7911 140.198 85.7911 140.185 84.673 140.207C84.16 140.207 84.0021 140.367 83.9977 140.877C83.9977 141.906 84.0021 142.913 84.0021 143.924Z" fill="#FAFAFA"/>
<path d="M27.4526 143.548C27.4526 144.78 27.4526 146.012 27.4526 147.24C27.4685 147.601 27.4103 147.961 27.2816 148.299C27.1938 148.519 27.0469 148.71 26.8569 148.853C26.6668 148.997 26.4407 149.086 26.203 149.112C25.6884 149.179 25.1681 149.192 24.6508 149.151C23.5985 149.082 23.0811 148.55 23.0723 147.499C23.0723 145.481 23.0723 143.462 23.0723 141.447C23.0723 140.795 23.0723 140.151 23.0723 139.494C23.0723 139.26 23.1118 139.156 23.3924 139.152C24.4272 139.152 24.4272 139.126 24.4272 140.146C24.4272 142.452 24.4272 144.757 24.4272 147.063C24.418 147.228 24.456 147.393 24.537 147.538C24.6179 147.683 24.7385 147.803 24.8851 147.884C25.0316 147.965 25.1983 148.004 25.3661 147.996C25.534 147.989 25.6963 147.935 25.8347 147.841C26.1065 147.685 26.0977 147.409 26.0977 147.141C26.0977 144.655 26.0977 142.165 26.0977 139.675C26.0977 139.243 26.1811 139.105 26.6371 139.13C27.457 139.169 27.4614 139.13 27.4614 139.965L27.4526 143.548Z" fill="#FAFAFA"/>
<path d="M64.2447 146.496C64.499 145.558 64.021 145.053 63.2011 144.711C62.8372 144.535 62.483 144.34 62.14 144.128C61.9502 144.035 61.7916 143.89 61.6834 143.711C61.5752 143.531 61.5221 143.325 61.5305 143.116C61.5305 142.299 61.5305 141.482 61.5305 140.669C61.5147 140.467 61.5434 140.264 61.6147 140.075C61.6861 139.885 61.7984 139.712 61.9438 139.569C62.0893 139.426 62.2645 139.316 62.4573 139.246C62.6501 139.176 62.856 139.149 63.0608 139.165C63.5494 139.123 64.0414 139.142 64.5253 139.221C64.7802 139.274 65.0134 139.401 65.1953 139.585C65.3772 139.769 65.4996 140.002 65.5469 140.254C65.6294 140.703 65.6574 141.16 65.6302 141.616C65.6302 141.785 65.5688 141.88 65.3847 141.867H65.3321C64.9944 141.867 64.5954 141.962 64.3411 141.819C64.0868 141.676 64.2578 141.236 64.2271 140.929C64.2317 140.853 64.2192 140.777 64.1904 140.706C64.1617 140.636 64.1174 140.572 64.0608 140.52C64.0042 140.469 63.9366 140.43 63.863 140.407C63.7894 140.384 63.7116 140.378 63.6352 140.388C63.1134 140.388 62.8942 140.496 62.8766 140.89C62.8459 141.482 62.8766 142.079 62.8766 142.675C62.8846 142.786 62.9242 142.892 62.991 142.982C63.0577 143.071 63.1488 143.14 63.2537 143.181L65.0471 144.171C65.2126 144.249 65.3525 144.372 65.4509 144.525C65.5493 144.677 65.6023 144.854 65.6039 145.035C65.6638 146 65.6492 146.969 65.5601 147.932C65.5406 148.247 65.4026 148.543 65.1731 148.763C64.9435 148.983 64.6391 149.11 64.3192 149.12C63.8606 149.177 63.3966 149.177 62.938 149.12C62.5677 149.117 62.2135 148.971 61.9512 148.713C61.6889 148.455 61.5395 148.106 61.5349 147.741C61.4121 146.782 61.4121 146.803 62.3768 146.773C62.7846 146.773 62.9029 146.868 62.881 147.27C62.8547 147.746 63.0871 147.927 63.587 147.927C64.0868 147.927 64.2227 147.772 64.2359 147.27C64.249 147.02 64.2447 146.76 64.2447 146.496Z" fill="#FAFAFA"/>
<path d="M72.4133 146.488C72.672 145.546 72.1853 145.044 71.3654 144.707C71.0015 144.531 70.6473 144.336 70.3043 144.123C70.1156 144.029 69.9584 143.883 69.8512 143.703C69.7439 143.523 69.6912 143.316 69.6992 143.107C69.6992 142.29 69.6992 141.473 69.6992 140.661C69.6867 140.459 69.7183 140.256 69.7917 140.067C69.8652 139.878 69.9789 139.707 70.1251 139.565C70.2713 139.423 70.4467 139.313 70.6395 139.243C70.8322 139.174 71.0379 139.146 71.2426 139.161C71.589 139.161 71.9442 139.161 72.2906 139.161C72.6537 139.139 73.0107 139.261 73.2834 139.498C73.5562 139.735 73.7226 140.069 73.7463 140.427C73.7756 140.562 73.7918 140.7 73.7945 140.838C73.7595 142.105 74.0664 141.832 72.7071 141.871C72.4923 141.871 72.4002 141.802 72.409 141.586C72.4177 141.37 72.409 141.115 72.409 140.881C72.417 140.818 72.4105 140.753 72.3901 140.692C72.3697 140.631 72.3358 140.576 72.2909 140.529C72.246 140.483 72.1912 140.447 72.1304 140.424C72.0697 140.401 72.0046 140.392 71.9398 140.397C71.6153 140.397 71.1944 140.289 71.1111 140.743C71.008 141.426 70.9992 142.12 71.0848 142.805C71.0848 143.051 71.361 143.142 71.5496 143.237C72.1196 143.561 72.694 143.873 73.2684 144.188C73.4158 144.256 73.541 144.364 73.6301 144.498C73.7191 144.632 73.7685 144.789 73.7726 144.949C73.8487 145.941 73.8369 146.938 73.7375 147.927C73.7179 148.243 73.5791 148.539 73.3486 148.758C73.118 148.978 72.8125 149.104 72.4923 149.112C72.0749 149.164 71.6531 149.172 71.2339 149.138C71.0395 149.148 70.8451 149.119 70.6623 149.053C70.4795 148.987 70.3121 148.886 70.1701 148.754C70.028 148.623 69.9143 148.465 69.8356 148.29C69.757 148.114 69.7151 147.925 69.7124 147.733C69.5764 146.816 69.6027 146.803 70.5191 146.773C70.9182 146.773 71.0979 146.829 71.0629 147.279C71.0278 147.729 71.2733 147.927 71.7776 147.927C72.2818 147.927 72.4046 147.767 72.4133 147.262C72.4177 147.011 72.4133 146.747 72.4133 146.488Z" fill="#FAFAFA"/>
<path d="M33.0563 141.789C32.7669 142.766 33.315 143.241 34.1393 143.583C34.5313 143.767 34.9106 143.977 35.2749 144.21C35.4313 144.294 35.5606 144.419 35.6482 144.572C35.7358 144.725 35.7781 144.899 35.7704 145.074C35.7704 145.939 35.7704 146.803 35.7704 147.668C35.7861 147.855 35.7625 148.043 35.7009 148.22C35.6394 148.397 35.5413 148.56 35.4127 148.698C35.2842 148.836 35.1281 148.947 34.9542 149.022C34.7803 149.098 34.5924 149.137 34.4024 149.138C33.9654 149.189 33.5239 149.189 33.087 149.138C32.7319 149.139 32.3901 149.005 32.1333 148.763C31.8766 148.521 31.7249 148.191 31.7102 147.841C31.5348 146.803 31.5348 146.821 32.5564 146.795C32.9335 146.795 33.0694 146.881 33.0475 147.27C33.0212 147.78 33.2097 147.94 33.714 147.949C34.2182 147.958 34.3936 147.78 34.398 147.275C34.4024 146.769 34.398 146.276 34.398 145.779C34.4098 145.641 34.3787 145.503 34.309 145.384C34.2393 145.264 34.1342 145.168 34.0077 145.109C33.429 144.793 32.8633 144.465 32.2889 144.149C32.1089 144.069 31.9552 143.94 31.8452 143.778C31.7352 143.617 31.6732 143.428 31.6663 143.233C31.5983 142.281 31.6115 141.325 31.7058 140.375C31.7273 140.063 31.8656 139.769 32.094 139.551C32.3224 139.333 32.6246 139.206 32.9423 139.195C33.4573 139.126 33.9794 139.126 34.4944 139.195C34.8499 139.225 35.1801 139.388 35.4168 139.651C35.6535 139.915 35.7785 140.257 35.766 140.609C35.7879 140.937 35.766 141.27 35.766 141.603C35.766 141.936 35.5161 141.919 35.3275 141.867C35.0206 141.763 34.5471 142.182 34.398 141.612C34.3824 141.391 34.3824 141.17 34.398 140.95C34.3629 140.518 34.1744 140.388 33.6394 140.401C33.201 140.401 33.0606 140.548 33.0431 140.972C33.0475 141.24 33.0563 141.517 33.0563 141.789Z" fill="#FAFAFA"/>
<path d="M54.2256 144.162C54.2256 142.628 54.2256 141.093 54.2256 139.558C54.2256 139.221 54.3265 139.126 54.6641 139.152C55.541 139.169 56.4092 139.169 57.2686 139.152C57.5536 139.152 57.6194 139.238 57.6237 139.506C57.6237 140.371 57.6237 140.371 56.7249 140.371C56.3741 140.371 55.9313 140.224 55.7076 140.436C55.484 140.648 55.6462 141.093 55.6375 141.434C55.6375 141.983 55.6375 142.537 55.6375 143.09C55.6375 143.311 55.712 143.384 55.9269 143.375C56.3346 143.375 56.7424 143.375 57.1502 143.375C57.3431 143.375 57.4089 143.432 57.4264 143.63C57.4922 144.607 57.501 144.607 56.5495 144.607C55.6726 144.607 55.6726 144.607 55.6726 145.494C55.6726 146.155 55.6989 146.821 55.6726 147.482C55.6726 147.867 55.7866 147.958 56.1461 147.914C56.5057 147.871 56.9617 147.914 57.3651 147.914C57.5711 147.914 57.6588 147.953 57.672 148.182C57.7158 149.138 57.7246 149.133 56.7468 149.133C56.0496 149.133 55.3481 149.133 54.6465 149.133C54.3703 149.133 54.287 149.047 54.287 148.775C54.23 147.262 54.2256 145.714 54.2256 144.162Z" fill="#FAFAFA"/>
<path d="M120.948 143.951C120.948 142.429 120.948 140.925 120.948 139.386C120.948 139.083 121.018 138.984 121.342 138.992C122.219 139.014 123.096 138.992 123.947 138.992C124.179 138.992 124.262 139.057 124.267 139.295C124.298 140.22 124.306 140.216 123.368 140.224C123.022 140.224 122.566 140.069 122.364 140.302C122.162 140.535 122.307 140.933 122.302 141.262C122.302 141.789 122.302 142.312 122.302 142.84C122.302 143.116 122.364 143.237 122.671 143.216C123.048 143.19 123.429 143.216 123.806 143.216C124.004 143.216 124.065 143.28 124.078 143.479C124.131 144.404 124.14 144.404 123.201 144.404C122.263 144.404 122.294 144.404 122.294 145.317C122.294 145.965 122.32 146.613 122.294 147.266C122.272 147.655 122.416 147.733 122.767 147.698C123.118 147.664 123.557 147.698 123.947 147.698C124.214 147.698 124.271 147.789 124.271 148.036C124.271 148.9 124.293 148.9 123.429 148.9C122.728 148.9 122.026 148.9 121.325 148.9C121.027 148.9 120.952 148.818 120.952 148.528C120.956 146.976 120.948 145.472 120.948 143.951Z" fill="#FAFAFA"/>
<path d="M99.8265 143.95C99.8265 142.429 99.8265 140.924 99.8265 139.39C99.8265 139.07 99.923 139.001 100.23 139.005C101.181 139.005 101.181 139.005 101.181 139.956C101.181 142.403 101.181 144.845 101.181 147.305C101.181 147.612 101.238 147.767 101.589 147.737C101.84 147.711 102.093 147.711 102.343 147.737C102.571 147.737 102.922 147.612 102.997 147.824C103.065 148.147 103.074 148.479 103.023 148.805C103.023 148.943 102.883 148.913 102.791 148.913C101.914 148.913 100.997 148.913 100.103 148.913C99.809 148.913 99.8396 148.749 99.8396 148.567L99.8265 143.95Z" fill="#FAFAFA"/>
<path d="M108.201 143.92C108.201 145.442 108.201 146.946 108.201 148.481C108.201 148.775 108.149 148.892 107.815 148.887C106.829 148.887 106.829 148.887 106.829 147.915C106.829 145.096 106.829 142.295 106.829 139.459C106.829 139.113 106.89 138.975 107.267 138.988C108.188 139.018 108.188 138.988 108.188 139.9L108.201 143.92Z" fill="#FAFAFA"/>
<path d="M39.9885 144.18C39.9885 142.632 39.9885 141.084 39.9885 139.537C39.9885 139.221 40.0805 139.148 40.3875 139.152C41.3521 139.152 41.3521 139.152 41.3521 140.094C41.3521 142.982 41.3521 145.865 41.3521 148.74C41.3521 149.069 41.26 149.172 40.9136 149.172C39.9709 149.172 39.9709 149.172 39.9709 148.243L39.9885 144.18Z" fill="#FAFAFA"/>
<path d="M74.2505 85.8256C74.2505 82.8817 74.2505 79.9379 74.2505 76.994C74.2505 76.605 74.3645 76.5358 74.7153 76.5617C75.43 76.605 76.1447 76.6179 76.8594 76.6395C76.9279 76.6332 76.9969 76.6428 77.0608 76.6676C77.1248 76.6923 77.182 76.7316 77.2278 76.7822C77.5215 77.115 77.8197 77.4479 78.131 77.7635C78.2845 77.9191 78.2494 78.092 78.2494 78.2692C78.2494 82.7189 78.2348 87.1685 78.2055 91.6182V92.0764C78.2055 93.6672 78.2055 93.6629 77.1751 94.8732C77.1212 94.9426 77.0502 94.9972 76.9689 95.032C76.8875 95.0668 76.7986 95.0806 76.7104 95.0721C76.0088 95.0721 75.3073 95.0462 74.6057 95.0721C74.3075 95.0721 74.2418 94.99 74.2418 94.7047C74.2418 91.7478 74.2418 88.7867 74.2418 85.8299L74.2505 85.8256Z" fill="#FAFAFA"/>
<path d="M74.29 65.7071C74.29 63.3858 74.29 61.0601 74.29 58.7387C74.29 58.3886 74.3645 58.2546 74.7548 58.3064C75.3774 58.3799 76.0088 58.4059 76.6402 58.4318C76.8311 58.4526 77.0098 58.5346 77.1488 58.6652C78.0959 59.3396 78.3458 60.2128 78.3151 61.3627C78.2318 64.7907 78.2713 68.223 78.2801 71.651C78.2782 71.9608 78.1612 72.2592 77.9512 72.4896C77.7501 72.7769 77.4683 72.9999 77.1403 73.1312C76.8123 73.2626 76.4525 73.2965 76.1053 73.2288C75.6051 73.1668 75.1008 73.1437 74.5969 73.1597C74.3075 73.1597 74.2593 73.0559 74.2593 72.8009C74.2593 70.4363 74.2593 68.0717 74.2593 65.7071H74.29Z" fill="#FAFAFA"/>
<path d="M60.0704 66.0702C60.0704 63.8569 60.0704 61.6479 60.0704 59.4346C60.0704 59.1536 60.1055 59.0023 60.4431 59.0023C61.1841 59.0023 61.9251 58.9375 62.6662 58.9029C62.7212 58.8924 62.7778 58.8924 62.8328 58.9029C63.2991 59.2801 63.6511 59.7767 63.85 60.3381C63.85 63.877 63.8603 67.416 63.8807 70.955C63.8843 71.0344 63.8713 71.1137 63.8427 71.1881C63.814 71.2624 63.7703 71.3302 63.7141 71.3872C63.2756 71.8584 62.8109 72.3339 62.3636 72.8095C62.3282 72.8606 62.2822 72.9037 62.2284 72.9357C62.1747 72.9678 62.1147 72.9881 62.0523 72.9953C61.4779 72.9953 60.9035 73.0256 60.3291 73.0559C60.031 73.0559 60.1143 72.87 60.1143 72.723V66.0702H60.0704Z" fill="#FAFAFA"/>
<path d="M32.8019 87.209C32.8019 84.6153 32.8019 81.9827 32.8019 79.3717C32.8019 79.0561 32.9028 78.9394 33.2053 78.9048C33.6438 78.8616 34.0823 78.8054 34.4944 78.7319C34.6517 78.7 34.8145 78.7078 34.9679 78.7547C35.1212 78.8016 35.26 78.8859 35.3714 78.9999C35.8099 79.4062 36.4149 79.6959 36.6429 80.18C36.8709 80.6642 36.7175 81.3169 36.7219 81.9092C36.7219 85.8473 36.7219 89.7897 36.7789 93.7278C36.7691 94.1064 36.6265 94.47 36.3755 94.7566C36.2297 94.9952 36.0175 95.1876 35.7641 95.311C35.5108 95.4343 35.2269 95.4835 34.9461 95.4526C34.3609 95.4271 33.7747 95.4444 33.1922 95.5045C32.894 95.5045 32.8195 95.4396 32.8195 95.1457C32.8195 92.5044 32.8195 89.8632 32.8195 87.2219L32.8019 87.209Z" fill="#FAFAFA"/>
<path d="M32.8063 69.2604C32.8063 67.2416 32.8063 65.2229 32.8063 63.2084C32.8063 62.8323 32.8721 62.6465 33.293 62.5816C33.8405 62.4944 34.3801 62.3643 34.9066 62.1926C35.07 62.1489 35.2411 62.1403 35.4082 62.1671C35.5753 62.1939 35.7347 62.2557 35.8756 62.3482C36.1491 62.4656 36.3759 62.6684 36.5209 62.9255C36.6659 63.1825 36.7211 63.4794 36.678 63.7704C36.6517 66.952 36.678 70.1293 36.7175 73.3109C36.722 73.433 36.701 73.5548 36.6557 73.6686C36.6105 73.7824 36.5419 73.8857 36.4544 73.9723C36.0159 74.4392 35.5775 74.9233 35.1785 75.4031C35.1103 75.5079 35.0059 75.5846 34.8847 75.6193C34.2664 75.7187 33.6482 75.8181 33.0256 75.9089C32.7142 75.9522 32.8326 75.6971 32.8326 75.5717C32.8326 73.4651 32.8326 71.3627 32.8326 69.2647L32.8063 69.2604Z" fill="#FAFAFA"/>
<path d="M100.331 69.109C100.331 66.9822 100.331 64.8554 100.331 62.7242C100.331 62.3957 100.392 62.3308 100.721 62.4346C101.166 62.5999 101.63 62.7088 102.102 62.7588C103.159 62.815 103.461 63.6925 103.979 64.3366C104.024 64.4371 104.039 64.548 104.023 64.6565C104.023 68.1523 104.014 71.648 103.996 75.1437C104.008 75.2458 103.988 75.3489 103.94 75.4398C103.891 75.5307 103.816 75.6053 103.725 75.6538C103.387 75.8397 103.185 76.2893 102.716 76.2288C101.966 76.1337 101.225 76.004 100.475 75.9045C100.199 75.87 100.283 75.6754 100.283 75.5328C100.283 74.1235 100.283 72.7143 100.283 71.305C100.283 70.5745 100.283 69.8396 100.283 69.109H100.331Z" fill="#FAFAFA"/>
<path d="M48.144 68.0457C48.2273 69.1609 48.315 70.2719 48.3896 71.3829C48.5562 73.7403 48.7199 76.0962 48.8806 78.4507C48.999 80.1799 49.113 81.909 49.2402 83.6597C49.2402 83.9321 49.2095 84.0445 48.8938 84.0445C48.3501 84.0445 47.802 84.0834 47.2583 84.1223C47.0435 84.1223 47.0128 84.0704 47.0259 83.8672C47.2627 80.5214 47.4922 77.174 47.7143 73.8253C47.8429 71.9031 47.9686 69.978 48.0914 68.05L48.144 68.0457Z" fill="#FAFAFA"/>
</svg>
