<svg width="24" height="26" viewBox="0 0 24 26" fill="none" xmlns="http://www.w3.org/2000/svg">
<path d="M21.3969 8.97797L7.80924 1.18544C7.07399 0.76087 6.23947 0.538458 5.39045 0.54079C4.54142 0.543122 3.70814 0.770115 2.97524 1.19871C2.24233 1.62731 1.63591 2.24225 1.21758 2.98106C0.799248 3.71988 0.583901 4.55624 0.593413 5.40522V21.0465C0.593413 22.3224 1.10024 23.546 2.00239 24.4481C2.90454 25.3503 4.12813 25.8571 5.40396 25.8571C6.24853 25.8557 7.07793 25.6325 7.80924 25.2101L21.3969 17.4175C22.127 16.995 22.7332 16.3879 23.1546 15.6571C23.576 14.9263 23.7978 14.0976 23.7978 13.254C23.7978 12.4104 23.576 11.5817 23.1546 10.8509C22.7332 10.1202 22.127 9.51305 21.3969 9.09049V8.97797ZM19.9903 14.8716L6.40264 22.7766C6.0981 22.9492 5.75402 23.04 5.40396 23.04C5.05391 23.04 4.70983 22.9492 4.40528 22.7766C4.10159 22.6013 3.84942 22.3491 3.67411 22.0454C3.4988 21.7417 3.40654 21.3972 3.4066 21.0465V5.34895C3.40654 4.99829 3.4988 4.65378 3.67411 4.35008C3.84942 4.04638 4.10159 3.79418 4.40528 3.61884C4.71108 3.44887 5.05414 3.35706 5.40396 3.35159C5.75355 3.35877 6.0962 3.45046 6.40264 3.61884L19.9903 11.4676C20.2941 11.6429 20.5464 11.8951 20.7218 12.1988C20.8973 12.5025 20.9896 12.847 20.9896 13.1977C20.9896 13.5485 20.8973 13.893 20.7218 14.1967C20.5464 14.5004 20.2941 14.7526 19.9903 14.9279V14.8716Z" fill="white"/>
</svg>
