<svg width="64" height="85" viewBox="0 0 64 85" fill="none" xmlns="http://www.w3.org/2000/svg">
<path d="M61.1036 61.4596C61.1016 61.4273 61.1016 61.3949 61.1036 61.3627C61.12 61.2476 61.0647 61.2153 60.9582 61.2254C60.9057 61.2284 60.853 61.2284 60.8005 61.2254H2.79388V73.2459H3.07246C22.3363 73.2459 41.6001 73.2459 60.864 73.2459C61.0545 73.2459 61.1139 73.2116 61.1118 73.0097C61.1036 69.1563 61.1009 65.3063 61.1036 61.4596Z" fill="#2A9E98"/>
<path d="M60.4257 74.1828C59.891 74.5865 59.3769 74.9419 58.8525 75.279C57.2099 76.3397 55.4491 77.2109 53.6047 77.8754C53.3999 77.9501 53.3999 77.95 53.3999 77.7381C53.3999 76.6075 53.3999 75.4789 53.3999 74.3483C53.3999 74.2211 53.4245 74.1707 53.5679 74.1707C55.8156 74.1707 58.0612 74.1707 60.3048 74.1707L60.4257 74.1828Z" fill="#2A9E98"/>
<path d="M3.48212 74.1726H3.68695C5.89505 74.1726 8.1011 74.1726 10.3071 74.1726C10.4853 74.1726 10.512 74.2231 10.512 74.3886C10.512 75.5172 10.512 76.6478 10.512 77.7764C10.512 77.9298 10.4751 77.9459 10.3379 77.8975C7.91562 77.0205 5.63792 75.7959 3.57839 74.2635C3.5447 74.2349 3.51256 74.2045 3.48212 74.1726Z" fill="#2A9E98"/>
<path d="M39.7068 55.0314C39.5491 55.1505 39.4057 55.2696 39.2521 55.3726C38.966 55.5707 38.6247 55.6765 38.275 55.6754C38.0472 55.681 37.8235 55.6142 37.6372 55.4847C37.4509 55.3553 37.3119 55.1701 37.2406 54.9567C37.2058 54.8598 37.1792 54.7548 37.1423 54.6478C36.9825 54.7851 36.831 54.9244 36.6712 55.0516C36.2173 55.4441 35.6364 55.6646 35.0325 55.6734C34.4488 55.6734 33.9449 55.419 33.7728 54.8275C33.7216 54.6539 33.6581 54.7952 33.6192 54.8275C33.2643 55.191 32.8207 55.4586 32.3308 55.6048C31.4049 55.8531 30.6553 55.3363 30.5877 54.3934C30.5344 53.6323 30.7392 52.9136 30.9789 52.2029C31.2226 51.4112 31.6299 50.6778 32.1751 50.0487C32.6217 49.5602 33.1542 49.219 33.8527 49.2089C34.1525 49.1858 34.4516 49.262 34.7024 49.4255C34.9533 49.589 35.1415 49.8304 35.2374 50.1113C35.3173 50.1113 35.3173 50.0346 35.3439 49.9922C35.4498 49.8052 35.6034 49.6488 35.7895 49.5383C35.9756 49.4278 36.1877 49.3672 36.4049 49.3623C36.6978 49.3502 36.9907 49.3623 37.3062 49.3623C37.046 49.9983 36.79 50.608 36.5442 51.2237C36.198 52.0838 35.8048 52.9257 35.52 53.8059C35.4598 53.9699 35.4266 54.1424 35.4217 54.3167C35.4217 54.5832 35.5569 54.6781 35.815 54.6094C36.0888 54.518 36.3343 54.3588 36.5278 54.1471C36.7903 53.8944 37.0289 53.6187 37.2406 53.3234C37.271 53.2813 37.2965 53.2359 37.3164 53.1881C37.6708 52.1585 38.1358 51.1692 38.5454 50.1598C38.6338 49.9121 38.8014 49.6994 39.0231 49.5537C39.2448 49.4081 39.5084 49.3374 39.7744 49.3522H40.5937C40.4299 49.756 40.2742 50.1194 40.1226 50.4949C39.6966 51.5508 39.2214 52.5885 38.8342 53.6626C38.7582 53.8477 38.7219 54.0464 38.7277 54.246C38.7235 54.2773 38.7267 54.309 38.7371 54.3388C38.7476 54.3686 38.7649 54.3955 38.7878 54.4175C38.8107 54.4394 38.8385 54.4558 38.869 54.4653C38.8994 54.4748 38.9317 54.4772 38.9633 54.4722C39.0715 54.4675 39.1778 54.4418 39.2759 54.3964C39.374 54.351 39.462 54.2868 39.5348 54.2077C39.9322 53.8146 40.2702 53.3672 40.5384 52.8793C40.9829 52.1605 41.2226 51.3509 41.5626 50.5898C41.6302 50.4424 41.6855 50.291 41.7531 50.1457C41.8477 49.9031 42.0173 49.696 42.2378 49.5537C42.4584 49.4113 42.7187 49.3408 42.9821 49.3522H43.785L41.4172 55.0476C41.5319 55.0799 41.5954 55.0112 41.663 54.9749C42.765 54.3833 43.5597 53.491 44.1988 52.4472C44.3238 52.2453 44.4241 52.2271 44.6085 52.3927C44.7079 52.484 44.7688 52.6089 44.779 52.7424C44.7893 52.876 44.7481 53.0084 44.6638 53.1134C44.0265 54.1349 43.1436 54.9857 42.0931 55.5906C41.7879 55.7643 41.4786 55.9217 41.1529 56.0691C41.0822 56.0987 41.0188 56.1431 40.9671 56.1992C40.9155 56.2554 40.8769 56.3219 40.8539 56.3942C40.6603 56.9621 40.3968 57.5045 40.0694 58.0093C39.6925 58.5685 39.2255 59.0187 38.527 59.1439C38.0313 59.2327 37.5417 59.2166 37.1198 58.9037C36.8998 58.7274 36.7484 58.4815 36.6912 58.2077C36.6341 57.934 36.6748 57.6492 36.8064 57.4016C37.0203 56.99 37.3679 56.661 37.7937 56.4668C38.2033 56.265 38.6274 56.0631 39.0555 55.8935C39.1926 55.853 39.3165 55.7778 39.415 55.6755C39.5134 55.5731 39.583 55.4471 39.6167 55.31C39.658 55.2211 39.6883 55.1275 39.7068 55.0314ZM32.2407 53.8019C32.2407 54.2319 32.4455 54.4076 32.8142 54.2985C33.0703 54.2251 33.3067 54.0964 33.5062 53.9218C33.7056 53.7473 33.8632 53.5311 33.9674 53.2891C34.2624 52.6834 34.4979 52.0454 34.756 51.4216C34.7943 51.3246 34.8066 51.2196 34.7917 51.1166C34.7768 51.0136 34.7352 50.9161 34.671 50.8335C34.6068 50.751 34.5221 50.6861 34.425 50.6452C34.328 50.6043 34.2219 50.5887 34.1169 50.5999C33.975 50.6243 33.8417 50.684 33.7298 50.7735C33.2689 51.1147 33.0047 51.5972 32.7671 52.0939C32.4959 52.6302 32.3179 53.2075 32.2407 53.8019ZM39.0227 56.7313C38.7666 56.8424 38.5598 56.9332 38.3549 57.0241C38.2287 57.0768 38.1074 57.1403 37.9924 57.2138C37.7838 57.3237 37.6202 57.5013 37.5295 57.7165C37.5112 57.7632 37.5047 57.8136 37.5106 57.8632C37.5164 57.9129 37.5345 57.9604 37.5631 58.0018C37.5917 58.0431 37.63 58.0769 37.6748 58.1004C37.7197 58.1238 37.7696 58.1362 37.8203 58.1365C37.9052 58.1378 37.9894 58.1218 38.0676 58.0895C38.1459 58.0572 38.2165 58.0093 38.275 57.9487C38.6376 57.6277 38.8281 57.2078 39.0227 56.7313Z" fill="#2A9E98"/>
<path d="M26.616 45.6131C27.123 45.6266 27.6244 45.7206 28.101 45.8917C28.5231 46.0661 28.915 46.3045 29.2624 46.5983C29.9148 47.1696 30.3395 47.9511 30.4607 48.8029C30.6441 49.8719 30.5788 50.9679 30.2698 52.0084C29.9607 53.0489 29.416 54.0065 28.6766 54.8092C28.2787 55.272 27.7768 55.6369 27.2107 55.8749C26.6446 56.1129 26.0299 56.2173 25.4156 56.18C24.6993 56.1308 24.0188 55.8522 23.4779 55.3866C23.3653 55.2978 23.2608 55.1686 23.1338 55.1403C23.0068 55.112 22.9023 55.2796 22.7856 55.3543C22.3778 55.6369 21.9113 55.8266 21.4199 55.9097C20.9286 55.9928 20.4246 55.9672 19.9446 55.8348C19.5609 55.7444 19.2211 55.5254 18.9831 55.2153C18.7451 54.9053 18.6237 54.5234 18.6398 54.1349C18.6586 53.7354 18.8136 53.3538 19.0797 53.0519C19.3459 52.75 19.7076 52.5454 20.1064 52.4713C20.4671 52.4052 20.8375 52.4099 21.1963 52.4851C21.5552 52.5602 21.8955 52.7044 22.1977 52.9094C22.3268 52.9881 22.4538 53.0669 22.5726 53.1557C22.6914 53.2445 22.7241 53.2082 22.7774 53.1073C23.0645 52.5945 23.3078 52.0589 23.5046 51.5063C23.7831 50.8138 24.0535 50.1173 24.3382 49.4268C24.4954 48.9801 24.7799 48.5876 25.1576 48.2962C25.3544 48.1504 25.5846 48.0546 25.8279 48.0173C26.0711 47.9799 26.32 48.0022 26.5525 48.0822C26.6344 48.1064 26.6815 48.1246 26.6283 48.2215C25.8642 49.6347 25.3296 51.155 24.7336 52.6429C24.5445 53.1396 24.2992 53.6137 24.0023 54.0561C23.9572 54.1187 23.9019 54.1732 24.0023 54.2439C24.5205 54.6053 25.0633 54.8778 25.727 54.8092C26.277 54.7428 26.7874 54.4927 27.1731 54.1006C28.0027 53.3172 28.4636 52.33 28.7216 51.2458C28.949 50.4134 28.949 49.5365 28.7216 48.704C28.396 47.6138 27.5992 46.998 26.4521 46.9193C25.3665 46.8466 24.414 47.1333 23.6664 47.9288C23.3745 48.2197 23.1566 48.5746 23.0306 48.9645C22.9046 49.3543 22.874 49.768 22.9413 50.1718C22.9831 50.4058 22.9563 50.6467 22.8642 50.8662C22.772 51.0858 22.6183 51.2749 22.421 51.4114L22.3739 51.4457C22.0052 51.7122 22.0052 51.7122 21.8249 51.2842C21.4641 50.3884 21.4402 49.395 21.7577 48.4834C22.0751 47.5718 22.7129 46.8022 23.5558 46.3136C23.5988 46.2854 23.6438 46.2611 23.6889 46.2329C24.1317 45.99 24.6067 45.8093 25.1002 45.6959C25.6016 45.6201 26.1092 45.5924 26.616 45.6131ZM20.6758 54.6436C21.1036 54.6491 21.5188 54.5005 21.8434 54.2257C21.9048 54.1773 21.956 54.1329 21.8638 54.0622C21.5948 53.8376 21.2857 53.6644 20.9523 53.5514C20.8311 53.5116 20.7026 53.4983 20.5757 53.5122C20.4487 53.5261 20.3263 53.5671 20.217 53.6322C20.1154 53.6863 20.0339 53.7707 19.9842 53.8734C19.9345 53.9761 19.9192 54.0917 19.9405 54.2035C19.9584 54.2992 20.0051 54.3873 20.0745 54.4564C20.1439 54.5256 20.2328 54.5725 20.3296 54.5912C20.4379 54.6322 20.5538 54.6501 20.6697 54.6436H20.6758Z" fill="#2A9E98"/>
<path d="M32.2407 53.8018C32.3186 53.2095 32.4965 52.6342 32.7671 52.0998C33.0047 51.6032 33.2689 51.1207 33.7298 50.7795C33.8417 50.69 33.975 50.6302 34.1169 50.6058C34.2219 50.5946 34.328 50.6102 34.425 50.6511C34.5221 50.692 34.6068 50.7569 34.671 50.8395C34.7352 50.9221 34.7768 51.0195 34.7917 51.1225C34.8066 51.2255 34.7943 51.3306 34.756 51.4275C34.4979 52.0514 34.2624 52.6873 33.9674 53.295C33.8632 53.5371 33.7056 53.7532 33.5062 53.9278C33.3067 54.1024 33.0703 54.2311 32.8142 54.3045C32.4414 54.3994 32.2366 54.2318 32.2407 53.8018Z" fill="#FAFAFA"/>
<path d="M39.0227 56.7312C38.8281 57.2117 38.6376 57.6316 38.275 57.9425C38.2165 58.0031 38.1459 58.051 38.0676 58.0833C37.9893 58.1157 37.9051 58.1316 37.8203 58.1303C37.7696 58.13 37.7196 58.1177 37.6748 58.0942C37.63 58.0707 37.5917 58.0369 37.563 57.9956C37.5344 57.9543 37.5164 57.9067 37.5106 57.8571C37.5047 57.8074 37.5112 57.757 37.5294 57.7104C37.6202 57.4951 37.7838 57.3175 37.9924 57.2077C38.1074 57.1341 38.2287 57.0706 38.3549 57.0179C38.5597 56.9331 38.7666 56.8382 39.0227 56.7312Z" fill="#FAFAFA"/>
<path d="M20.6697 54.6436C20.5518 54.6509 20.4337 54.633 20.3235 54.5911C20.2266 54.5725 20.1377 54.5255 20.0683 54.4564C19.9989 54.3873 19.9522 54.2992 19.9343 54.2035C19.9131 54.0917 19.9284 53.9761 19.9781 53.8734C20.0278 53.7707 20.1093 53.6862 20.2108 53.6322C20.3202 53.5671 20.4425 53.5261 20.5695 53.5122C20.6965 53.4982 20.825 53.5116 20.9462 53.5514C21.2796 53.6644 21.5887 53.8376 21.8577 54.0622C21.9499 54.1328 21.8987 54.1773 21.8372 54.2257C21.5126 54.5005 21.0975 54.6491 20.6697 54.6436Z" fill="#FAFAFA"/>
<path d="M31.8494 82.7045C31.3169 82.5611 30.7843 82.4218 30.2517 82.2765C26.3333 81.2105 22.5971 79.7286 19.1641 77.5522C17.6543 76.5999 16.2321 75.5191 14.9138 74.322L14.7623 74.1786C15.3338 74.1786 15.8622 74.1988 16.3886 74.1786C16.5548 74.1669 16.7217 74.1886 16.8791 74.2424C17.0365 74.2962 17.1811 74.381 17.3042 74.4916C19.8488 76.5075 22.6886 78.1316 25.727 79.3087C27.7062 80.0865 29.7367 80.7313 31.8044 81.2387C31.8924 81.261 31.9847 81.261 32.0727 81.2387C35.2431 80.4818 38.3151 79.3696 41.2287 77.9237C43.2335 76.9188 45.1203 75.7001 46.8555 74.2897C46.9381 74.2187 47.045 74.1812 47.1545 74.1847C47.7506 74.1847 48.3466 74.1847 48.9427 74.1847H49.1332C48.7071 74.5885 48.2954 74.9418 47.8776 75.287C44.6494 77.956 40.987 79.8518 37.0378 81.2408C35.428 81.8011 33.7907 82.2815 32.1321 82.6802C32.1018 82.6892 32.0729 82.7021 32.0461 82.7186L31.8494 82.7045Z" fill="#FAFAFA"/>
<path d="M31.9273 60.2966C24.8824 60.2966 17.8382 60.2966 10.7947 60.2966C10.6288 60.2966 10.5674 60.2724 10.5653 60.0846C10.4895 53.075 10.5018 46.0653 10.512 39.0557C10.512 35.0179 10.5407 30.9679 10.5407 26.9221C10.5254 26.7907 10.5553 26.658 10.6255 26.5453C10.6956 26.4326 10.8021 26.3463 10.9279 26.3002C13.4002 25.0928 15.9947 24.1454 18.6685 23.4738C20.5204 23.0025 22.3985 22.6371 24.2932 22.3795C27.4417 21.9535 30.6211 21.7901 33.7974 21.8909C35.4853 21.9367 37.1683 22.0652 38.8466 22.2766C42.6868 22.7232 46.4547 23.645 50.0612 25.0202C51.1222 25.4361 52.1607 25.9012 53.1767 26.4153C53.2328 26.4368 53.2801 26.476 53.3112 26.5267C53.3423 26.5775 53.3555 26.637 53.3487 26.6959C53.3487 29.1778 53.3549 31.6584 53.3672 34.1376C53.3931 39.6815 53.3999 45.2248 53.3876 50.7674C53.3876 53.8684 53.3467 56.9694 53.3303 60.0705C53.3303 60.2522 53.2955 60.3027 53.1009 60.3027C46.0423 60.2973 38.9845 60.2952 31.9273 60.2966ZM23.6848 46.2329C23.6398 46.2612 23.5947 46.2854 23.5517 46.3136C22.7106 46.8038 22.075 47.5741 21.7595 48.4855C21.444 49.397 21.4694 50.3896 21.8311 51.2842C22.0114 51.7122 22.0114 51.7122 22.3801 51.4457L22.4272 51.4114C22.6245 51.2749 22.7782 51.0858 22.8704 50.8662C22.9625 50.6467 22.9892 50.4058 22.9474 50.1718C22.8826 49.7655 22.9167 49.3498 23.0471 48.9591C23.1775 48.5683 23.4003 48.2138 23.6971 47.9247C24.4448 47.1172 25.3972 46.8386 26.4829 46.9153C27.6299 46.994 28.4267 47.6098 28.7524 48.7C28.9797 49.5324 28.9797 50.4093 28.7524 51.2418C28.4943 52.326 28.0334 53.3132 27.2039 54.0965C26.8181 54.4886 26.3078 54.7387 25.7578 54.8052C25.0941 54.8738 24.5513 54.6033 24.0331 54.2399C23.9306 54.1692 23.9859 54.1147 24.0331 54.0521C24.33 53.6097 24.5753 53.1356 24.7643 52.6389C25.3604 51.1509 25.895 49.6368 26.659 48.2175C26.7123 48.1206 26.659 48.1024 26.5832 48.0782C26.3508 47.9982 26.1019 47.9759 25.8586 48.0132C25.6153 48.0506 25.3851 48.1464 25.1883 48.2922C24.8106 48.5836 24.5262 48.9761 24.369 49.4228C24.0843 50.1132 23.8139 50.8098 23.5353 51.5022C23.3385 52.0549 23.0953 52.5904 22.8082 53.1032C22.7467 53.2042 22.6935 53.2244 22.6033 53.1517C22.5132 53.079 22.3575 52.9841 22.2285 52.9054C21.9231 52.6982 21.5788 52.5531 21.2159 52.4786C20.8529 52.4041 20.4785 52.4016 20.1146 52.4713C19.7143 52.5438 19.3507 52.7476 19.083 53.0497C18.8152 53.3517 18.659 53.7342 18.6398 54.1349C18.6234 54.5223 18.7435 54.9033 18.9799 55.2132C19.2163 55.5231 19.5543 55.7428 19.9364 55.8348C20.4165 55.9673 20.9204 55.9929 21.4118 55.9098C21.9031 55.8267 22.3696 55.6369 22.7774 55.3543C22.8942 55.2796 22.9823 55.11 23.1256 55.1403C23.269 55.1706 23.3571 55.2978 23.4698 55.3866C24.0106 55.8522 24.6911 56.1308 25.4075 56.18C26.0231 56.2186 26.6394 56.1148 27.207 55.8767C27.7746 55.6387 28.2779 55.2731 28.6766 54.8092C29.416 54.0066 29.9608 53.0489 30.2698 52.0084C30.5789 50.968 30.6441 49.8719 30.4607 48.803C30.3396 47.9512 29.9148 47.1696 29.2624 46.5983C28.915 46.3046 28.5232 46.0661 28.101 45.8917C28.101 45.3547 28.101 44.8176 28.101 44.2766C28.101 42.2671 28.0963 40.2576 28.0867 38.2481C28.0867 37.4554 28.0867 36.6606 28.0867 35.8638C28.0867 35.8073 28.0334 35.7043 28.1563 35.7003C28.6193 35.6841 29.117 35.5428 29.4345 36.0576C29.521 36.1796 29.6244 36.289 29.7417 36.3827C29.7791 36.4177 29.8081 36.4605 29.8265 36.5081C29.845 36.5556 29.8524 36.6065 29.8483 36.6572C29.8483 38.6223 29.8483 40.586 29.8483 42.5484C29.8483 43.7194 29.8483 44.8883 29.8483 46.0572C29.8483 46.1723 29.8606 46.2268 30.0019 46.2228C30.4006 46.2134 30.8001 46.2134 31.2002 46.2228C31.3292 46.2228 31.3476 46.1824 31.3476 46.0694C31.3476 42.7422 31.3476 39.415 31.3476 36.0879C31.3489 36.0469 31.3413 36.0061 31.3255 35.9681C31.3096 35.9302 31.2857 35.896 31.2555 35.8678C30.9687 35.5751 30.6901 35.2763 30.3993 34.9876C30.3091 34.8967 30.3112 34.8483 30.3993 34.7574C30.6819 34.4707 30.9523 34.1699 31.2329 33.8812C31.2694 33.8461 31.2982 33.8039 31.3176 33.7574C31.3369 33.7109 31.3465 33.661 31.3456 33.6107C31.3456 31.5756 31.3456 29.5399 31.3456 27.5035C31.3474 27.4563 31.3395 27.4092 31.3222 27.3651C31.305 27.321 31.2788 27.2809 31.2452 27.2471C30.8356 26.7935 30.4314 26.3359 30.0326 25.8742C30.0011 25.835 29.9599 25.8043 29.9129 25.7852C29.8659 25.7661 29.8147 25.7593 29.7643 25.7652C28.7743 25.8069 27.787 25.8648 26.8024 25.9388C26.6201 25.953 26.5505 25.9812 26.5505 26.1872C26.5709 29.5264 26.5846 32.8664 26.5914 36.207L26.6283 45.607C26.1201 45.5861 25.6111 45.6138 25.1084 45.6898C25.0552 45.1508 24.9999 44.6117 24.9487 44.0747C24.8503 43.0652 24.7582 42.0558 24.6598 41.0463C24.5492 39.9178 24.4304 38.7872 24.3178 37.6566C24.2051 36.526 24.1129 35.4095 23.9921 34.285C23.8549 32.9061 23.7115 31.5252 23.5824 30.1463C23.4595 28.9066 23.3394 27.667 23.2219 26.4274C23.2096 26.2962 23.1584 26.27 23.0355 26.2901C22.6259 26.3588 22.2162 26.4227 21.8065 26.4819C21.7328 26.494 21.7062 26.5203 21.7 26.591C21.6754 26.9059 21.6468 27.2209 21.6201 27.5358C21.5505 28.3259 21.4822 29.1166 21.4153 29.908C21.3416 30.7237 21.2671 31.5393 21.192 32.3549L20.9872 34.6888C20.9135 35.4964 20.839 36.3039 20.7639 37.1115C20.6943 37.8827 20.626 38.6539 20.5591 39.4251L20.3379 41.8155C20.2314 42.6069 20.1433 43.395 20.0736 44.1797C20.0142 44.8156 19.9589 45.4516 19.8975 46.0875C19.8872 46.1945 19.9118 46.2309 20.0286 46.2289C20.4219 46.2289 20.8151 46.2289 21.2084 46.2289C21.3313 46.2289 21.3538 46.1945 21.362 46.0795C21.4092 45.4738 21.4686 44.858 21.5239 44.2483C21.6263 43.1561 21.7287 42.0639 21.825 40.9716C21.825 40.8505 21.8762 40.8182 21.9868 40.8141C22.3268 40.8141 22.6689 40.794 23.0109 40.7657C23.1584 40.7536 23.1891 40.8121 23.1994 40.9333C23.2649 41.6533 23.3332 42.3727 23.4042 43.0915C23.4943 44.14 23.5879 45.1871 23.6848 46.2329ZM33.1952 35.993H33.1829C33.1829 39.3578 33.1829 42.7227 33.1829 46.0875C33.1829 46.2188 33.1973 46.2753 33.357 46.2733C34.3587 46.2733 35.3624 46.2733 36.364 46.2733C36.4115 46.2772 36.4592 46.2691 36.5026 46.2496C36.546 46.2302 36.5836 46.2001 36.6118 46.1622C37.0556 45.6104 37.5035 45.0626 37.9555 44.5188C38.0173 44.4443 38.0499 44.3505 38.0477 44.2544C38.0477 41.6204 38.0552 38.985 38.0702 36.3483C38.0716 36.2948 38.0622 36.2415 38.0425 36.1916C38.0228 36.1417 37.9933 36.0961 37.9555 36.0576C37.677 35.7649 37.4127 35.462 37.1362 35.1733C37.044 35.0784 37.0584 35.028 37.1362 34.9452C37.4168 34.6726 37.6893 34.392 37.9658 34.1174C38 34.0885 38.0274 34.0525 38.0462 34.0121C38.0649 33.9717 38.0745 33.9277 38.0743 33.8832C38.0743 31.7513 38.0825 29.62 38.0989 27.4894C38.1018 27.4523 38.0965 27.4151 38.0834 27.3803C38.0703 27.3454 38.0498 27.3138 38.0231 27.2875C37.5643 26.8433 37.1089 26.3965 36.6569 25.9469C36.6122 25.9012 36.5513 25.8744 36.4869 25.8722C35.4627 25.7975 34.4386 25.7612 33.4144 25.7188C33.2567 25.7188 33.1932 25.7329 33.1932 25.9207C33.1986 29.2774 33.1993 32.6349 33.1952 35.993ZM13.8426 37.3295V46.1097C13.8426 46.2026 13.814 46.2955 13.9799 46.2935C15.004 46.2935 16.0282 46.2935 17.0667 46.2935C17.1024 46.2957 17.138 46.2895 17.1708 46.2755C17.2036 46.2614 17.2325 46.2399 17.2551 46.2127C17.7017 45.6905 18.1489 45.1683 18.5968 44.646C18.6785 44.5559 18.7212 44.4377 18.7156 44.3169C18.7006 43.4771 18.6917 42.6372 18.689 41.7974C18.689 40.1701 18.689 38.5422 18.689 36.9136C18.6915 36.8606 18.6805 36.8079 18.6569 36.7602C18.6332 36.7126 18.5978 36.6716 18.5538 36.6411C18.2916 36.4271 18.0458 36.1929 17.7816 35.9829C17.6648 35.89 17.6648 35.8335 17.759 35.7305C18.0294 35.4317 18.2875 35.1249 18.5599 34.8281C18.6022 34.7849 18.635 34.7336 18.6562 34.6773C18.6773 34.621 18.6864 34.561 18.6828 34.501C18.6678 32.5171 18.6569 30.5339 18.6501 28.5513C18.6534 28.5079 18.6438 28.4645 18.6223 28.4264C18.6008 28.3884 18.5684 28.3574 18.5292 28.3373C18.1086 28.0829 17.6914 27.8232 17.2777 27.558C17.241 27.5315 17.1987 27.5137 17.1539 27.506C17.1091 27.4983 17.0632 27.5009 17.0196 27.5136C16.018 27.774 15.0184 28.0405 14.027 28.3333C13.8713 28.3797 13.8467 28.4483 13.8467 28.5897C13.8454 31.5023 13.844 34.4156 13.8426 37.3295ZM39.7069 55.0313C39.687 55.1276 39.6554 55.2211 39.6126 55.3099C39.5789 55.447 39.5094 55.573 39.4109 55.6754C39.3125 55.7777 39.1885 55.8529 39.0514 55.8934C38.6233 56.065 38.2013 56.2588 37.7896 56.4667C37.3638 56.6608 37.0162 56.9899 36.8023 57.4015C36.6707 57.6491 36.6301 57.9339 36.6872 58.2076C36.7443 58.4814 36.8957 58.7272 37.1157 58.9035C37.5377 59.2165 38.0272 59.2326 38.5229 59.1438C39.2214 59.0186 39.6884 58.5684 40.0653 58.0092C40.3928 57.5044 40.6562 56.962 40.8498 56.394C40.8728 56.3217 40.9115 56.2552 40.9631 56.1991C41.0147 56.143 41.0781 56.0986 41.1489 56.069C41.4684 55.9216 41.7839 55.7641 42.0891 55.5905C43.1373 54.9848 44.018 54.134 44.6536 53.1133C44.7379 53.0083 44.7791 52.8759 44.7688 52.7423C44.7586 52.6087 44.6977 52.4839 44.5983 52.3926C44.418 52.227 44.3176 52.2412 44.1886 52.4471C43.5495 53.4909 42.7548 54.3832 41.6528 54.9748C41.5852 55.0111 41.5217 55.0797 41.407 55.0474L43.781 49.3703H42.978C42.7147 49.3589 42.4543 49.4293 42.2338 49.5717C42.0132 49.7141 41.8437 49.9212 41.749 50.1637C41.6815 50.3091 41.6261 50.4605 41.5586 50.6079C41.2124 51.369 40.9727 52.1786 40.5344 52.8973C40.2661 53.3852 39.9281 53.8326 39.5307 54.2257C39.4579 54.3049 39.3699 54.369 39.2718 54.4144C39.1738 54.4598 39.0675 54.4856 38.9592 54.4902C38.9277 54.4952 38.8954 54.4929 38.8649 54.4834C38.8345 54.4739 38.8067 54.4575 38.7838 54.4355C38.7609 54.4136 38.7435 54.3866 38.7331 54.3568C38.7227 54.3271 38.7194 54.2953 38.7237 54.2641C38.7178 54.0644 38.7541 53.8658 38.8302 53.6806C39.2173 52.6066 39.6925 51.5689 40.1186 50.513C40.2702 50.1375 40.4258 49.766 40.5897 49.3703H39.7704C39.5044 49.3554 39.2407 49.4261 39.019 49.5718C38.7974 49.7174 38.6297 49.9301 38.5414 50.1778C38.1317 51.1873 37.6606 52.1685 37.3124 53.2062C37.2924 53.254 37.267 53.2994 37.2366 53.3415C37.0248 53.6368 36.7862 53.9125 36.5238 54.1652C36.3302 54.3769 36.0848 54.536 35.8109 54.6275C35.5529 54.6961 35.4197 54.6013 35.4177 54.3348C35.4226 54.1604 35.4558 53.988 35.516 53.824C35.8068 52.9437 36.2001 52.1019 36.5401 51.2418C36.7859 50.626 37.042 50.0163 37.3021 49.3804C36.9867 49.3804 36.6876 49.3703 36.4009 49.3804C36.1837 49.3852 35.9715 49.4459 35.7854 49.5563C35.5993 49.6668 35.4457 49.8233 35.3398 50.0103C35.3132 50.0527 35.3132 50.1274 35.2333 50.1294C35.1375 49.8484 34.9492 49.6071 34.6984 49.4436C34.4475 49.2801 34.1485 49.2038 33.8486 49.2269C33.1502 49.2269 32.6196 49.5782 32.1711 50.0668C31.6258 50.6958 31.2185 51.4293 30.9748 52.221C30.7352 52.9316 30.5304 53.6504 30.5836 54.4115C30.6512 55.3543 31.4029 55.8712 32.3267 55.6228C32.8166 55.4767 33.2602 55.209 33.6151 54.8455C33.6541 54.8072 33.7176 54.6659 33.7688 54.8455C33.9408 55.4371 34.4447 55.6874 35.0285 55.6915C35.6323 55.6826 36.2132 55.4622 36.6671 55.0696C36.8269 54.9425 36.9785 54.8031 37.1383 54.6659C37.1751 54.7789 37.2018 54.8778 37.2366 54.9748C37.3078 55.1882 37.4469 55.3733 37.6332 55.5028C37.8195 55.6322 38.0431 55.6991 38.271 55.6935C38.6206 55.6946 38.962 55.5888 39.248 55.3906C39.4058 55.2695 39.5491 55.1504 39.7069 55.0313ZM45.4033 36.7097H45.3521C45.3521 37.4527 45.3521 38.1929 45.3521 38.9305C45.3521 41.3128 45.3445 43.6965 45.3295 46.0815C45.3295 46.1905 45.3582 46.2228 45.4688 46.2208C45.8559 46.2208 46.2431 46.2087 46.6302 46.2208C46.792 46.2208 46.8187 46.1723 46.8187 46.0189C46.8187 44.0686 46.8289 42.1184 46.833 40.1641C46.833 39.1445 46.833 38.1229 46.833 37.1034C46.833 36.8591 46.833 36.8611 47.0686 36.9015C47.2101 36.9259 47.3531 36.9415 47.4967 36.9479C47.6823 36.9388 47.8672 36.9771 48.0334 37.0591C48.1996 37.1412 48.3414 37.2643 48.445 37.4163C48.5226 37.5157 48.567 37.6363 48.572 37.7616C48.572 40.5214 48.5618 43.2792 48.5515 46.0391C48.5515 46.1804 48.5802 46.2248 48.7318 46.2188C49.1169 46.2066 49.504 46.2087 49.8912 46.2188C50.0222 46.2188 50.0509 46.1824 50.0509 46.0572C50.0509 43.2792 50.0509 40.5012 50.0509 37.7232C50.0521 37.6791 50.0442 37.6353 50.0276 37.5943C50.0111 37.5534 49.9862 37.5162 49.9546 37.485C49.6822 37.1963 49.4221 36.8955 49.1353 36.6148C49.0145 36.4917 49.0349 36.4372 49.166 36.3443C49.42 36.1646 49.6597 35.9627 49.9116 35.777C49.9544 35.7494 49.9891 35.7111 50.0121 35.6661C50.0351 35.6211 50.0457 35.5709 50.0427 35.5206C50.0427 33.6672 50.0427 31.8132 50.0427 29.9585C50.0447 29.8683 50.0143 29.7803 49.9567 29.7102C49.5634 29.1953 49.1701 28.6805 48.7871 28.1576C48.7176 28.0574 48.6135 27.9857 48.4942 27.9557C47.5233 27.6953 46.5524 27.451 45.5733 27.2269C45.4278 27.1926 45.3869 27.2148 45.3869 27.3723C45.3992 30.4908 45.4046 33.6033 45.4033 36.7097ZM39.9424 36.2433H39.8625V46.0875C39.8625 46.1925 39.84 46.2773 40.0121 46.2753C41.2165 46.2753 42.4229 46.2753 43.6274 46.2753C43.7523 46.2753 43.781 46.2369 43.781 46.1219C43.781 45.6757 43.781 45.2295 43.7933 44.7853C43.7933 44.6521 43.7523 44.6258 43.6274 44.6238C43.0313 44.6238 42.4352 44.6077 41.8392 44.5935C41.6855 44.5935 41.4828 44.6602 41.3885 44.5612C41.2943 44.4623 41.3619 44.2665 41.3619 44.113C41.3728 41.5881 41.3817 39.0624 41.3885 36.5361C41.3885 36.3948 41.4295 36.3645 41.5626 36.3766C42.255 36.4412 42.9453 36.4957 43.6356 36.5623C43.7687 36.5744 43.8404 36.5744 43.8301 36.4089C43.8192 35.989 43.8192 35.569 43.8301 35.1491C43.8301 34.9977 43.7748 34.9613 43.6478 34.9472C42.9576 34.8826 42.2673 34.8099 41.577 34.7453C41.4418 34.7332 41.3885 34.7049 41.3885 34.5555C41.4022 32.4559 41.4118 30.3562 41.4172 28.2566C41.4172 28.1354 41.4336 28.089 41.577 28.1132C42.2775 28.2303 42.9821 28.3373 43.6847 28.4524C43.7912 28.4706 43.8527 28.4786 43.8506 28.3353C43.8506 27.8911 43.8506 27.445 43.8629 26.9988C43.8629 26.8938 43.8445 26.8474 43.7216 26.8251C42.5356 26.597 41.3435 26.4072 40.1473 26.2417C39.9424 26.2154 39.9301 26.2619 39.9301 26.4315C39.9383 29.7034 39.9424 32.9741 39.9424 36.2433Z" fill="#FAFAFA"/>
<path d="M37.3472 11.326C38.4902 11.4209 39.2706 12.2486 39.2378 13.3146C39.2213 13.7773 39.0341 14.2182 38.7113 14.5546C38.3885 14.891 37.9522 15.0997 37.4844 15.1417C37.3697 15.1417 37.3288 15.176 37.3288 15.2972C37.3288 16.7508 37.3288 18.2044 37.3288 19.658C37.3288 19.7912 37.3861 19.7953 37.4906 19.8054C41.4856 20.16 45.4244 20.9773 49.2254 22.2402C51.4173 22.9966 53.5412 23.9319 55.5753 25.0364C55.616 25.0548 55.6495 25.0859 55.6706 25.1249C55.6917 25.164 55.6992 25.2087 55.692 25.2524C55.7289 27.1199 55.7125 28.9853 55.7207 30.8528C55.7466 36.9378 55.7576 43.0235 55.7535 49.1098C55.7535 52.5924 55.7207 56.073 55.7043 59.5556C55.7043 59.7575 55.6859 59.9433 55.7043 60.1371C55.7145 60.2885 55.6531 60.3147 55.5159 60.3107C55.1615 60.3006 54.8071 60.3006 54.4548 60.3107C54.3094 60.3107 54.2684 60.2804 54.2725 60.133C54.2889 59.1195 54.2998 58.1054 54.3053 57.0905C54.3135 55.038 54.3189 52.9841 54.3217 50.9288C54.3217 44.7712 54.3183 38.6142 54.3114 32.4579C54.3114 30.3461 54.2889 28.2323 54.2807 26.1205C54.2855 26.0678 54.2727 26.015 54.2442 25.9702C54.2158 25.9254 54.1732 25.8909 54.123 25.8722C51.3339 24.4182 48.3764 23.3024 45.3152 22.5491C43.5608 22.1056 41.7829 21.7585 39.9895 21.5093C38.7073 21.3276 37.4209 21.1984 36.1284 21.1056C34.3157 20.9743 32.5029 20.9339 30.6881 20.9683C29.0637 21.0006 27.4415 21.0995 25.8274 21.2751C22.1041 21.653 18.4378 22.4544 14.9016 23.6635C13.1406 24.2762 11.4288 25.0186 9.78079 25.8843C9.73389 25.9033 9.69454 25.9368 9.66867 25.9798C9.6428 26.0228 9.63183 26.0729 9.63741 26.1225C9.62512 30.443 9.60259 34.7655 9.59849 39.088C9.59849 44.9024 9.59849 50.7162 9.59849 56.5293C9.59849 57.7406 9.61692 58.9338 9.63536 60.1351C9.63536 60.2723 9.61283 60.3228 9.45715 60.3168C9.10484 60.3046 8.75048 60.3046 8.39612 60.3168C8.2384 60.3168 8.20358 60.2744 8.20358 60.127C8.20358 58.8618 8.19402 57.5959 8.1749 56.3294C8.12984 50.838 8.14008 45.3466 8.14827 39.8551C8.14827 35.3207 8.17695 30.7862 8.19129 26.2517C8.19129 25.9146 8.20767 25.5794 8.20767 25.2423C8.20332 25.2013 8.21178 25.16 8.23191 25.1239C8.25205 25.0879 8.2829 25.0587 8.32033 25.0404C11.4866 23.319 14.8677 22.0131 18.3776 21.156C20.1443 20.7191 21.9328 20.3734 23.736 20.1203C24.6291 19.9952 25.5283 19.9043 26.4255 19.8074C26.53 19.7953 26.5648 19.7731 26.5648 19.662C26.5648 18.2084 26.5648 16.7548 26.5648 15.3012C26.5648 15.1821 26.5279 15.1518 26.4112 15.1437C25.9511 15.1045 25.5206 14.9041 25.1978 14.5787C24.875 14.2533 24.6812 13.8246 24.6517 13.3705C24.6222 12.9163 24.7589 12.4668 25.0371 12.1035C25.3152 11.7402 25.7162 11.4873 26.1674 11.3906C26.2883 11.3663 26.4132 11.3522 26.5525 11.332C26.1426 10.5847 25.8994 9.75962 25.8394 8.91212C25.7793 8.06462 25.9037 7.21426 26.2043 6.41801C26.642 5.19892 27.4758 4.15637 28.5762 3.45223C29.712 2.71165 31.0659 2.36568 32.4236 2.46911C33.7813 2.57253 35.0652 3.11945 36.072 4.02323C37.0788 4.92702 37.7509 6.13602 37.9818 7.45878C38.2128 8.78153 37.9895 10.1424 37.3472 11.326ZM30.5078 19.5328H32.001C32.0663 19.5313 32.1306 19.5161 32.1895 19.4884L35.7864 17.9238C35.8228 17.9139 35.8545 17.8917 35.8758 17.861C35.8972 17.8304 35.9069 17.7932 35.9031 17.7562C35.9031 16.9305 35.9031 16.1027 35.9031 15.277C35.9031 15.1619 35.8662 15.1377 35.7577 15.1377C35.3583 15.1377 34.9588 15.1377 34.5574 15.1377C34.4866 15.139 34.4168 15.1548 34.3525 15.1841C32.2783 16.0886 30.204 16.993 28.1297 17.8975C28.0863 17.9093 28.0489 17.9364 28.0243 17.9736C27.9998 18.0108 27.9899 18.0555 27.9966 18.0994C27.9966 18.5698 28.0068 19.0422 27.9966 19.5126C27.9966 19.6661 28.0519 19.6721 28.1768 19.662C28.9511 19.6015 29.7295 19.5833 30.5078 19.5328ZM31.9416 14.0111H34.1948C35.1841 14.0111 36.1735 14.0111 37.1628 14.0111C37.2974 14.0193 37.4319 13.9927 37.5529 13.9341C37.6739 13.8754 37.7774 13.7867 37.853 13.6767C37.9287 13.5667 37.974 13.4391 37.9844 13.3066C37.9948 13.174 37.9701 13.0411 37.9125 12.9209C37.7507 12.5716 37.4496 12.4586 37.0789 12.4586H26.8188C26.7274 12.4584 26.6362 12.4666 26.5464 12.4828C26.4323 12.5025 26.3242 12.5474 26.2301 12.6141C26.1361 12.6808 26.0587 12.7676 26.0035 12.868C25.9483 12.9684 25.9169 13.0798 25.9116 13.1938C25.9063 13.3079 25.9272 13.4216 25.9728 13.5266C26.0359 13.6806 26.1472 13.8109 26.2904 13.8984C26.4337 13.9859 26.6016 14.0261 26.7696 14.0131L31.9416 14.0111Z" fill="#FAFAFA"/>
<path d="M18.4165 74.1807H45.4954C45.0857 74.4754 44.7109 74.748 44.334 75.0064C41.6072 76.8395 38.6298 78.2812 35.4914 79.2885C34.3662 79.6613 33.2286 79.9911 32.0789 80.2778C32.004 80.3009 31.9244 80.3051 31.8474 80.2899C28.3038 79.3894 24.8831 78.1599 21.7102 76.347C20.5648 75.6976 19.4645 74.9739 18.4165 74.1807Z" fill="#FAFAFA"/>
<path d="M53.8096 66.9873C53.8468 66.9108 53.8603 66.8251 53.8485 66.741C53.8485 66.1919 53.8485 65.6427 53.8485 65.0936C53.8485 64.9664 53.8731 64.9119 54.0205 64.9119C54.4896 64.9119 54.4896 64.9119 54.4896 65.3762C54.4896 66.6946 54.4896 68.0109 54.4896 69.3292C54.4896 69.4887 54.4486 69.5311 54.2848 69.5311C53.8464 69.521 53.8362 69.5311 53.8505 69.093C53.8607 68.7707 53.8115 68.4491 53.7051 68.1441C53.5371 67.6596 53.3876 67.167 53.1991 66.6804C53.1991 66.745 53.1991 66.8096 53.1991 66.8823C53.1991 67.702 53.1991 68.5217 53.1991 69.3413C53.1991 69.4907 53.1664 69.5432 53.0066 69.5432C52.556 69.5432 52.556 69.5432 52.556 69.0991C52.556 67.7828 52.556 66.4644 52.556 65.1481C52.556 64.9745 52.5949 64.9139 52.7813 64.9199C53.191 64.9341 53.191 64.9199 53.3098 65.3116C53.4613 65.8507 53.6313 66.3978 53.8096 66.9873Z" fill="#FAFAFA"/>
<path d="M21.9888 66.7369C21.9888 67.6393 21.9888 68.5438 21.9888 69.4483C21.9888 69.6078 21.9642 69.6744 21.784 69.6683C21.3579 69.6542 21.3579 69.6684 21.3579 69.2424C21.3579 67.8917 21.3579 66.5411 21.3579 65.1904C21.3579 65.0329 21.3948 64.9885 21.5627 64.9885C21.997 64.9986 21.997 64.9885 22.1199 65.3923L22.5808 66.9105C22.5935 66.9687 22.6251 67.0212 22.6709 67.0599V66.432C22.6709 66.0061 22.6709 65.5801 22.6709 65.1521C22.6709 65.0289 22.7037 64.9885 22.8368 64.9885C23.3223 64.9885 23.3223 64.9885 23.3223 65.4549C23.3223 66.7914 23.3223 68.1299 23.3223 69.4665C23.3223 69.6118 23.2936 69.6683 23.1297 69.6683C22.6729 69.6683 22.6627 69.6684 22.675 69.2262C22.6868 68.8912 22.6347 68.557 22.5214 68.241C22.3473 67.7423 22.1977 67.2315 22.038 66.7329L21.9888 66.7369Z" fill="#FAFAFA"/>
<path d="M43.9981 67.0277C43.9981 66.3817 43.9981 65.7356 43.9981 65.0896C43.9981 64.9583 44.0288 64.9119 44.1702 64.9139C44.631 64.9139 44.631 64.9139 44.631 65.3662C44.631 66.6906 44.631 68.015 44.631 69.3394C44.631 69.4867 44.5983 69.5413 44.4385 69.5413C44.0001 69.5413 43.9899 69.5412 44.0022 69.1072C44.0118 68.7919 43.9618 68.4777 43.8547 68.1805C43.6806 67.6778 43.529 67.1711 43.3324 66.6603V66.8258C43.3324 67.6657 43.3324 68.5056 43.3324 69.3454C43.3324 69.4888 43.2996 69.5332 43.1501 69.5312C42.6995 69.5312 42.6995 69.5312 42.6995 69.089C42.6995 67.7707 42.6995 66.4523 42.6995 65.136C42.6995 64.9684 42.7281 64.8998 42.9186 64.9079C43.3283 64.924 43.3283 64.9079 43.4471 65.3116L43.9203 66.8864C43.9367 66.9389 43.9551 66.9914 43.9715 67.0459L43.9981 67.0277Z" fill="#FAFAFA"/>
<path d="M8.30395 67.2659C8.71361 67.3648 8.83651 67.6454 8.80989 68.0351C8.78735 68.344 8.80989 68.6549 8.80989 68.9638C8.80989 69.41 8.60505 69.624 8.16261 69.6482C7.75295 69.6704 7.34328 69.6482 6.93362 69.6644C6.83325 69.6644 6.80048 69.628 6.80048 69.5291C6.80048 68.058 6.80048 66.5862 6.80048 65.1137C6.80048 65.0552 6.80048 64.9906 6.88241 64.9926C7.28735 64.9737 7.69311 64.9811 8.09707 65.0148C8.27466 65.0312 8.4386 65.1158 8.55354 65.2502C8.66849 65.3847 8.72524 65.5582 8.71157 65.7335C8.71157 66.0566 8.71157 66.3796 8.71157 66.7026C8.72784 66.8128 8.7015 66.9251 8.63777 67.0171C8.57403 67.1091 8.47754 67.1741 8.36745 67.1993C8.35281 67.2055 8.33962 67.2146 8.3287 67.2261C8.31778 67.2376 8.30935 67.2511 8.30395 67.2659ZM8.16876 68.3622V67.9967C8.16876 67.6192 8.09297 67.5425 7.71813 67.5283C7.67102 67.5283 7.62595 67.5283 7.58089 67.5283C7.46823 67.5183 7.43546 67.5687 7.43751 67.6757C7.43751 68.0028 7.43751 68.3319 7.43751 68.6589C7.43751 69.1455 7.43751 69.1455 7.9291 69.095C7.96226 69.0967 7.99539 69.0912 8.0262 69.079C8.05702 69.0668 8.08477 69.0482 8.10756 69.0244C8.13035 69.0006 8.14762 68.9722 8.15818 68.9411C8.16875 68.9101 8.17236 68.8772 8.16876 68.8447C8.16671 68.6852 8.16876 68.5237 8.16876 68.3622ZM7.43955 66.2564C7.43955 66.4442 7.43955 66.6299 7.43955 66.8177C7.43955 66.8661 7.41907 66.9227 7.48052 66.955C7.69764 67.0761 8.07863 66.9005 8.09502 66.6602C8.10936 66.3897 8.10731 66.1171 8.09502 65.8526C8.08478 65.6508 7.99055 65.5761 7.77343 65.574C7.72837 65.574 7.68126 65.574 7.63619 65.574C7.48871 65.5538 7.42112 65.5983 7.43136 65.7598C7.4416 65.9213 7.43955 66.0889 7.43955 66.2564Z" fill="#FAFAFA"/>
<path d="M38.613 67.2296C38.613 66.7188 38.613 66.21 38.613 65.6992C38.613 65.1885 38.8691 64.9159 39.4098 64.9179C39.6647 64.9008 39.9207 64.9089 40.1739 64.9421C40.311 64.9627 40.437 65.0283 40.5314 65.1284C40.6259 65.2284 40.6832 65.357 40.6941 65.4933C40.7089 65.6085 40.7164 65.7245 40.7167 65.8406C40.7167 66.7693 40.7167 67.6993 40.7167 68.6307C40.718 68.753 40.7091 68.8752 40.69 68.9961C40.6712 69.1387 40.6014 69.2699 40.4934 69.3665C40.3853 69.463 40.2459 69.5185 40.1001 69.523C39.8584 69.5351 39.6167 69.523 39.375 69.523C38.8609 69.523 38.6151 69.2767 38.613 68.774C38.611 68.2713 38.613 67.7464 38.613 67.2296ZM39.2419 67.2174V68.6125C39.2419 68.9133 39.3136 68.9759 39.6515 68.9779C40.0264 68.9779 40.0776 68.9376 40.0776 68.6186C40.0776 67.7464 40.0776 66.8742 40.0776 65.994C40.0776 65.4772 40.0776 65.4711 39.5553 65.4812C39.3156 65.4812 39.2419 65.5559 39.2398 65.7941C39.2398 66.2746 39.2419 66.745 39.2419 67.2174Z" fill="#FAFAFA"/>
<path d="M12.8246 67.0418C12.8246 67.6172 12.8246 68.1926 12.8246 68.7659C12.832 68.9344 12.8048 69.1027 12.7447 69.2606C12.7037 69.363 12.6351 69.4525 12.5463 69.5194C12.4575 69.5862 12.3519 69.628 12.2408 69.6401C12.0005 69.6714 11.7574 69.6775 11.5157 69.6583C11.0241 69.626 10.7824 69.3777 10.7783 68.8871C10.7783 67.9442 10.7783 67.0014 10.7783 66.0606C10.7783 65.7557 10.7783 65.4549 10.7783 65.148C10.7783 65.039 10.7968 64.9906 10.9278 64.9885C11.4113 64.9885 11.4113 64.9764 11.4113 65.4529C11.4113 66.5297 11.4113 67.6064 11.4113 68.6832C11.407 68.7604 11.4247 68.8373 11.4626 68.9051C11.5004 68.9729 11.5567 69.0289 11.6252 69.0667C11.6936 69.1046 11.7715 69.1227 11.8499 69.1192C11.9283 69.1156 12.0041 69.0904 12.0688 69.0466C12.1958 68.9739 12.1917 68.8447 12.1917 68.7195C12.1917 67.5586 12.1917 66.3957 12.1917 65.2328C12.1917 65.0309 12.2306 64.9663 12.4436 64.9785C12.8266 64.9966 12.8287 64.9785 12.8287 65.3681L12.8246 67.0418Z" fill="#FAFAFA"/>
<path d="M30.0121 68.4188C30.1309 67.9807 29.9076 67.7445 29.5246 67.585C29.3546 67.5028 29.1891 67.4118 29.0289 67.3124C28.9402 67.2692 28.8661 67.2016 28.8156 67.1177C28.7651 67.0339 28.7403 66.9374 28.7442 66.84C28.7442 66.4584 28.7442 66.0768 28.7442 65.6973C28.7368 65.603 28.7502 65.5082 28.7835 65.4195C28.8168 65.3308 28.8693 65.2503 28.9372 65.1835C29.0052 65.1167 29.087 65.0653 29.1771 65.0327C29.2672 65.0001 29.3634 64.9871 29.459 64.9947C29.6873 64.9752 29.9172 64.984 30.1432 65.021C30.2623 65.0458 30.3712 65.1048 30.4562 65.1908C30.5412 65.2767 30.5983 65.3855 30.6205 65.5035C30.659 65.7132 30.6721 65.9267 30.6594 66.1394C30.6594 66.2182 30.6307 66.2626 30.5447 66.2565H30.5201C30.3624 66.2565 30.176 66.3009 30.0572 66.2343C29.9384 66.1677 30.0182 65.9618 30.0039 65.8184C30.0061 65.783 30.0002 65.7475 29.9868 65.7145C29.9733 65.6815 29.9526 65.6519 29.9262 65.6278C29.8997 65.6036 29.8682 65.5856 29.8338 65.5749C29.7994 65.5642 29.7631 65.5612 29.7274 65.5661C29.4836 65.5661 29.3812 65.6165 29.373 65.8003C29.3587 66.0768 29.373 66.3554 29.373 66.6341C29.3767 66.6858 29.3953 66.7355 29.4264 66.7773C29.4576 66.8191 29.5002 66.8513 29.5492 66.8703L30.3869 67.3326C30.4643 67.3692 30.5296 67.4265 30.5756 67.4978C30.6216 67.5692 30.6463 67.6518 30.6471 67.7364C30.6751 68.1871 30.6682 68.6393 30.6266 69.089C30.6175 69.2361 30.553 69.3746 30.4458 69.4773C30.3386 69.5799 30.1963 69.6395 30.0469 69.6442C29.8327 69.6705 29.6159 69.6705 29.4017 69.6442C29.2287 69.6427 29.0632 69.5744 28.9407 69.454C28.8182 69.3336 28.7484 69.1707 28.7462 69.0002C28.6889 68.552 28.6889 68.5621 29.1395 68.548C29.33 68.548 29.3853 68.5924 29.3751 68.7802C29.3628 69.0022 29.4713 69.087 29.7048 69.087C29.9384 69.087 30.0019 69.0143 30.008 68.7802C30.0141 68.6631 30.0121 68.5419 30.0121 68.4188Z" fill="#FAFAFA"/>
<path d="M33.8282 68.4146C33.949 67.9745 33.7217 67.7403 33.3386 67.5828C33.1686 67.5007 33.0031 67.4097 32.8429 67.3103C32.7548 67.266 32.6813 67.1979 32.6312 67.1138C32.5811 67.0297 32.5565 66.9333 32.5603 66.8358C32.5603 66.4543 32.5603 66.0727 32.5603 65.6931C32.5544 65.5988 32.5692 65.5043 32.6035 65.416C32.6378 65.3277 32.6909 65.2477 32.7592 65.1813C32.8275 65.115 32.9094 65.0638 32.9995 65.0312C33.0895 64.9987 33.1856 64.9855 33.2813 64.9926C33.4431 64.9926 33.609 64.9926 33.7708 64.9926C33.9405 64.9826 34.1072 65.0393 34.2346 65.1501C34.3621 65.2609 34.4398 65.417 34.4509 65.5841C34.4646 65.6472 34.4721 65.7114 34.4734 65.7759C34.457 66.3675 34.6004 66.2403 33.9654 66.2584C33.865 66.2584 33.822 66.2261 33.8261 66.1252C33.8302 66.0242 33.8261 65.9051 33.8261 65.7961C33.8299 65.7664 33.8268 65.7363 33.8173 65.7078C33.8078 65.6794 33.7919 65.6535 33.7709 65.6318C33.75 65.6102 33.7244 65.5934 33.696 65.5827C33.6676 65.572 33.6372 65.5677 33.607 65.57C33.4554 65.57 33.2587 65.5195 33.2198 65.7315C33.1717 66.0505 33.1675 66.3744 33.2075 66.6945C33.2075 66.8096 33.3366 66.852 33.4246 66.8964C33.6909 67.0478 33.9593 67.1932 34.2276 67.3406C34.2965 67.3724 34.355 67.4225 34.3966 67.4853C34.4382 67.548 34.4612 67.621 34.4632 67.6959C34.4987 68.1592 34.4932 68.6246 34.4468 69.0869C34.4376 69.2341 34.3728 69.3726 34.2651 69.475C34.1574 69.5774 34.0146 69.6363 33.865 69.6401C33.67 69.6643 33.473 69.6683 33.2772 69.6522C33.1864 69.6568 33.0956 69.6434 33.0102 69.6126C32.9248 69.5818 32.8466 69.5344 32.7802 69.4731C32.7138 69.4119 32.6607 69.3381 32.624 69.2561C32.5872 69.1741 32.5677 69.0857 32.5664 68.9961C32.5029 68.5681 32.5152 68.562 32.9433 68.5479C33.1297 68.5479 33.2137 68.5741 33.1973 68.7841C33.1809 68.9941 33.2956 69.0869 33.5312 69.0869C33.7667 69.0869 33.8241 69.0122 33.8282 68.776C33.8302 68.6589 33.8282 68.5358 33.8282 68.4146Z" fill="#FAFAFA"/>
<path d="M15.4423 66.2202C15.3071 66.6765 15.5632 66.8985 15.9483 67.058C16.1314 67.1441 16.3086 67.2419 16.4788 67.3508C16.5518 67.39 16.6122 67.4486 16.6532 67.52C16.6941 67.5914 16.7139 67.6727 16.7102 67.7546C16.7102 68.1583 16.7102 68.5621 16.7102 68.9659C16.7176 69.0531 16.7065 69.1409 16.6778 69.2237C16.649 69.3065 16.6032 69.3825 16.5432 69.447C16.4831 69.5115 16.4102 69.563 16.329 69.5984C16.2477 69.6337 16.16 69.6521 16.0712 69.6523C15.867 69.6762 15.6608 69.6762 15.4567 69.6523C15.2908 69.653 15.1311 69.5903 15.0112 69.4773C14.8912 69.3644 14.8204 69.21 14.8135 69.0467C14.7316 68.5621 14.7316 68.5702 15.2088 68.5581C15.385 68.5581 15.4485 68.5985 15.4382 68.7802C15.4259 69.0184 15.514 69.0931 15.7496 69.0971C15.9851 69.1012 16.0671 69.0184 16.0691 68.7822C16.0712 68.546 16.0691 68.3158 16.0691 68.0836C16.0746 68.0194 16.0601 67.955 16.0276 67.8991C15.995 67.8432 15.9459 67.7984 15.8868 67.7707C15.6164 67.6233 15.3522 67.4699 15.0839 67.3225C14.9998 67.285 14.928 67.225 14.8766 67.1494C14.8252 67.0737 14.7962 66.9855 14.793 66.8945C14.7612 66.45 14.7674 66.0036 14.8114 65.56C14.8215 65.414 14.8861 65.2768 14.9928 65.175C15.0995 65.0732 15.2407 65.014 15.3891 65.0089C15.6297 64.9765 15.8736 64.9765 16.1142 65.0089C16.2802 65.0227 16.4345 65.099 16.5451 65.2219C16.6556 65.3448 16.7141 65.5049 16.7082 65.669C16.7184 65.8225 16.7082 65.9779 16.7082 66.1334C16.7082 66.2888 16.5914 66.2808 16.5034 66.2565C16.36 66.2081 16.1388 66.4039 16.0691 66.1374C16.0618 66.0346 16.0618 65.9314 16.0691 65.8285C16.0527 65.6266 15.9647 65.5661 15.7148 65.5721C15.5099 65.5721 15.4444 65.6408 15.4362 65.8386C15.4382 65.9638 15.4423 66.093 15.4423 66.2202Z" fill="#FAFAFA"/>
<path d="M25.3317 67.3286C25.3317 66.6119 25.3317 65.8952 25.3317 65.1785C25.3317 65.021 25.3788 64.9766 25.5365 64.9887C25.9462 64.9968 26.3517 64.9968 26.7532 64.9887C26.8863 64.9887 26.9171 65.0291 26.9191 65.1543C26.9191 65.558 26.9191 65.558 26.4992 65.558C26.3353 65.558 26.1285 65.4894 26.024 65.5883C25.9195 65.6872 25.9953 65.8952 25.9912 66.0547C25.9912 66.3111 25.9912 66.5695 25.9912 66.8279C25.9912 66.9309 26.026 66.9652 26.1264 66.9612C26.3169 66.9612 26.5074 66.9612 26.6979 66.9612C26.788 66.9612 26.8188 66.9874 26.8269 67.0803C26.8577 67.5366 26.8618 67.5366 26.4173 67.5366C26.0076 67.5366 26.0076 67.5366 26.0076 67.9504C26.0076 68.2593 26.0199 68.5702 26.0076 68.8791C26.0076 69.0588 26.0609 69.1012 26.2288 69.081C26.3968 69.0608 26.6098 69.081 26.7983 69.081C26.8945 69.081 26.9355 69.0992 26.9417 69.2062C26.9621 69.6524 26.9662 69.6504 26.5095 69.6504C26.1838 69.6504 25.856 69.6504 25.5283 69.6504C25.3993 69.6504 25.3603 69.61 25.3603 69.4828C25.3337 68.7762 25.3317 68.0534 25.3317 67.3286Z" fill="#FAFAFA"/>
<path d="M56.5011 67.2295C56.5011 66.5188 56.5011 65.8163 56.5011 65.0975C56.5011 64.9562 56.5338 64.9098 56.6854 64.9138C57.0951 64.9239 57.5047 64.9138 57.9021 64.9138C58.0107 64.9138 58.0496 64.9441 58.0517 65.0551C58.066 65.4872 58.0701 65.4852 57.6317 65.4892C57.4699 65.4892 57.2569 65.4165 57.1627 65.5255C57.0685 65.6346 57.136 65.8203 57.134 65.9737C57.134 66.22 57.134 66.4643 57.134 66.7106C57.134 66.8399 57.1627 66.8964 57.3061 66.8863C57.4822 66.8742 57.6604 66.8863 57.8366 66.8863C57.9287 66.8863 57.9574 66.9166 57.9636 67.0094C57.9882 67.4415 57.9923 67.4415 57.5539 67.4415C57.1156 67.4415 57.1299 67.4415 57.1299 67.8675C57.1299 68.1703 57.1422 68.4732 57.1299 68.778C57.1197 68.9597 57.1873 68.996 57.3511 68.9799C57.515 68.9637 57.7198 68.9799 57.9021 68.9799C58.0271 68.9799 58.0537 69.0223 58.0537 69.1374C58.0537 69.5412 58.0639 69.5412 57.6604 69.5412C57.3327 69.5412 57.005 69.5412 56.6772 69.5412C56.5379 69.5412 56.5031 69.5028 56.5031 69.3675C56.5052 68.6427 56.5011 67.9402 56.5011 67.2295Z" fill="#FAFAFA"/>
<path d="M46.6343 67.2296C46.6343 66.519 46.6343 65.8164 46.6343 65.0997C46.6343 64.9503 46.6793 64.918 46.8227 64.92C47.2672 64.92 47.2672 64.92 47.2672 65.3642C47.2672 66.5069 47.2672 67.6476 47.2672 68.7963C47.2672 68.9397 47.2938 69.0123 47.4577 68.9982C47.5748 68.9861 47.6929 68.9861 47.81 68.9982C47.9165 68.9982 48.0804 68.9396 48.1152 69.0386C48.1471 69.1894 48.1513 69.3446 48.1275 69.4969C48.1275 69.5615 48.062 69.5473 48.0189 69.5473C47.6093 69.5473 47.1812 69.5473 46.7633 69.5473C46.6261 69.5473 46.6404 69.4706 46.6404 69.3858L46.6343 67.2296Z" fill="#FAFAFA"/>
<path d="M50.5466 67.2153C50.5466 67.926 50.5466 68.6286 50.5466 69.3453C50.5466 69.4826 50.522 69.5371 50.3663 69.5351C49.9055 69.5351 49.9055 69.5351 49.9055 69.0808C49.9055 67.7645 49.9055 66.4562 49.9055 65.1318C49.9055 64.9703 49.9341 64.9057 50.1103 64.9118C50.5404 64.9259 50.5404 64.9118 50.5404 65.3378L50.5466 67.2153Z" fill="#FAFAFA"/>
<path d="M18.6807 67.3366C18.6807 66.6138 18.6807 65.8911 18.6807 65.1683C18.6807 65.0209 18.7238 64.9866 18.8671 64.9886C19.3178 64.9886 19.3178 64.9886 19.3178 65.4287C19.3178 66.7774 19.3178 68.124 19.3178 69.4666C19.3178 69.62 19.2748 69.6684 19.1129 69.6684C18.6725 69.6684 18.6725 69.6684 18.6725 69.2344L18.6807 67.3366Z" fill="#FAFAFA"/>
<path d="M34.6864 40.0834C34.6864 38.7085 34.6864 37.3337 34.6864 35.9588C34.6864 35.7771 34.7397 35.7448 34.9035 35.7569C35.2374 35.7771 35.5713 35.7831 35.9052 35.7932C35.9371 35.7903 35.9694 35.7948 35.9993 35.8063C36.0291 35.8179 36.0558 35.8362 36.0772 35.8599C36.2145 36.0153 36.3537 36.1708 36.4992 36.3182C36.5709 36.3908 36.5545 36.4716 36.5545 36.5544C36.5545 38.6325 36.5477 40.7106 36.534 42.7887V43.0027C36.534 43.7457 36.534 43.7437 36.0526 44.309C36.0274 44.3414 35.9943 44.3669 35.9563 44.3831C35.9183 44.3994 35.8767 44.4058 35.8355 44.4018C35.5078 44.4018 35.1801 44.3897 34.8523 44.4018C34.713 44.4018 34.6823 44.3635 34.6823 44.2302C34.6823 42.8493 34.6823 41.4664 34.6823 40.0854L34.6864 40.0834Z" fill="#FAFAFA"/>
<path d="M34.7048 30.6875C34.7048 29.6033 34.7048 28.5172 34.7048 27.433C34.7048 27.2695 34.7396 27.2069 34.9219 27.2311C35.2128 27.2654 35.5077 27.2775 35.8027 27.2897C35.8918 27.2994 35.9753 27.3377 36.0403 27.3987C36.4827 27.7136 36.5995 28.1214 36.5851 28.6585C36.5462 30.2595 36.5647 31.8625 36.5687 33.4635C36.5679 33.6081 36.5132 33.7475 36.4151 33.8551C36.3212 33.9893 36.1895 34.0934 36.0363 34.1548C35.8831 34.2161 35.715 34.232 35.5528 34.2004C35.3191 34.1714 35.0835 34.1606 34.8482 34.1681C34.713 34.1681 34.6904 34.1196 34.6904 34.0005C34.6904 32.8962 34.6904 31.7918 34.6904 30.6875H34.7048Z" fill="#FAFAFA"/>
<path d="M28.0621 30.8569C28.0621 29.8232 28.0621 28.7915 28.0621 27.7579C28.0621 27.6266 28.0785 27.556 28.2362 27.556C28.5824 27.556 28.9286 27.5257 29.2747 27.5095C29.3005 27.5046 29.3269 27.5046 29.3526 27.5095C29.5704 27.6857 29.7348 27.9176 29.8278 28.1798C29.8278 29.8326 29.8326 31.4854 29.8421 33.1382C29.8438 33.1754 29.8378 33.2124 29.8244 33.2471C29.811 33.2818 29.7905 33.3135 29.7643 33.3401C29.5595 33.5602 29.3423 33.7823 29.1334 34.0044C29.1169 34.0282 29.0954 34.0484 29.0703 34.0633C29.0452 34.0783 29.0171 34.0878 28.988 34.0912C28.7196 34.0912 28.4513 34.1053 28.183 34.1194C28.0437 34.1194 28.0826 34.0326 28.0826 33.964V30.8569H28.0621Z" fill="#FAFAFA"/>
<path d="M15.3235 40.7295C15.3235 39.5182 15.3235 38.2887 15.3235 37.0693C15.3235 36.9219 15.3707 36.8674 15.512 36.8512C15.7168 36.831 15.9217 36.8048 16.1142 36.7705C16.1877 36.7556 16.2637 36.7592 16.3354 36.7811C16.407 36.803 16.4718 36.8424 16.5239 36.8956C16.7287 37.0854 17.0114 37.2207 17.1179 37.4468C17.2244 37.6729 17.1527 37.9778 17.1548 38.2544C17.1548 40.0936 17.1548 41.9348 17.1814 43.774C17.1768 43.9509 17.1102 44.1207 16.9929 44.2545C16.9248 44.366 16.8257 44.4558 16.7073 44.5134C16.589 44.571 16.4564 44.594 16.3252 44.5796C16.0518 44.5677 15.778 44.5758 15.5058 44.6038C15.3666 44.6038 15.3317 44.5735 15.3317 44.4362C15.3317 43.2027 15.3317 41.9691 15.3317 40.7356L15.3235 40.7295Z" fill="#FAFAFA"/>
<path d="M15.3256 32.347C15.3256 31.4042 15.3256 30.4614 15.3256 29.5206C15.3256 29.3449 15.3563 29.2581 15.5529 29.2278C15.8087 29.1871 16.0608 29.1263 16.3067 29.0461C16.3831 29.0257 16.463 29.0217 16.541 29.0342C16.6191 29.0468 16.6935 29.0756 16.7594 29.1188C16.8872 29.1736 16.9931 29.2684 17.0608 29.3884C17.1286 29.5084 17.1544 29.6471 17.1342 29.783C17.1219 31.2689 17.1342 32.7528 17.1527 34.2387C17.1548 34.2958 17.145 34.3526 17.1238 34.4058C17.1027 34.4589 17.0707 34.5072 17.0298 34.5476C16.8249 34.7657 16.6201 34.9918 16.4337 35.2159C16.4019 35.2648 16.3531 35.3007 16.2965 35.3168C16.0077 35.3633 15.7188 35.4097 15.428 35.4521C15.2825 35.4723 15.3379 35.3532 15.3379 35.2946C15.3379 34.3107 15.3379 33.3289 15.3379 32.349L15.3256 32.347Z" fill="#FAFAFA"/>
<path d="M46.8698 32.2763C46.8698 31.283 46.8698 30.2897 46.8698 29.2944C46.8698 29.141 46.8985 29.1107 47.0521 29.1592C47.2598 29.2363 47.4767 29.2872 47.6974 29.3106C48.191 29.3368 48.3323 29.7467 48.5741 30.0475C48.595 30.0944 48.6021 30.1462 48.5945 30.1969C48.5945 31.8295 48.5904 33.4621 48.5822 35.0947C48.5876 35.1424 48.5784 35.1906 48.5558 35.233C48.5331 35.2755 48.4981 35.3103 48.4552 35.333C48.2975 35.4198 48.2033 35.6297 47.9841 35.6015C47.6339 35.5571 47.2877 35.4965 46.9374 35.4501C46.8084 35.4339 46.8473 35.3431 46.8473 35.2764C46.8473 34.6183 46.8473 33.9601 46.8473 33.3019C46.8473 32.9608 46.8473 32.6175 46.8473 32.2763H46.8698Z" fill="#FAFAFA"/>
<path d="M22.4906 31.7795C22.5296 32.3004 22.5705 32.8193 22.6053 33.3381C22.6832 34.4391 22.7597 35.5394 22.8348 36.639C22.8901 37.4466 22.9433 38.2542 23.0027 39.0718C23.0027 39.199 22.9884 39.2515 22.8409 39.2515C22.5869 39.2515 22.3309 39.2697 22.0769 39.2879C21.9765 39.2879 21.9622 39.2636 21.9683 39.1687C22.0789 37.6061 22.1861 36.0428 22.2899 34.4788C22.35 33.5811 22.4087 32.682 22.4661 31.7816L22.4906 31.7795Z" fill="#FAFAFA"/>
</svg>
